{"glyphs":{"0":{"ha":925,"x_min":87,"x_max":839,"o":"m 463 -13 q 87 514 87 -13 q 184 915 87 790 q 463 1041 281 1041 q 742 915 644 1041 q 839 514 839 789 q 463 -13 839 -13 m 463 86 q 603 126 546 86 q 692 259 660 165 q 723 512 723 353 q 692 767 723 672 q 603 902 660 862 q 463 942 546 942 q 322 902 379 942 q 233 768 265 863 q 202 516 202 674 q 233 261 202 356 q 322 126 265 166 q 463 86 379 86 z "},"1":{"ha":551,"x_min":18,"x_max":419,"o":"m 344 1031 l 419 1031 l 419 0 l 303 0 l 303 886 l 18 685 l 18 800 l 344 1031 z "},"2":{"ha":733,"x_min":34,"x_max":685,"o":"m 685 99 l 685 0 l 47 0 l 47 63 l 358 444 q 474 615 440 544 q 508 751 508 685 q 451 897 508 850 q 276 943 394 943 q 34 901 145 943 l 34 1001 q 150 1030 84 1019 q 285 1041 216 1041 q 623 763 623 1041 q 607 651 623 704 q 554 537 591 597 q 453 399 517 476 l 204 99 l 685 99 z "},"3":{"ha":743,"x_min":38,"x_max":693,"o":"m 467 535 q 635 448 577 513 q 693 281 693 383 q 595 64 693 141 q 301 -13 497 -13 q 166 -3 234 -13 q 38 28 99 8 l 38 122 q 170 91 102 101 q 299 80 238 80 q 581 288 581 80 q 517 431 581 382 q 322 481 453 481 l 181 481 l 181 574 l 256 574 q 472 624 399 574 q 545 770 545 673 q 485 902 545 856 q 309 948 424 948 q 67 909 181 948 l 67 1003 q 188 1031 122 1021 q 319 1041 253 1041 q 503 1010 428 1041 q 618 920 579 979 q 658 778 658 861 q 607 626 658 689 q 467 535 557 563 z "},"4":{"ha":868,"x_min":35,"x_max":838,"o":"m 838 340 l 838 246 l 686 246 l 686 0 l 580 0 l 580 246 l 35 246 l 35 310 l 461 1028 l 577 1028 l 170 340 l 580 340 l 594 681 l 686 681 l 686 340 l 838 340 z "},"5":{"ha":753,"x_min":58,"x_max":712,"o":"m 274 594 q 527 549 431 585 q 668 451 624 514 q 711 293 712 388 q 612 65 711 143 q 321 -13 513 -13 q 186 -2 253 -13 q 58 29 118 9 l 58 122 q 188 91 120 102 q 319 81 255 81 q 530 133 460 81 q 600 291 600 185 q 566 402 600 359 q 453 470 532 445 q 235 502 374 494 l 99 510 l 135 1028 l 669 1028 l 669 934 l 238 934 l 215 597 l 274 594 z "},"6":{"ha":850,"x_min":92,"x_max":803,"o":"m 465 592 q 714 515 624 592 q 803 290 803 439 q 762 125 803 194 q 646 22 721 57 q 473 -13 572 -13 q 192 106 291 -13 q 92 481 92 226 q 209 901 92 762 q 552 1041 326 1041 q 754 1009 674 1041 l 754 914 q 660 939 711 931 q 557 947 608 947 q 295 841 382 947 q 206 517 208 736 q 325 572 256 552 q 465 592 394 592 m 474 78 q 635 130 576 78 q 695 288 695 183 q 631 448 695 395 q 447 501 567 501 q 320 483 385 501 q 207 427 256 464 q 281 159 213 240 q 474 78 349 78 z "},"7":{"ha":692,"x_min":10,"x_max":650,"o":"m 10 1028 l 650 1028 l 650 965 l 247 0 l 126 0 l 522 929 l 10 929 l 10 1028 z "},"8":{"ha":925,"x_min":76,"x_max":849,"o":"m 633 523 q 799 420 748 482 q 849 268 849 359 q 806 120 849 183 q 676 22 762 57 q 468 -13 590 -13 q 176 58 276 -13 q 76 260 76 129 q 127 421 76 353 q 276 527 179 489 q 150 628 189 568 q 110 771 110 688 q 152 914 110 853 q 274 1008 194 975 q 465 1041 353 1041 q 652 1010 574 1041 q 772 920 731 978 q 813 781 813 862 q 768 629 813 694 q 633 523 723 563 m 223 775 q 249 677 223 717 q 336 609 274 638 q 506 558 397 580 l 534 551 q 667 643 626 590 q 709 772 709 695 q 645 906 709 860 q 463 953 581 953 q 284 906 345 953 q 223 775 223 858 m 469 75 q 669 123 601 75 q 738 262 738 172 q 711 356 738 317 q 624 421 685 394 q 459 469 564 448 q 365 493 416 478 q 232 404 278 463 q 186 271 186 346 q 258 125 186 175 q 469 75 330 75 z "},"9":{"ha":850,"x_min":47,"x_max":758,"o":"m 377 1041 q 658 922 559 1041 q 758 547 758 802 q 641 126 758 266 q 298 -13 524 -13 q 96 19 176 -13 l 96 114 q 190 89 139 97 q 293 81 242 81 q 555 186 468 81 q 644 511 642 292 q 525 456 594 476 q 385 436 456 436 q 136 513 226 436 q 47 738 47 589 q 88 902 47 834 q 204 1006 129 971 q 377 1041 278 1041 m 155 740 q 219 580 155 633 q 403 526 283 526 q 530 545 465 526 q 643 601 594 564 q 569 869 637 788 q 376 950 501 950 q 215 898 274 950 q 155 740 155 845 z "},"\u0000":{"ha":0,"x_min":0,"x_max":0,"o":""},"\r":{"ha":363,"x_min":0,"x_max":0,"o":""}," ":{"ha":363,"x_min":0,"x_max":0,"o":""},"A":{"ha":993,"x_min":24,"x_max":970,"o":"m 852 0 l 728 331 l 264 331 l 140 0 l 24 0 l 415 1028 l 578 1028 l 970 0 l 852 0 m 301 428 l 691 428 l 496 947 l 301 428 z "},"Á":{"ha":993,"x_min":24,"x_max":970,"o":"m 852 0 l 728 331 l 264 331 l 140 0 l 24 0 l 415 1028 l 578 1028 l 970 0 l 852 0 m 301 428 l 691 428 l 496 947 l 301 428 m 444 1117 l 583 1314 l 708 1314 l 550 1117 l 444 1117 z "},"Ă":{"ha":993,"x_min":24,"x_max":970,"o":"m 852 0 l 728 331 l 264 331 l 140 0 l 24 0 l 415 1028 l 578 1028 l 970 0 l 852 0 m 301 428 l 691 428 l 496 947 l 301 428 m 498 1123 q 329 1171 389 1123 q 260 1299 269 1219 l 338 1299 q 384 1217 347 1245 q 498 1190 422 1190 q 611 1217 575 1190 q 656 1299 648 1245 l 734 1299 q 666 1170 725 1217 q 498 1123 608 1123 z "},"Ắ":{"ha":993,"x_min":24,"x_max":970,"o":"m 852 0 l 728 331 l 264 331 l 140 0 l 24 0 l 415 1028 l 578 1028 l 970 0 l 852 0 m 301 428 l 691 428 l 496 947 l 301 428 m 459 1278 l 582 1450 l 676 1450 l 535 1278 l 459 1278 m 498 1123 q 333 1168 391 1123 q 266 1291 275 1214 l 336 1291 q 382 1211 345 1238 q 498 1184 419 1184 q 613 1211 577 1184 q 660 1291 649 1238 l 728 1291 q 662 1168 719 1214 q 498 1123 604 1123 z "},"Ặ":{"ha":993,"x_min":24,"x_max":970,"o":"m 852 0 l 728 331 l 264 331 l 140 0 l 24 0 l 415 1028 l 578 1028 l 970 0 l 852 0 m 301 428 l 691 428 l 496 947 l 301 428 m 497 -244 q 439 -227 460 -244 q 419 -179 419 -210 q 439 -131 419 -148 q 497 -113 460 -113 q 555 -131 535 -113 q 576 -179 576 -148 q 555 -227 576 -210 q 497 -244 535 -244 m 498 1123 q 329 1171 389 1123 q 260 1299 269 1219 l 338 1299 q 384 1217 347 1245 q 498 1190 422 1190 q 611 1217 575 1190 q 656 1299 648 1245 l 734 1299 q 666 1170 725 1217 q 498 1123 608 1123 z "},"Ằ":{"ha":993,"x_min":24,"x_max":970,"o":"m 852 0 l 728 331 l 264 331 l 140 0 l 24 0 l 415 1028 l 578 1028 l 970 0 l 852 0 m 301 428 l 691 428 l 496 947 l 301 428 m 459 1278 l 319 1450 l 413 1450 l 535 1278 l 459 1278 m 497 1123 q 332 1168 390 1123 q 266 1291 275 1213 l 335 1291 q 381 1211 345 1238 q 497 1184 417 1184 q 612 1211 576 1184 q 658 1291 649 1238 l 728 1291 q 661 1168 719 1214 q 497 1123 603 1123 z "},"Ẳ":{"ha":993,"x_min":24,"x_max":970,"o":"m 852 0 l 728 331 l 264 331 l 140 0 l 24 0 l 415 1028 l 578 1028 l 970 0 l 852 0 m 301 428 l 691 428 l 496 947 l 301 428 m 461 1278 q 482 1321 463 1306 q 535 1349 501 1336 q 572 1367 560 1359 q 583 1388 583 1376 q 564 1412 583 1403 q 499 1420 545 1420 q 428 1415 461 1420 q 357 1399 395 1410 l 357 1449 q 506 1472 422 1472 q 617 1451 581 1472 q 653 1393 653 1430 q 636 1352 653 1367 q 586 1324 619 1338 q 547 1303 560 1313 q 532 1278 534 1294 l 461 1278 m 497 1123 q 332 1168 390 1123 q 266 1291 275 1213 l 336 1291 q 381 1211 345 1238 q 497 1184 417 1184 q 612 1211 575 1184 q 660 1291 649 1238 l 728 1291 q 661 1168 719 1214 q 497 1123 603 1123 z "},"Ẵ":{"ha":993,"x_min":24,"x_max":970,"o":"m 852 0 l 728 331 l 264 331 l 140 0 l 24 0 l 415 1028 l 578 1028 l 970 0 l 852 0 m 301 428 l 691 428 l 496 947 l 301 428 m 601 1337 q 548 1343 574 1337 q 485 1363 523 1350 q 431 1380 451 1375 q 392 1385 412 1385 q 327 1374 357 1385 q 266 1337 297 1363 l 266 1403 q 323 1435 292 1425 q 393 1446 354 1446 q 446 1439 421 1446 q 509 1419 472 1433 q 563 1402 544 1408 q 602 1397 583 1397 q 668 1408 638 1397 q 728 1445 697 1419 l 728 1379 q 671 1347 702 1357 q 601 1337 640 1337 m 497 1123 q 332 1168 390 1123 q 266 1291 275 1213 l 336 1291 q 381 1211 345 1238 q 497 1184 417 1184 q 612 1211 575 1184 q 658 1291 649 1238 l 728 1291 q 661 1168 719 1214 q 497 1123 603 1123 z "},"Â":{"ha":993,"x_min":24,"x_max":970,"o":"m 852 0 l 728 331 l 264 331 l 140 0 l 24 0 l 415 1028 l 578 1028 l 970 0 l 852 0 m 301 428 l 691 428 l 496 947 l 301 428 m 736 1117 l 633 1117 l 497 1263 l 362 1117 l 258 1117 l 445 1314 l 549 1314 l 736 1117 z "},"Ấ":{"ha":993,"x_min":24,"x_max":970,"o":"m 852 0 l 728 331 l 264 331 l 140 0 l 24 0 l 415 1028 l 578 1028 l 970 0 l 852 0 m 301 428 l 691 428 l 496 947 l 301 428 m 790 1433 l 885 1433 l 744 1251 l 668 1251 l 790 1433 m 445 1306 l 549 1306 l 736 1117 l 633 1117 l 497 1259 l 362 1117 l 258 1117 l 445 1306 z "},"Ậ":{"ha":993,"x_min":24,"x_max":970,"o":"m 852 0 l 728 331 l 264 331 l 140 0 l 24 0 l 415 1028 l 578 1028 l 970 0 l 852 0 m 301 428 l 691 428 l 496 947 l 301 428 m 497 -244 q 439 -227 460 -244 q 419 -179 419 -210 q 439 -131 419 -148 q 497 -113 460 -113 q 555 -131 535 -113 q 576 -179 576 -148 q 555 -227 576 -210 q 497 -244 535 -244 m 736 1117 l 633 1117 l 497 1263 l 362 1117 l 258 1117 l 445 1314 l 549 1314 l 736 1117 z "},"Ầ":{"ha":993,"x_min":24,"x_max":970,"o":"m 852 0 l 728 331 l 264 331 l 140 0 l 24 0 l 415 1028 l 578 1028 l 970 0 l 852 0 m 301 428 l 691 428 l 496 947 l 301 428 m 762 1251 l 685 1251 l 545 1433 l 639 1433 l 762 1251 m 445 1306 l 549 1306 l 736 1117 l 633 1117 l 497 1259 l 362 1117 l 258 1117 l 445 1306 z "},"Ẩ":{"ha":993,"x_min":24,"x_max":970,"o":"m 852 0 l 728 331 l 264 331 l 140 0 l 24 0 l 415 1028 l 578 1028 l 970 0 l 852 0 m 301 428 l 691 428 l 496 947 l 301 428 m 713 1444 q 824 1424 788 1444 q 860 1366 860 1403 q 850 1334 860 1347 q 828 1314 841 1322 q 793 1297 815 1307 q 753 1276 766 1285 q 739 1251 741 1267 l 668 1251 q 680 1284 669 1271 q 705 1306 691 1298 q 742 1323 719 1313 q 778 1340 766 1332 q 790 1361 790 1349 q 771 1385 790 1376 q 706 1393 752 1393 q 635 1388 668 1393 q 564 1372 602 1383 l 564 1422 q 713 1444 626 1444 m 445 1306 l 549 1306 l 736 1117 l 633 1117 l 497 1259 l 362 1117 l 258 1117 l 445 1306 z "},"Ẫ":{"ha":993,"x_min":24,"x_max":970,"o":"m 852 0 l 728 331 l 264 331 l 140 0 l 24 0 l 415 1028 l 578 1028 l 970 0 l 852 0 m 301 428 l 691 428 l 496 947 l 301 428 m 607 1397 q 674 1408 644 1397 q 736 1445 704 1419 l 736 1379 q 678 1347 710 1357 q 606 1337 647 1337 q 550 1343 577 1337 q 484 1363 524 1350 q 428 1380 449 1375 q 388 1385 408 1385 q 321 1374 351 1385 q 258 1337 290 1363 l 258 1403 q 317 1436 285 1426 q 388 1446 349 1446 q 444 1439 417 1446 q 510 1419 471 1433 q 566 1402 546 1408 q 607 1397 586 1397 m 445 1306 l 549 1306 l 736 1117 l 633 1117 l 497 1259 l 362 1117 l 258 1117 l 445 1306 z "},"Ȁ":{"ha":993,"x_min":24,"x_max":970,"o":"m 852 0 l 728 331 l 264 331 l 140 0 l 24 0 l 415 1028 l 578 1028 l 970 0 l 852 0 m 301 428 l 691 428 l 496 947 l 301 428 m 328 1117 l 220 1314 l 317 1314 l 419 1117 l 328 1117 m 576 1117 l 468 1314 l 565 1314 l 667 1117 l 576 1117 z "},"Ä":{"ha":993,"x_min":24,"x_max":970,"o":"m 852 0 l 728 331 l 264 331 l 140 0 l 24 0 l 415 1028 l 578 1028 l 970 0 l 852 0 m 301 428 l 691 428 l 496 947 l 301 428 m 321 1151 q 268 1168 287 1151 q 249 1216 249 1185 q 268 1264 249 1247 q 321 1282 287 1282 q 374 1264 355 1282 q 393 1216 393 1247 q 374 1168 393 1185 q 321 1151 355 1151 m 674 1151 q 620 1168 640 1151 q 601 1216 601 1185 q 620 1264 601 1247 q 674 1282 640 1282 q 727 1264 708 1282 q 746 1216 746 1247 q 727 1168 746 1185 q 674 1151 708 1151 z "},"Ạ":{"ha":993,"x_min":24,"x_max":970,"o":"m 852 0 l 728 331 l 264 331 l 140 0 l 24 0 l 415 1028 l 578 1028 l 970 0 l 852 0 m 301 428 l 691 428 l 496 947 l 301 428 m 497 -244 q 439 -227 460 -244 q 419 -179 419 -210 q 439 -131 419 -148 q 497 -113 460 -113 q 555 -131 535 -113 q 576 -179 576 -148 q 555 -227 576 -210 q 497 -244 535 -244 z "},"À":{"ha":993,"x_min":24,"x_max":970,"o":"m 852 0 l 728 331 l 264 331 l 140 0 l 24 0 l 415 1028 l 578 1028 l 970 0 l 852 0 m 301 428 l 691 428 l 496 947 l 301 428 m 444 1117 l 286 1314 l 412 1314 l 551 1117 l 444 1117 z "},"Ả":{"ha":993,"x_min":24,"x_max":970,"o":"m 852 0 l 728 331 l 264 331 l 140 0 l 24 0 l 415 1028 l 578 1028 l 970 0 l 852 0 m 301 428 l 691 428 l 496 947 l 301 428 m 461 1117 q 482 1161 463 1146 q 536 1191 501 1176 q 572 1210 561 1202 q 583 1231 583 1217 q 564 1255 583 1247 q 499 1264 545 1264 q 428 1259 460 1264 q 357 1242 395 1253 l 357 1297 q 506 1319 419 1319 q 617 1297 581 1319 q 653 1237 653 1276 q 636 1194 653 1209 q 586 1165 619 1179 q 547 1143 560 1153 q 532 1117 534 1133 l 461 1117 z "},"Ȃ":{"ha":993,"x_min":24,"x_max":970,"o":"m 852 0 l 728 331 l 264 331 l 140 0 l 24 0 l 415 1028 l 578 1028 l 970 0 l 852 0 m 301 428 l 691 428 l 496 947 l 301 428 m 260 1131 q 328 1260 269 1213 q 497 1308 387 1308 q 665 1260 606 1308 q 734 1131 725 1212 l 656 1131 q 610 1213 647 1185 q 497 1240 573 1240 q 383 1213 419 1240 q 338 1131 347 1185 l 260 1131 z "},"Ā":{"ha":993,"x_min":24,"x_max":970,"o":"m 852 0 l 728 331 l 264 331 l 140 0 l 24 0 l 415 1028 l 578 1028 l 970 0 l 852 0 m 301 428 l 691 428 l 496 947 l 301 428 m 274 1177 l 274 1253 l 721 1253 l 721 1177 l 274 1177 z "},"Ą":{"ha":993,"x_min":24,"x_max":1042,"o":"m 924 -233 q 978 -226 951 -233 q 1042 -207 1005 -220 l 1042 -263 q 915 -289 979 -289 q 789 -255 833 -289 q 746 -161 746 -222 q 772 -74 746 -114 q 856 0 797 -35 l 852 0 l 728 331 l 264 331 l 140 0 l 24 0 l 415 1028 l 578 1028 l 970 0 q 852 -74 885 -37 q 819 -154 819 -110 q 845 -212 819 -192 q 924 -233 872 -233 m 301 428 l 691 428 l 496 947 l 301 428 z "},"Å":{"ha":993,"x_min":24,"x_max":970,"o":"m 728 331 l 264 331 l 140 0 l 24 0 l 415 1028 l 450 1028 q 386 1075 410 1042 q 362 1154 362 1109 q 380 1223 362 1192 q 428 1272 397 1254 q 498 1289 459 1289 q 568 1272 537 1289 q 616 1223 599 1254 q 634 1154 634 1192 q 610 1075 634 1109 q 546 1028 586 1042 l 578 1028 l 970 0 l 852 0 l 728 331 m 417 1154 q 440 1094 417 1117 q 498 1072 462 1072 q 556 1094 534 1072 q 578 1154 578 1117 q 556 1215 578 1192 q 498 1237 534 1237 q 440 1215 462 1237 q 417 1154 417 1192 m 301 428 l 691 428 l 496 947 l 301 428 z "},"Ǻ":{"ha":993,"x_min":24,"x_max":970,"o":"m 728 331 l 264 331 l 140 0 l 24 0 l 415 1028 l 450 1028 q 386 1075 410 1042 q 362 1154 362 1109 q 380 1223 362 1192 q 428 1272 397 1254 q 498 1289 459 1289 q 558 1276 532 1289 l 643 1367 l 739 1367 l 610 1234 q 634 1154 634 1200 q 610 1075 634 1109 q 546 1028 586 1042 l 578 1028 l 970 0 l 852 0 l 728 331 m 417 1154 q 440 1094 417 1117 q 498 1072 462 1072 q 556 1094 534 1072 q 578 1154 578 1117 q 556 1215 578 1192 q 498 1237 534 1237 q 440 1215 462 1237 q 417 1154 417 1192 m 301 428 l 691 428 l 496 947 l 301 428 z "},"Ã":{"ha":993,"x_min":24,"x_max":970,"o":"m 852 0 l 728 331 l 264 331 l 140 0 l 24 0 l 415 1028 l 578 1028 l 970 0 l 852 0 m 301 428 l 691 428 l 496 947 l 301 428 m 610 1158 q 551 1165 579 1158 q 486 1186 524 1172 q 429 1205 452 1199 q 383 1210 406 1210 q 314 1199 344 1210 q 256 1162 284 1187 l 256 1239 q 310 1273 279 1262 q 384 1284 342 1284 q 443 1277 415 1284 q 508 1256 471 1270 q 565 1238 542 1244 q 612 1232 588 1232 q 681 1243 651 1232 q 738 1281 710 1255 l 738 1203 q 684 1169 715 1181 q 610 1158 653 1158 z "},"Æ":{"ha":1358,"x_min":24,"x_max":1297,"o":"m 796 97 l 1297 97 l 1297 0 l 688 0 l 663 331 l 267 331 l 140 0 l 24 0 l 421 1028 l 1290 1028 l 1290 931 l 728 931 l 757 576 l 1219 576 l 1219 478 l 765 478 l 796 97 m 304 428 l 655 428 l 616 931 l 497 931 l 304 428 z "},"Ǽ":{"ha":1358,"x_min":24,"x_max":1297,"o":"m 796 97 l 1297 97 l 1297 0 l 688 0 l 663 331 l 267 331 l 140 0 l 24 0 l 421 1028 l 1290 1028 l 1290 931 l 728 931 l 757 576 l 1219 576 l 1219 478 l 765 478 l 796 97 m 304 428 l 655 428 l 616 931 l 497 931 l 304 428 m 613 1117 l 751 1314 l 877 1314 l 719 1117 l 613 1117 z "},"B":{"ha":919,"x_min":126,"x_max":866,"o":"m 653 531 q 813 447 759 511 q 866 281 866 382 q 819 121 866 185 q 669 24 772 57 q 398 -9 566 -9 q 126 10 265 -9 l 126 1008 q 428 1039 274 1039 q 739 971 641 1039 q 837 763 837 903 q 791 614 837 675 q 653 531 745 553 m 440 947 q 240 931 325 947 l 240 574 l 467 574 q 664 618 601 574 q 726 759 726 663 q 698 868 726 826 q 606 928 669 909 q 440 947 543 947 m 422 83 q 621 105 548 83 q 725 172 694 127 q 756 286 756 216 q 690 434 756 387 q 483 481 624 481 l 240 481 l 240 94 q 422 83 317 83 z "},"C":{"ha":860,"x_min":80,"x_max":826,"o":"m 573 -13 q 80 512 80 -13 q 211 910 80 780 q 585 1041 342 1041 q 826 1008 709 1041 l 826 908 q 590 941 711 941 q 299 840 397 941 q 201 515 201 739 q 247 264 201 358 q 375 128 292 169 q 582 87 459 87 q 702 96 644 87 q 826 128 760 106 l 826 28 q 573 -13 710 -13 z "},"Ć":{"ha":860,"x_min":80,"x_max":826,"o":"m 573 -13 q 80 512 80 -13 q 211 910 80 780 q 585 1041 342 1041 q 826 1008 709 1041 l 826 908 q 590 941 711 941 q 299 840 397 941 q 201 515 201 739 q 247 264 201 358 q 375 128 292 169 q 582 87 459 87 q 702 96 644 87 q 826 128 760 106 l 826 28 q 573 -13 710 -13 m 465 1117 l 604 1314 l 730 1314 l 572 1117 l 465 1117 z "},"Č":{"ha":860,"x_min":80,"x_max":826,"o":"m 573 -13 q 80 512 80 -13 q 211 910 80 780 q 585 1041 342 1041 q 826 1008 709 1041 l 826 908 q 590 941 711 941 q 299 840 397 941 q 201 515 201 739 q 247 264 201 358 q 375 128 292 169 q 582 87 459 87 q 702 96 644 87 q 826 128 760 106 l 826 28 q 573 -13 710 -13 m 654 1314 l 758 1314 l 571 1117 l 467 1117 l 280 1314 l 383 1314 l 519 1167 l 654 1314 z "},"Ç":{"ha":860,"x_min":80,"x_max":826,"o":"m 590 941 q 299 840 397 941 q 201 515 201 739 q 247 264 201 358 q 375 128 292 169 q 582 87 459 87 q 702 96 644 87 q 826 128 760 106 l 826 28 q 573 -13 710 -13 l 555 -13 l 555 -70 q 650 -102 617 -74 q 684 -178 684 -130 q 643 -261 684 -233 q 525 -289 601 -289 q 452 -282 489 -289 q 385 -263 415 -276 l 385 -206 q 521 -234 454 -234 q 616 -176 616 -234 q 519 -117 616 -117 l 490 -117 l 490 -9 q 80 512 80 33 q 211 910 80 780 q 585 1041 342 1041 q 826 1008 709 1041 l 826 908 q 590 941 711 941 z "},"Ḉ":{"ha":860,"x_min":80,"x_max":826,"o":"m 730 1314 l 572 1117 l 465 1117 l 604 1314 l 730 1314 m 590 941 q 299 840 397 941 q 201 515 201 739 q 247 264 201 358 q 375 128 292 169 q 582 87 459 87 q 702 96 644 87 q 826 128 760 106 l 826 28 q 573 -13 710 -13 l 555 -13 l 555 -70 q 650 -102 617 -74 q 684 -178 684 -130 q 643 -261 684 -233 q 525 -289 601 -289 q 452 -282 489 -289 q 385 -263 415 -276 l 385 -206 q 521 -234 454 -234 q 616 -176 616 -234 q 519 -117 616 -117 l 490 -117 l 490 -9 q 80 512 80 33 q 211 910 80 780 q 585 1041 342 1041 q 826 1008 709 1041 l 826 908 q 590 941 711 941 z "},"Ĉ":{"ha":860,"x_min":80,"x_max":826,"o":"m 573 -13 q 80 512 80 -13 q 211 910 80 780 q 585 1041 342 1041 q 826 1008 709 1041 l 826 908 q 590 941 711 941 q 299 840 397 941 q 201 515 201 739 q 247 264 201 358 q 375 128 292 169 q 582 87 459 87 q 702 96 644 87 q 826 128 760 106 l 826 28 q 573 -13 710 -13 m 758 1117 l 654 1117 l 519 1263 l 383 1117 l 280 1117 l 467 1314 l 571 1314 l 758 1117 z "},"Ċ":{"ha":860,"x_min":80,"x_max":826,"o":"m 573 -13 q 80 512 80 -13 q 211 910 80 780 q 585 1041 342 1041 q 826 1008 709 1041 l 826 908 q 590 941 711 941 q 299 840 397 941 q 201 515 201 739 q 247 264 201 358 q 375 128 292 169 q 582 87 459 87 q 702 96 644 87 q 826 128 760 106 l 826 28 q 573 -13 710 -13 m 519 1151 q 461 1168 481 1151 q 440 1216 440 1185 q 461 1265 440 1247 q 519 1282 481 1282 q 577 1265 556 1282 q 597 1216 597 1247 q 577 1168 597 1185 q 519 1151 556 1151 z "},"D":{"ha":1040,"x_min":126,"x_max":960,"o":"m 394 -8 q 126 8 260 -8 l 126 1008 q 270 1031 194 1023 q 417 1038 347 1038 q 823 908 686 1038 q 960 514 960 777 q 819 120 960 248 q 394 -8 678 -8 m 417 90 q 736 192 631 90 q 840 515 840 294 q 736 837 840 733 q 421 940 632 940 q 242 924 343 940 l 242 101 q 417 90 318 90 z "},"Ǳ":{"ha":1858,"x_min":126,"x_max":1812,"o":"m 394 -8 q 126 8 260 -8 l 126 1008 q 270 1031 194 1023 q 417 1038 347 1038 q 823 908 686 1038 q 960 514 960 777 q 819 120 960 248 q 394 -8 678 -8 m 417 90 q 736 192 631 90 q 840 515 840 294 q 736 837 840 733 q 421 940 632 940 q 242 924 343 940 l 242 101 q 417 90 318 90 m 1201 99 l 1812 99 l 1812 0 l 1047 0 l 1047 65 l 1650 929 l 1056 929 l 1056 1028 l 1803 1028 l 1803 963 l 1201 99 z "},"Ǆ":{"ha":1858,"x_min":126,"x_max":1812,"o":"m 394 -8 q 126 8 260 -8 l 126 1008 q 270 1031 194 1023 q 417 1038 347 1038 q 823 908 686 1038 q 960 514 960 777 q 819 120 960 248 q 394 -8 678 -8 m 417 90 q 736 192 631 90 q 840 515 840 294 q 736 837 840 733 q 421 940 632 940 q 242 924 343 940 l 242 101 q 417 90 318 90 m 1201 99 l 1812 99 l 1812 0 l 1047 0 l 1047 65 l 1650 929 l 1056 929 l 1056 1028 l 1803 1028 l 1803 963 l 1201 99 m 1565 1314 l 1669 1314 l 1482 1117 l 1378 1117 l 1191 1314 l 1294 1314 l 1430 1167 l 1565 1314 z "},"Ð":{"ha":1040,"x_min":3,"x_max":960,"o":"m 417 1038 q 823 908 686 1038 q 960 514 960 777 q 819 120 960 248 q 394 -8 678 -8 q 126 8 260 -8 l 126 489 l 3 489 l 3 569 l 126 569 l 126 1008 q 270 1031 194 1023 q 417 1038 347 1038 m 417 90 q 736 192 631 90 q 840 515 840 294 q 736 837 840 733 q 421 940 632 940 q 242 924 343 940 l 242 569 l 492 569 l 492 489 l 242 489 l 242 101 q 417 90 318 90 z "},"Ď":{"ha":1040,"x_min":126,"x_max":960,"o":"m 394 -8 q 126 8 260 -8 l 126 1008 q 270 1031 194 1023 q 417 1038 347 1038 q 823 908 686 1038 q 960 514 960 777 q 819 120 960 248 q 394 -8 678 -8 m 417 90 q 736 192 631 90 q 840 515 840 294 q 736 837 840 733 q 421 940 632 940 q 242 924 343 940 l 242 101 q 417 90 318 90 m 608 1314 l 712 1314 l 525 1117 l 421 1117 l 234 1314 l 338 1314 l 473 1167 l 608 1314 z "},"Đ":{"ha":1040,"x_min":3,"x_max":960,"o":"m 417 1038 q 823 908 686 1038 q 960 514 960 777 q 819 120 960 248 q 394 -8 678 -8 q 126 8 260 -8 l 126 489 l 3 489 l 3 569 l 126 569 l 126 1008 q 270 1031 194 1023 q 417 1038 347 1038 m 417 90 q 736 192 631 90 q 840 515 840 294 q 736 837 840 733 q 421 940 632 940 q 242 924 343 940 l 242 569 l 492 569 l 492 489 l 242 489 l 242 101 q 417 90 318 90 z "},"Ḍ":{"ha":1040,"x_min":126,"x_max":960,"o":"m 394 -8 q 126 8 260 -8 l 126 1008 q 270 1031 194 1023 q 417 1038 347 1038 q 823 908 686 1038 q 960 514 960 777 q 819 120 960 248 q 394 -8 678 -8 m 417 90 q 736 192 631 90 q 840 515 840 294 q 736 837 840 733 q 421 940 632 940 q 242 924 343 940 l 242 101 q 417 90 318 90 m 476 -244 q 418 -227 439 -244 q 398 -179 398 -210 q 418 -131 398 -148 q 476 -113 439 -113 q 534 -131 514 -113 q 555 -179 555 -148 q 534 -227 555 -210 q 476 -244 514 -244 z "},"Ḏ":{"ha":1040,"x_min":126,"x_max":960,"o":"m 394 -8 q 126 8 260 -8 l 126 1008 q 270 1031 194 1023 q 417 1038 347 1038 q 823 908 686 1038 q 960 514 960 777 q 819 120 960 248 q 394 -8 678 -8 m 417 90 q 736 192 631 90 q 840 515 840 294 q 736 837 840 733 q 421 940 632 940 q 242 924 343 940 l 242 101 q 417 90 318 90 m 253 -216 l 253 -140 l 700 -140 l 700 -216 l 253 -216 z "},"ǲ":{"ha":1723,"x_min":126,"x_max":1683,"o":"m 394 -8 q 126 8 260 -8 l 126 1008 q 270 1031 194 1023 q 417 1038 347 1038 q 823 908 686 1038 q 960 514 960 777 q 819 120 960 248 q 394 -8 678 -8 m 417 90 q 736 192 631 90 q 840 515 840 294 q 736 837 840 733 q 421 940 632 940 q 242 924 343 940 l 242 101 q 417 90 318 90 m 1233 94 l 1683 94 l 1683 0 l 1085 0 l 1085 71 l 1526 660 l 1094 660 l 1094 753 l 1674 753 l 1674 683 l 1233 94 z "},"ǅ":{"ha":1723,"x_min":126,"x_max":1683,"o":"m 394 -8 q 126 8 260 -8 l 126 1008 q 270 1031 194 1023 q 417 1038 347 1038 q 823 908 686 1038 q 960 514 960 777 q 819 120 960 248 q 394 -8 678 -8 m 417 90 q 736 192 631 90 q 840 515 840 294 q 736 837 840 733 q 421 940 632 940 q 242 924 343 940 l 242 101 q 417 90 318 90 m 1233 94 l 1683 94 l 1683 0 l 1085 0 l 1085 71 l 1526 660 l 1094 660 l 1094 753 l 1674 753 l 1674 683 l 1233 94 m 1519 1092 l 1623 1092 l 1436 894 l 1332 894 l 1145 1092 l 1249 1092 l 1384 945 l 1519 1092 z "},"E":{"ha":870,"x_min":126,"x_max":808,"o":"m 240 97 l 808 97 l 808 0 l 126 0 l 126 1028 l 801 1028 l 801 931 l 240 931 l 240 576 l 731 576 l 731 478 l 240 478 l 240 97 z "},"É":{"ha":870,"x_min":126,"x_max":808,"o":"m 240 97 l 808 97 l 808 0 l 126 0 l 126 1028 l 801 1028 l 801 931 l 240 931 l 240 576 l 731 576 l 731 478 l 240 478 l 240 97 m 425 1117 l 564 1314 l 690 1314 l 531 1117 l 425 1117 z "},"Ĕ":{"ha":870,"x_min":126,"x_max":808,"o":"m 240 97 l 808 97 l 808 0 l 126 0 l 126 1028 l 801 1028 l 801 931 l 240 931 l 240 576 l 731 576 l 731 478 l 240 478 l 240 97 m 479 1123 q 310 1171 370 1123 q 242 1299 251 1219 l 319 1299 q 366 1217 328 1245 q 479 1190 403 1190 q 593 1217 556 1190 q 638 1299 629 1245 l 715 1299 q 648 1170 706 1217 q 479 1123 589 1123 z "},"Ě":{"ha":870,"x_min":126,"x_max":808,"o":"m 240 97 l 808 97 l 808 0 l 126 0 l 126 1028 l 801 1028 l 801 931 l 240 931 l 240 576 l 731 576 l 731 478 l 240 478 l 240 97 m 614 1314 l 717 1314 l 531 1117 l 426 1117 l 240 1314 l 343 1314 l 478 1167 l 614 1314 z "},"Ḝ":{"ha":870,"x_min":126,"x_max":808,"o":"m 479 1123 q 310 1171 370 1123 q 242 1299 251 1219 l 319 1299 q 366 1217 328 1245 q 479 1190 403 1190 q 593 1217 556 1190 q 638 1299 629 1245 l 715 1299 q 648 1170 706 1217 q 479 1123 589 1123 m 507 0 l 507 -70 q 602 -102 569 -74 q 636 -178 636 -130 q 595 -261 636 -233 q 477 -289 553 -289 q 404 -282 441 -289 q 338 -263 367 -276 l 338 -206 q 473 -234 406 -234 q 568 -176 568 -234 q 472 -117 568 -117 l 442 -117 l 442 0 l 126 0 l 126 1028 l 801 1028 l 801 931 l 240 931 l 240 576 l 731 576 l 731 478 l 240 478 l 240 97 l 808 97 l 808 0 l 507 0 z "},"Ê":{"ha":870,"x_min":126,"x_max":808,"o":"m 240 97 l 808 97 l 808 0 l 126 0 l 126 1028 l 801 1028 l 801 931 l 240 931 l 240 576 l 731 576 l 731 478 l 240 478 l 240 97 m 717 1117 l 614 1117 l 478 1263 l 343 1117 l 240 1117 l 426 1314 l 531 1314 l 717 1117 z "},"Ế":{"ha":870,"x_min":126,"x_max":866,"o":"m 240 97 l 808 97 l 808 0 l 126 0 l 126 1028 l 801 1028 l 801 931 l 240 931 l 240 576 l 731 576 l 731 478 l 240 478 l 240 97 m 772 1433 l 866 1433 l 726 1251 l 649 1251 l 772 1433 m 426 1306 l 531 1306 l 717 1117 l 614 1117 l 478 1259 l 343 1117 l 240 1117 l 426 1306 z "},"Ệ":{"ha":870,"x_min":126,"x_max":808,"o":"m 240 97 l 808 97 l 808 0 l 126 0 l 126 1028 l 801 1028 l 801 931 l 240 931 l 240 576 l 731 576 l 731 478 l 240 478 l 240 97 m 480 -244 q 422 -227 442 -244 q 401 -179 401 -210 q 422 -131 401 -148 q 480 -113 442 -113 q 538 -131 517 -113 q 558 -179 558 -148 q 538 -227 558 -210 q 480 -244 517 -244 m 717 1117 l 614 1117 l 478 1263 l 343 1117 l 240 1117 l 426 1314 l 531 1314 l 717 1117 z "},"Ề":{"ha":870,"x_min":126,"x_max":808,"o":"m 240 97 l 808 97 l 808 0 l 126 0 l 126 1028 l 801 1028 l 801 931 l 240 931 l 240 576 l 731 576 l 731 478 l 240 478 l 240 97 m 743 1251 l 667 1251 l 526 1433 l 620 1433 l 743 1251 m 426 1306 l 531 1306 l 717 1117 l 614 1117 l 478 1259 l 343 1117 l 240 1117 l 426 1306 z "},"Ể":{"ha":870,"x_min":126,"x_max":841,"o":"m 240 97 l 808 97 l 808 0 l 126 0 l 126 1028 l 801 1028 l 801 931 l 240 931 l 240 576 l 731 576 l 731 478 l 240 478 l 240 97 m 694 1444 q 805 1424 769 1444 q 841 1366 841 1403 q 832 1334 841 1347 q 809 1314 822 1322 q 774 1297 797 1307 q 735 1276 747 1285 q 720 1251 722 1267 l 649 1251 q 661 1284 651 1271 q 686 1306 672 1298 q 724 1323 700 1313 q 759 1340 747 1332 q 772 1361 772 1349 q 752 1385 772 1376 q 688 1393 733 1393 q 616 1388 649 1393 q 545 1372 583 1383 l 545 1422 q 694 1444 608 1444 m 426 1306 l 531 1306 l 717 1117 l 614 1117 l 478 1259 l 343 1117 l 240 1117 l 426 1306 z "},"Ễ":{"ha":870,"x_min":126,"x_max":808,"o":"m 240 97 l 808 97 l 808 0 l 126 0 l 126 1028 l 801 1028 l 801 931 l 240 931 l 240 576 l 731 576 l 731 478 l 240 478 l 240 97 m 588 1397 q 655 1408 625 1397 q 717 1445 685 1419 l 717 1379 q 659 1347 691 1357 q 588 1337 628 1337 q 532 1343 558 1337 q 465 1363 505 1350 q 410 1380 430 1375 q 369 1385 390 1385 q 302 1374 333 1385 q 240 1337 272 1363 l 240 1403 q 298 1436 267 1426 q 369 1446 330 1446 q 425 1439 399 1446 q 492 1419 452 1433 q 547 1402 527 1408 q 588 1397 567 1397 m 426 1306 l 531 1306 l 717 1117 l 614 1117 l 478 1259 l 343 1117 l 240 1117 l 426 1306 z "},"Ȅ":{"ha":870,"x_min":126,"x_max":808,"o":"m 240 97 l 808 97 l 808 0 l 126 0 l 126 1028 l 801 1028 l 801 931 l 240 931 l 240 576 l 731 576 l 731 478 l 240 478 l 240 97 m 309 1117 l 201 1314 l 299 1314 l 400 1117 l 309 1117 m 557 1117 l 449 1314 l 547 1314 l 648 1117 l 557 1117 z "},"Ë":{"ha":870,"x_min":126,"x_max":808,"o":"m 240 97 l 808 97 l 808 0 l 126 0 l 126 1028 l 801 1028 l 801 931 l 240 931 l 240 576 l 731 576 l 731 478 l 240 478 l 240 97 m 302 1151 q 249 1168 268 1151 q 230 1216 230 1185 q 249 1264 230 1247 q 302 1282 268 1282 q 355 1264 336 1282 q 374 1216 374 1247 q 355 1168 374 1185 q 302 1151 336 1151 m 655 1151 q 602 1168 621 1151 q 583 1216 583 1185 q 602 1264 583 1247 q 655 1282 621 1282 q 708 1264 689 1282 q 727 1216 727 1247 q 708 1168 727 1185 q 655 1151 689 1151 z "},"Ė":{"ha":870,"x_min":126,"x_max":808,"o":"m 240 97 l 808 97 l 808 0 l 126 0 l 126 1028 l 801 1028 l 801 931 l 240 931 l 240 576 l 731 576 l 731 478 l 240 478 l 240 97 m 478 1151 q 420 1168 441 1151 q 400 1216 400 1185 q 420 1265 400 1247 q 478 1282 441 1282 q 536 1265 516 1282 q 557 1216 557 1247 q 536 1168 557 1185 q 478 1151 516 1151 z "},"Ẹ":{"ha":870,"x_min":126,"x_max":808,"o":"m 240 97 l 808 97 l 808 0 l 126 0 l 126 1028 l 801 1028 l 801 931 l 240 931 l 240 576 l 731 576 l 731 478 l 240 478 l 240 97 m 480 -244 q 422 -227 442 -244 q 401 -179 401 -210 q 422 -131 401 -148 q 480 -113 442 -113 q 538 -131 517 -113 q 558 -179 558 -148 q 538 -227 558 -210 q 480 -244 517 -244 z "},"È":{"ha":870,"x_min":126,"x_max":808,"o":"m 240 97 l 808 97 l 808 0 l 126 0 l 126 1028 l 801 1028 l 801 931 l 240 931 l 240 576 l 731 576 l 731 478 l 240 478 l 240 97 m 425 1117 l 267 1314 l 393 1314 l 532 1117 l 425 1117 z "},"Ẻ":{"ha":870,"x_min":126,"x_max":808,"o":"m 240 97 l 808 97 l 808 0 l 126 0 l 126 1028 l 801 1028 l 801 931 l 240 931 l 240 576 l 731 576 l 731 478 l 240 478 l 240 97 m 442 1117 q 464 1161 444 1146 q 517 1191 483 1176 q 553 1210 542 1202 q 565 1231 565 1217 q 545 1255 565 1247 q 481 1264 526 1264 q 409 1259 442 1264 q 338 1242 376 1253 l 338 1297 q 487 1319 401 1319 q 598 1297 562 1319 q 634 1237 634 1276 q 617 1194 634 1209 q 567 1165 600 1179 q 528 1143 542 1153 q 513 1117 515 1133 l 442 1117 z "},"Ȇ":{"ha":870,"x_min":126,"x_max":808,"o":"m 240 97 l 808 97 l 808 0 l 126 0 l 126 1028 l 801 1028 l 801 931 l 240 931 l 240 576 l 731 576 l 731 478 l 240 478 l 240 97 m 242 1131 q 309 1260 251 1213 q 478 1308 368 1308 q 647 1260 587 1308 q 715 1131 706 1212 l 638 1131 q 591 1213 628 1185 q 478 1240 554 1240 q 364 1213 401 1240 q 319 1131 328 1185 l 242 1131 z "},"Ē":{"ha":870,"x_min":126,"x_max":808,"o":"m 240 97 l 808 97 l 808 0 l 126 0 l 126 1028 l 801 1028 l 801 931 l 240 931 l 240 576 l 731 576 l 731 478 l 240 478 l 240 97 m 255 1177 l 255 1253 l 702 1253 l 702 1177 l 255 1177 z "},"Ḗ":{"ha":870,"x_min":126,"x_max":808,"o":"m 240 97 l 808 97 l 808 0 l 126 0 l 126 1028 l 801 1028 l 801 931 l 240 931 l 240 576 l 731 576 l 731 478 l 240 478 l 240 97 m 421 1327 l 559 1488 l 694 1488 l 537 1327 l 421 1327 m 255 1177 l 255 1253 l 702 1253 l 702 1177 l 255 1177 z "},"Ḕ":{"ha":870,"x_min":126,"x_max":808,"o":"m 240 97 l 808 97 l 808 0 l 126 0 l 126 1028 l 801 1028 l 801 931 l 240 931 l 240 576 l 731 576 l 731 478 l 240 478 l 240 97 m 421 1327 l 263 1488 l 397 1488 l 536 1327 l 421 1327 m 255 1177 l 255 1253 l 702 1253 l 702 1177 l 255 1177 z "},"Ę":{"ha":870,"x_min":126,"x_max":822,"o":"m 704 -233 q 758 -226 731 -233 q 822 -207 785 -220 l 822 -263 q 694 -289 759 -289 q 569 -255 613 -289 q 526 -161 526 -222 q 551 -74 526 -114 q 636 0 577 -35 l 126 0 l 126 1028 l 801 1028 l 801 931 l 240 931 l 240 576 l 731 576 l 731 478 l 240 478 l 240 97 l 808 97 l 808 0 l 750 0 q 632 -74 665 -37 q 599 -154 599 -110 q 625 -212 599 -192 q 704 -233 652 -233 z "},"Ẽ":{"ha":870,"x_min":126,"x_max":808,"o":"m 240 97 l 808 97 l 808 0 l 126 0 l 126 1028 l 801 1028 l 801 931 l 240 931 l 240 576 l 731 576 l 731 478 l 240 478 l 240 97 m 592 1158 q 533 1165 560 1158 q 467 1186 505 1172 q 410 1205 433 1199 q 364 1210 388 1210 q 295 1199 325 1210 q 238 1162 265 1187 l 238 1239 q 292 1273 260 1262 q 365 1284 323 1284 q 424 1277 397 1284 q 490 1256 452 1270 q 547 1238 524 1244 q 593 1232 569 1232 q 662 1243 633 1232 q 719 1281 692 1255 l 719 1203 q 665 1169 697 1181 q 592 1158 634 1158 z "},"F":{"ha":840,"x_min":126,"x_max":796,"o":"m 796 929 l 242 929 l 242 567 l 726 567 l 726 469 l 242 469 l 242 0 l 126 0 l 126 1028 l 796 1028 l 796 929 z "},"G":{"ha":1004,"x_min":80,"x_max":887,"o":"m 887 500 l 887 13 q 758 -4 817 1 q 635 -9 699 -9 q 220 120 359 -9 q 80 512 81 249 q 145 809 80 691 q 329 984 210 928 q 611 1041 448 1041 q 860 1008 731 1041 l 860 908 q 735 933 792 926 q 619 941 677 941 q 201 515 201 941 q 307 194 201 298 q 628 90 413 90 q 777 99 706 90 l 777 500 l 887 500 z "},"Ǵ":{"ha":1004,"x_min":80,"x_max":887,"o":"m 887 500 l 887 13 q 758 -4 817 1 q 635 -9 699 -9 q 220 120 359 -9 q 80 512 81 249 q 145 809 80 691 q 329 984 210 928 q 611 1041 448 1041 q 860 1008 731 1041 l 860 908 q 735 933 792 926 q 619 941 677 941 q 201 515 201 941 q 307 194 201 298 q 628 90 413 90 q 777 99 706 90 l 777 500 l 887 500 m 496 1117 l 635 1314 l 760 1314 l 602 1117 l 496 1117 z "},"Ğ":{"ha":1004,"x_min":80,"x_max":887,"o":"m 887 500 l 887 13 q 758 -4 817 1 q 635 -9 699 -9 q 220 120 359 -9 q 80 512 81 249 q 145 809 80 691 q 329 984 210 928 q 611 1041 448 1041 q 860 1008 731 1041 l 860 908 q 735 933 792 926 q 619 941 677 941 q 201 515 201 941 q 307 194 201 298 q 628 90 413 90 q 777 99 706 90 l 777 500 l 887 500 m 550 1123 q 381 1171 441 1123 q 313 1299 322 1219 l 390 1299 q 436 1217 399 1245 q 550 1190 474 1190 q 664 1217 627 1190 q 708 1299 700 1245 l 786 1299 q 718 1170 777 1217 q 550 1123 660 1123 z "},"Ǧ":{"ha":1004,"x_min":80,"x_max":887,"o":"m 887 500 l 887 13 q 758 -4 817 1 q 635 -9 699 -9 q 220 120 359 -9 q 80 512 81 249 q 145 809 80 691 q 329 984 210 928 q 611 1041 448 1041 q 860 1008 731 1041 l 860 908 q 735 933 792 926 q 619 941 677 941 q 201 515 201 941 q 307 194 201 298 q 628 90 413 90 q 777 99 706 90 l 777 500 l 887 500 m 685 1314 l 788 1314 l 601 1117 l 497 1117 l 310 1314 l 414 1314 l 549 1167 l 685 1314 z "},"Ĝ":{"ha":1004,"x_min":80,"x_max":887,"o":"m 887 500 l 887 13 q 758 -4 817 1 q 635 -9 699 -9 q 220 120 359 -9 q 80 512 81 249 q 145 809 80 691 q 329 984 210 928 q 611 1041 448 1041 q 860 1008 731 1041 l 860 908 q 735 933 792 926 q 619 941 677 941 q 201 515 201 941 q 307 194 201 298 q 628 90 413 90 q 777 99 706 90 l 777 500 l 887 500 m 788 1117 l 685 1117 l 549 1263 l 414 1117 l 310 1117 l 497 1314 l 601 1314 l 788 1117 z "},"Ģ":{"ha":1004,"x_min":80,"x_max":887,"o":"m 887 500 l 887 13 q 758 -4 817 1 q 635 -9 699 -9 q 220 120 359 -9 q 80 512 81 249 q 145 809 80 691 q 329 984 210 928 q 611 1041 448 1041 q 860 1008 731 1041 l 860 908 q 735 933 792 926 q 619 941 677 941 q 201 515 201 941 q 307 194 201 298 q 628 90 413 90 q 777 99 706 90 l 777 500 l 887 500 m 547 -113 q 605 -133 585 -113 q 624 -190 624 -152 q 613 -256 624 -219 q 584 -324 603 -292 l 513 -324 q 542 -227 536 -270 q 492 -210 509 -225 q 475 -169 475 -194 q 494 -128 475 -144 q 547 -113 513 -113 z "},"Ġ":{"ha":1004,"x_min":80,"x_max":887,"o":"m 887 500 l 887 13 q 758 -4 817 1 q 635 -9 699 -9 q 220 120 359 -9 q 80 512 81 249 q 145 809 80 691 q 329 984 210 928 q 611 1041 448 1041 q 860 1008 731 1041 l 860 908 q 735 933 792 926 q 619 941 677 941 q 201 515 201 941 q 307 194 201 298 q 628 90 413 90 q 777 99 706 90 l 777 500 l 887 500 m 549 1151 q 491 1168 512 1151 q 471 1216 471 1185 q 491 1265 471 1247 q 549 1282 512 1282 q 607 1265 587 1282 q 628 1216 628 1247 q 607 1168 628 1185 q 549 1151 587 1151 z "},"Ḡ":{"ha":1004,"x_min":80,"x_max":887,"o":"m 887 500 l 887 13 q 758 -4 817 1 q 635 -9 699 -9 q 220 120 359 -9 q 80 512 81 249 q 145 809 80 691 q 329 984 210 928 q 611 1041 448 1041 q 860 1008 731 1041 l 860 908 q 735 933 792 926 q 619 941 677 941 q 201 515 201 941 q 307 194 201 298 q 628 90 413 90 q 777 99 706 90 l 777 500 l 887 500 m 326 1177 l 326 1253 l 773 1253 l 773 1177 l 326 1177 z "},"H":{"ha":1067,"x_min":126,"x_max":941,"o":"m 126 0 l 126 1028 l 242 1028 l 242 580 l 825 580 l 825 1028 l 941 1028 l 941 0 l 825 0 l 825 475 l 242 475 l 242 0 l 126 0 z "},"Ħ":{"ha":1067,"x_min":3,"x_max":1063,"o":"m 1063 844 l 1063 765 l 941 765 l 941 0 l 825 0 l 825 475 l 242 475 l 242 0 l 126 0 l 126 765 l 3 765 l 3 844 l 126 844 l 126 1028 l 242 1028 l 242 844 l 825 844 l 825 1028 l 941 1028 l 941 844 l 1063 844 m 825 580 l 825 765 l 242 765 l 242 580 l 825 580 z "},"Ḫ":{"ha":1067,"x_min":126,"x_max":941,"o":"m 126 0 l 126 1028 l 242 1028 l 242 580 l 825 580 l 825 1028 l 941 1028 l 941 0 l 825 0 l 825 475 l 242 475 l 242 0 l 126 0 m 534 -287 q 361 -238 422 -287 q 297 -106 301 -189 l 374 -106 q 417 -191 379 -162 q 534 -220 455 -220 q 651 -191 613 -220 q 692 -106 688 -162 l 770 -106 q 706 -239 765 -190 q 534 -287 647 -287 z "},"Ĥ":{"ha":1067,"x_min":126,"x_max":941,"o":"m 126 0 l 126 1028 l 242 1028 l 242 580 l 825 580 l 825 1028 l 941 1028 l 941 0 l 825 0 l 825 475 l 242 475 l 242 0 l 126 0 m 772 1117 l 669 1117 l 533 1263 l 398 1117 l 294 1117 l 481 1314 l 585 1314 l 772 1117 z "},"Ḥ":{"ha":1067,"x_min":126,"x_max":941,"o":"m 126 0 l 126 1028 l 242 1028 l 242 580 l 825 580 l 825 1028 l 941 1028 l 941 0 l 825 0 l 825 475 l 242 475 l 242 0 l 126 0 m 533 -244 q 475 -227 496 -244 q 455 -179 455 -210 q 475 -131 455 -148 q 533 -113 496 -113 q 591 -131 571 -113 q 612 -179 612 -148 q 591 -227 612 -210 q 533 -244 571 -244 z "},"I":{"ha":367,"x_min":126,"x_max":242,"o":"m 126 0 l 126 1028 l 242 1028 l 242 0 l 126 0 z "},"Í":{"ha":367,"x_min":126,"x_max":395,"o":"m 126 0 l 126 1028 l 242 1028 l 242 0 l 126 0 m 131 1117 l 269 1314 l 395 1314 l 237 1117 l 131 1117 z "},"Ĭ":{"ha":367,"x_min":-53,"x_max":421,"o":"m 126 0 l 126 1028 l 242 1028 l 242 0 l 126 0 m 185 1123 q 16 1171 76 1123 q -53 1299 -44 1219 l 25 1299 q 71 1217 34 1245 q 185 1190 108 1190 q 298 1217 262 1190 q 343 1299 335 1245 l 421 1299 q 353 1170 412 1217 q 185 1123 294 1123 z "},"Î":{"ha":367,"x_min":-55,"x_max":423,"o":"m 126 0 l 126 1028 l 242 1028 l 242 0 l 126 0 m 423 1117 l 319 1117 l 184 1263 l 49 1117 l -55 1117 l 132 1314 l 236 1314 l 423 1117 z "},"Ȉ":{"ha":367,"x_min":-93,"x_max":353,"o":"m 126 0 l 126 1028 l 242 1028 l 242 0 l 126 0 m 15 1117 l -93 1314 l 4 1314 l 106 1117 l 15 1117 m 263 1117 l 155 1314 l 252 1314 l 353 1117 l 263 1117 z "},"Ï":{"ha":367,"x_min":-65,"x_max":433,"o":"m 126 0 l 126 1028 l 242 1028 l 242 0 l 126 0 m 8 1151 q -45 1168 -26 1151 q -65 1216 -65 1185 q -45 1264 -65 1247 q 8 1282 -26 1282 q 61 1264 42 1282 q 80 1216 80 1247 q 61 1168 80 1185 q 8 1151 42 1151 m 360 1151 q 307 1168 326 1151 q 288 1216 288 1185 q 307 1264 288 1247 q 360 1282 326 1282 q 414 1264 394 1282 q 433 1216 433 1247 q 414 1168 433 1185 q 360 1151 394 1151 z "},"Ḯ":{"ha":367,"x_min":-65,"x_max":433,"o":"m 126 0 l 126 1028 l 242 1028 l 242 0 l 126 0 m 126 1327 l 265 1488 l 400 1488 l 242 1327 l 126 1327 m 8 1151 q -45 1168 -26 1151 q -65 1216 -65 1185 q -45 1264 -65 1247 q 8 1282 -26 1282 q 61 1264 42 1282 q 80 1216 80 1247 q 61 1168 80 1185 q 8 1151 42 1151 m 360 1151 q 307 1168 326 1151 q 288 1216 288 1185 q 307 1264 288 1247 q 360 1282 326 1282 q 414 1264 394 1282 q 433 1216 433 1247 q 414 1168 433 1185 q 360 1151 394 1151 z "},"İ":{"ha":367,"x_min":106,"x_max":263,"o":"m 126 0 l 126 1028 l 242 1028 l 242 0 l 126 0 m 184 1151 q 126 1168 147 1151 q 106 1216 106 1185 q 126 1265 106 1247 q 184 1282 147 1282 q 242 1265 222 1282 q 263 1216 263 1247 q 242 1168 263 1185 q 184 1151 222 1151 z "},"Ị":{"ha":367,"x_min":105,"x_max":262,"o":"m 126 0 l 126 1028 l 242 1028 l 242 0 l 126 0 m 183 -244 q 125 -227 146 -244 q 105 -179 105 -210 q 125 -131 105 -148 q 183 -113 146 -113 q 241 -131 221 -113 q 262 -179 262 -148 q 241 -227 262 -210 q 183 -244 221 -244 z "},"Ì":{"ha":367,"x_min":-27,"x_max":242,"o":"m 126 0 l 126 1028 l 242 1028 l 242 0 l 126 0 m 131 1117 l -27 1314 l 99 1314 l 238 1117 l 131 1117 z "},"Ỉ":{"ha":367,"x_min":44,"x_max":340,"o":"m 126 0 l 126 1028 l 242 1028 l 242 0 l 126 0 m 148 1117 q 169 1161 150 1146 q 223 1191 188 1176 q 259 1210 248 1202 q 270 1231 270 1217 q 251 1255 270 1247 q 186 1264 232 1264 q 115 1259 147 1264 q 44 1242 82 1253 l 44 1297 q 192 1319 106 1319 q 303 1297 267 1319 q 340 1237 340 1276 q 323 1194 340 1209 q 273 1165 306 1179 q 234 1143 247 1153 q 219 1117 221 1133 l 148 1117 z "},"Ȋ":{"ha":367,"x_min":-53,"x_max":421,"o":"m 126 0 l 126 1028 l 242 1028 l 242 0 l 126 0 m -53 1131 q 15 1260 -44 1213 q 183 1308 74 1308 q 352 1260 292 1308 q 421 1131 412 1212 l 343 1131 q 297 1213 334 1185 q 183 1240 260 1240 q 70 1213 106 1240 q 25 1131 33 1185 l -53 1131 z "},"Ī":{"ha":367,"x_min":-40,"x_max":408,"o":"m 126 0 l 126 1028 l 242 1028 l 242 0 l 126 0 m -40 1177 l -40 1253 l 408 1253 l 408 1177 l -40 1177 z "},"Į":{"ha":367,"x_min":17,"x_max":314,"o":"m 196 -233 q 249 -226 222 -233 q 314 -207 276 -220 l 314 -263 q 186 -289 251 -289 q 61 -255 104 -289 q 17 -161 17 -222 q 43 -74 17 -114 q 128 0 69 -35 l 126 0 l 126 1028 l 242 1028 l 242 0 q 124 -74 157 -37 q 90 -154 90 -110 q 117 -212 90 -192 q 196 -233 144 -233 z "},"Ĩ":{"ha":367,"x_min":-57,"x_max":425,"o":"m 126 0 l 126 1028 l 242 1028 l 242 0 l 126 0 m 297 1158 q 238 1165 266 1158 q 173 1186 210 1172 q 116 1205 139 1199 q 69 1210 93 1210 q 1 1199 31 1210 q -57 1162 -29 1187 l -57 1239 q -3 1273 -34 1262 q 71 1284 28 1284 q 130 1277 102 1284 q 195 1256 158 1270 q 252 1238 229 1244 q 299 1232 275 1232 q 368 1243 338 1232 q 425 1281 397 1255 l 425 1203 q 371 1169 402 1181 q 297 1158 340 1158 z "},"J":{"ha":367,"x_min":-4,"x_max":242,"o":"m -4 -187 q 96 -7 65 -99 q 126 202 126 84 l 126 1028 l 242 1028 l 242 187 q 198 -38 236 61 q 72 -239 160 -137 l -4 -187 z "},"Ĵ":{"ha":367,"x_min":-55,"x_max":423,"o":"m -4 -187 q 96 -7 65 -99 q 126 202 126 84 l 126 1028 l 242 1028 l 242 187 q 198 -38 236 61 q 72 -239 160 -137 l -4 -187 m 423 1117 l 319 1117 l 184 1263 l 49 1117 l -55 1117 l 132 1314 l 236 1314 l 423 1117 z "},"K":{"ha":910,"x_min":126,"x_max":917,"o":"m 785 0 l 413 475 l 242 475 l 242 0 l 126 0 l 126 1028 l 242 1028 l 242 579 l 415 579 l 760 1028 l 888 1028 l 503 531 l 917 0 l 785 0 z "},"Ķ":{"ha":910,"x_min":126,"x_max":917,"o":"m 785 0 l 413 475 l 242 475 l 242 0 l 126 0 l 126 1028 l 242 1028 l 242 579 l 415 579 l 760 1028 l 888 1028 l 503 531 l 917 0 l 785 0 m 468 -113 q 525 -133 506 -113 q 544 -190 544 -152 q 534 -256 544 -219 q 505 -324 524 -292 l 433 -324 q 463 -227 457 -270 q 413 -210 430 -225 q 396 -169 396 -194 q 415 -128 396 -144 q 468 -113 433 -113 z "},"L":{"ha":793,"x_min":126,"x_max":782,"o":"m 126 0 l 126 1028 l 242 1028 l 242 100 l 782 100 l 782 0 l 126 0 z "},"Ǉ":{"ha":1160,"x_min":126,"x_max":1035,"o":"m 126 0 l 126 1028 l 242 1028 l 242 100 l 782 100 l 782 0 l 126 0 m 789 -187 q 889 -7 858 -99 q 919 202 919 84 l 919 1028 l 1035 1028 l 1035 187 q 991 -38 1029 61 q 865 -239 953 -137 l 789 -187 z "},"Ĺ":{"ha":793,"x_min":126,"x_max":782,"o":"m 126 0 l 126 1028 l 242 1028 l 242 100 l 782 100 l 782 0 l 126 0 m 131 1117 l 270 1314 l 396 1314 l 238 1117 l 131 1117 z "},"Ľ":{"ha":793,"x_min":126,"x_max":782,"o":"m 126 0 l 126 1028 l 242 1028 l 242 100 l 782 100 l 782 0 l 126 0 m 502 792 q 514 941 511 862 q 517 1122 517 1021 l 601 1122 q 568 792 601 926 l 502 792 z "},"Ļ":{"ha":793,"x_min":126,"x_max":782,"o":"m 126 0 l 126 1028 l 242 1028 l 242 100 l 782 100 l 782 0 l 126 0 m 452 -113 q 509 -133 490 -113 q 528 -190 528 -152 q 518 -256 528 -219 q 489 -324 508 -292 l 417 -324 q 447 -227 441 -270 q 397 -210 414 -225 q 380 -169 380 -194 q 399 -128 380 -144 q 452 -113 417 -113 z "},"Ŀ":{"ha":793,"x_min":126,"x_max":782,"o":"m 126 0 l 126 1028 l 242 1028 l 242 100 l 782 100 l 782 0 l 126 0 m 571 492 q 512 510 533 492 q 492 563 492 529 q 512 615 492 596 q 571 634 533 634 q 629 615 608 634 q 649 563 649 596 q 629 510 649 529 q 571 492 608 492 z "},"Ḷ":{"ha":793,"x_min":126,"x_max":782,"o":"m 126 0 l 126 1028 l 242 1028 l 242 100 l 782 100 l 782 0 l 126 0 m 454 -244 q 396 -227 417 -244 q 376 -179 376 -210 q 396 -131 376 -148 q 454 -113 417 -113 q 512 -131 492 -113 q 533 -179 533 -148 q 512 -227 533 -210 q 454 -244 492 -244 z "},"ǈ":{"ha":1134,"x_min":126,"x_max":1042,"o":"m 126 0 l 126 1028 l 242 1028 l 242 100 l 782 100 l 782 0 l 126 0 m 776 -271 q 876 -91 845 -183 q 906 118 906 0 l 906 753 l 1021 753 l 1021 124 q 981 -113 1021 -8 q 851 -322 941 -218 l 776 -271 m 963 921 q 904 940 924 921 q 883 992 883 958 q 904 1044 883 1026 q 963 1063 924 1063 q 1021 1044 1001 1063 q 1042 992 1042 1026 q 1021 940 1042 958 q 963 921 1001 921 z "},"Ḻ":{"ha":793,"x_min":126,"x_max":782,"o":"m 126 0 l 126 1028 l 242 1028 l 242 100 l 782 100 l 782 0 l 126 0 m 231 -216 l 231 -140 l 678 -140 l 678 -216 l 231 -216 z "},"Ł":{"ha":793,"x_min":-10,"x_max":782,"o":"m 242 100 l 782 100 l 782 0 l 126 0 l 126 460 l 31 394 l -10 463 l 126 558 l 126 1028 l 242 1028 l 242 638 l 445 778 l 487 709 l 242 540 l 242 100 z "},"M":{"ha":1285,"x_min":128,"x_max":1157,"o":"m 1020 1028 l 1157 1028 l 1157 0 l 1048 0 l 1048 860 l 694 142 l 591 142 l 238 853 l 238 0 l 128 0 l 128 1028 l 265 1028 l 645 257 l 1020 1028 z "},"Ṃ":{"ha":1285,"x_min":128,"x_max":1157,"o":"m 1020 1028 l 1157 1028 l 1157 0 l 1048 0 l 1048 860 l 694 142 l 591 142 l 238 853 l 238 0 l 128 0 l 128 1028 l 265 1028 l 645 257 l 1020 1028 m 648 -244 q 590 -227 610 -244 q 569 -179 569 -210 q 590 -131 569 -148 q 648 -113 610 -113 q 706 -131 685 -113 q 726 -179 726 -148 q 706 -227 726 -210 q 648 -244 685 -244 z "},"N":{"ha":1084,"x_min":126,"x_max":958,"o":"m 849 1028 l 958 1028 l 958 0 l 840 0 l 235 856 l 235 0 l 126 0 l 126 1028 l 244 1028 l 849 172 l 849 1028 z "},"Ǌ":{"ha":1451,"x_min":126,"x_max":1326,"o":"m 849 1028 l 958 1028 l 958 0 l 840 0 l 235 856 l 235 0 l 126 0 l 126 1028 l 244 1028 l 849 172 l 849 1028 m 1080 -187 q 1180 -7 1149 -99 q 1210 202 1210 84 l 1210 1028 l 1326 1028 l 1326 187 q 1282 -38 1320 61 q 1156 -239 1244 -137 l 1080 -187 z "},"Ń":{"ha":1084,"x_min":126,"x_max":958,"o":"m 849 1028 l 958 1028 l 958 0 l 840 0 l 235 856 l 235 0 l 126 0 l 126 1028 l 244 1028 l 849 172 l 849 1028 m 489 1117 l 628 1314 l 753 1314 l 595 1117 l 489 1117 z "},"Ň":{"ha":1084,"x_min":126,"x_max":958,"o":"m 849 1028 l 958 1028 l 958 0 l 840 0 l 235 856 l 235 0 l 126 0 l 126 1028 l 244 1028 l 849 172 l 849 1028 m 678 1314 l 781 1314 l 594 1117 l 490 1117 l 303 1314 l 407 1314 l 542 1167 l 678 1314 z "},"Ņ":{"ha":1084,"x_min":126,"x_max":958,"o":"m 849 1028 l 958 1028 l 958 0 l 840 0 l 235 856 l 235 0 l 126 0 l 126 1028 l 244 1028 l 849 172 l 849 1028 m 540 -113 q 598 -133 578 -113 q 617 -190 617 -152 q 606 -256 617 -219 q 577 -324 596 -292 l 506 -324 q 535 -227 529 -270 q 485 -210 502 -225 q 468 -169 468 -194 q 487 -128 468 -144 q 540 -113 506 -113 z "},"Ṅ":{"ha":1084,"x_min":126,"x_max":958,"o":"m 849 1028 l 958 1028 l 958 0 l 840 0 l 235 856 l 235 0 l 126 0 l 126 1028 l 244 1028 l 849 172 l 849 1028 m 542 1151 q 484 1168 505 1151 q 464 1216 464 1185 q 484 1265 464 1247 q 542 1282 505 1282 q 600 1265 580 1282 q 621 1216 621 1247 q 600 1168 621 1185 q 542 1151 580 1151 z "},"Ṇ":{"ha":1084,"x_min":126,"x_max":958,"o":"m 849 1028 l 958 1028 l 958 0 l 840 0 l 235 856 l 235 0 l 126 0 l 126 1028 l 244 1028 l 849 172 l 849 1028 m 542 -244 q 484 -227 505 -244 q 464 -179 464 -210 q 484 -131 464 -148 q 542 -113 505 -113 q 600 -131 580 -113 q 621 -179 621 -148 q 600 -227 621 -210 q 542 -244 580 -244 z "},"Ŋ":{"ha":1084,"x_min":126,"x_max":958,"o":"m 958 1028 l 958 131 q 919 -112 958 -6 q 789 -322 879 -218 l 713 -271 q 796 -140 765 -206 q 839 -1 826 -75 l 235 856 l 235 0 l 126 0 l 126 1028 l 244 1028 l 849 173 l 849 1028 l 958 1028 z "},"ǋ":{"ha":1425,"x_min":126,"x_max":1333,"o":"m 849 1028 l 958 1028 l 958 0 l 840 0 l 235 856 l 235 0 l 126 0 l 126 1028 l 244 1028 l 849 172 l 849 1028 m 1067 -271 q 1167 -91 1136 -183 q 1197 118 1197 0 l 1197 753 l 1312 753 l 1312 124 q 1272 -113 1312 -8 q 1142 -322 1232 -218 l 1067 -271 m 1253 921 q 1195 940 1215 921 q 1174 992 1174 958 q 1195 1044 1174 1026 q 1253 1063 1215 1063 q 1312 1044 1292 1063 q 1333 992 1333 1026 q 1312 940 1333 958 q 1253 921 1292 921 z "},"Ṉ":{"ha":1084,"x_min":126,"x_max":958,"o":"m 849 1028 l 958 1028 l 958 0 l 840 0 l 235 856 l 235 0 l 126 0 l 126 1028 l 244 1028 l 849 172 l 849 1028 m 319 -216 l 319 -140 l 766 -140 l 766 -216 l 319 -216 z "},"Ñ":{"ha":1084,"x_min":126,"x_max":958,"o":"m 849 1028 l 958 1028 l 958 0 l 840 0 l 235 856 l 235 0 l 126 0 l 126 1028 l 244 1028 l 849 172 l 849 1028 m 656 1158 q 597 1165 624 1158 q 531 1186 569 1172 q 474 1205 497 1199 q 428 1210 451 1210 q 359 1199 389 1210 q 301 1162 329 1187 l 301 1239 q 356 1273 324 1262 q 429 1284 387 1284 q 488 1277 460 1284 q 553 1256 516 1270 q 610 1238 588 1244 q 657 1232 633 1232 q 726 1243 697 1232 q 783 1281 756 1255 l 783 1203 q 729 1169 760 1181 q 656 1158 698 1158 z "},"O":{"ha":1072,"x_min":80,"x_max":993,"o":"m 536 -13 q 294 43 397 -13 q 136 218 192 100 q 80 514 80 335 q 136 810 80 692 q 295 984 193 928 q 536 1041 398 1041 q 778 984 676 1041 q 937 810 881 928 q 993 514 993 692 q 936 218 993 336 q 777 43 879 100 q 536 -13 674 -13 m 536 86 q 785 188 696 86 q 874 510 874 290 q 785 839 874 735 q 536 942 696 942 q 288 840 376 942 q 199 517 199 738 q 536 86 199 86 z "},"Ó":{"ha":1072,"x_min":80,"x_max":993,"o":"m 536 -13 q 294 43 397 -13 q 136 218 192 100 q 80 514 80 335 q 136 810 80 692 q 295 984 193 928 q 536 1041 398 1041 q 778 984 676 1041 q 937 810 881 928 q 993 514 993 692 q 936 218 993 336 q 777 43 879 100 q 536 -13 674 -13 m 536 86 q 785 188 696 86 q 874 510 874 290 q 785 839 874 735 q 536 942 696 942 q 288 840 376 942 q 199 517 199 738 q 536 86 199 86 m 483 1117 l 622 1314 l 747 1314 l 589 1117 l 483 1117 z "},"Ŏ":{"ha":1072,"x_min":80,"x_max":993,"o":"m 536 -13 q 294 43 397 -13 q 136 218 192 100 q 80 514 80 335 q 136 810 80 692 q 295 984 193 928 q 536 1041 398 1041 q 778 984 676 1041 q 937 810 881 928 q 993 514 993 692 q 936 218 993 336 q 777 43 879 100 q 536 -13 674 -13 m 536 86 q 785 188 696 86 q 874 510 874 290 q 785 839 874 735 q 536 942 696 942 q 288 840 376 942 q 199 517 199 738 q 536 86 199 86 m 537 1123 q 368 1171 428 1123 q 299 1299 308 1219 l 377 1299 q 423 1217 386 1245 q 537 1190 460 1190 q 650 1217 614 1190 q 695 1299 687 1245 l 773 1299 q 705 1170 764 1217 q 537 1123 647 1123 z "},"Ô":{"ha":1072,"x_min":80,"x_max":993,"o":"m 536 -13 q 294 43 397 -13 q 136 218 192 100 q 80 514 80 335 q 136 810 80 692 q 295 984 193 928 q 536 1041 398 1041 q 778 984 676 1041 q 937 810 881 928 q 993 514 993 692 q 936 218 993 336 q 777 43 879 100 q 536 -13 674 -13 m 536 86 q 785 188 696 86 q 874 510 874 290 q 785 839 874 735 q 536 942 696 942 q 288 840 376 942 q 199 517 199 738 q 536 86 199 86 m 775 1117 l 672 1117 l 536 1263 l 401 1117 l 297 1117 l 484 1314 l 588 1314 l 775 1117 z "},"Ố":{"ha":1072,"x_min":80,"x_max":993,"o":"m 536 -13 q 294 43 397 -13 q 136 218 192 100 q 80 514 80 335 q 136 810 80 692 q 295 984 193 928 q 536 1041 398 1041 q 778 984 676 1041 q 937 810 881 928 q 993 514 993 692 q 936 218 993 336 q 777 43 879 100 q 536 -13 674 -13 m 536 86 q 785 188 696 86 q 874 510 874 290 q 785 839 874 735 q 536 942 696 942 q 288 840 376 942 q 199 517 199 738 q 536 86 199 86 m 829 1433 l 924 1433 l 783 1251 l 707 1251 l 829 1433 m 484 1306 l 588 1306 l 775 1117 l 672 1117 l 536 1259 l 401 1117 l 297 1117 l 484 1306 z "},"Ộ":{"ha":1072,"x_min":80,"x_max":993,"o":"m 536 -13 q 294 43 397 -13 q 136 218 192 100 q 80 514 80 335 q 136 810 80 692 q 295 984 193 928 q 536 1041 398 1041 q 778 984 676 1041 q 937 810 881 928 q 993 514 993 692 q 936 218 993 336 q 777 43 879 100 q 536 -13 674 -13 m 536 86 q 785 188 696 86 q 874 510 874 290 q 785 839 874 735 q 536 942 696 942 q 288 840 376 942 q 199 517 199 738 q 536 86 199 86 m 536 -244 q 478 -227 499 -244 q 458 -179 458 -210 q 478 -131 458 -148 q 536 -113 499 -113 q 594 -131 574 -113 q 615 -179 615 -148 q 594 -227 615 -210 q 536 -244 574 -244 m 775 1117 l 672 1117 l 536 1263 l 401 1117 l 297 1117 l 484 1314 l 588 1314 l 775 1117 z "},"Ồ":{"ha":1072,"x_min":80,"x_max":993,"o":"m 536 -13 q 294 43 397 -13 q 136 218 192 100 q 80 514 80 335 q 136 810 80 692 q 295 984 193 928 q 536 1041 398 1041 q 778 984 676 1041 q 937 810 881 928 q 993 514 993 692 q 936 218 993 336 q 777 43 879 100 q 536 -13 674 -13 m 536 86 q 785 188 696 86 q 874 510 874 290 q 785 839 874 735 q 536 942 696 942 q 288 840 376 942 q 199 517 199 738 q 536 86 199 86 m 801 1251 l 724 1251 l 584 1433 l 678 1433 l 801 1251 m 484 1306 l 588 1306 l 775 1117 l 672 1117 l 536 1259 l 401 1117 l 297 1117 l 484 1306 z "},"Ổ":{"ha":1072,"x_min":80,"x_max":993,"o":"m 536 -13 q 294 43 397 -13 q 136 218 192 100 q 80 514 80 335 q 136 810 80 692 q 295 984 193 928 q 536 1041 398 1041 q 778 984 676 1041 q 937 810 881 928 q 993 514 993 692 q 936 218 993 336 q 777 43 879 100 q 536 -13 674 -13 m 536 86 q 785 188 696 86 q 874 510 874 290 q 785 839 874 735 q 536 942 696 942 q 288 840 376 942 q 199 517 199 738 q 536 86 199 86 m 751 1444 q 863 1424 826 1444 q 899 1366 899 1403 q 889 1334 899 1347 q 867 1314 880 1322 q 832 1297 854 1307 q 792 1276 805 1285 q 778 1251 780 1267 l 707 1251 q 719 1284 708 1271 q 744 1306 730 1298 q 781 1323 758 1313 q 817 1340 805 1332 q 829 1361 829 1349 q 810 1385 829 1376 q 745 1393 791 1393 q 674 1388 707 1393 q 603 1372 641 1383 l 603 1422 q 751 1444 665 1444 m 484 1306 l 588 1306 l 775 1117 l 672 1117 l 536 1259 l 401 1117 l 297 1117 l 484 1306 z "},"Ỗ":{"ha":1072,"x_min":80,"x_max":993,"o":"m 536 -13 q 294 43 397 -13 q 136 218 192 100 q 80 514 80 335 q 136 810 80 692 q 295 984 193 928 q 536 1041 398 1041 q 778 984 676 1041 q 937 810 881 928 q 993 514 993 692 q 936 218 993 336 q 777 43 879 100 q 536 -13 674 -13 m 536 86 q 785 188 696 86 q 874 510 874 290 q 785 839 874 735 q 536 942 696 942 q 288 840 376 942 q 199 517 199 738 q 536 86 199 86 m 646 1397 q 713 1408 683 1397 q 775 1445 743 1419 l 775 1379 q 717 1347 749 1357 q 645 1337 685 1337 q 589 1343 616 1337 q 523 1363 563 1350 q 467 1380 488 1375 q 426 1385 447 1385 q 360 1374 390 1385 q 297 1337 329 1363 l 297 1403 q 356 1436 324 1426 q 427 1446 388 1446 q 483 1439 456 1446 q 549 1419 510 1433 q 605 1402 585 1408 q 646 1397 625 1397 m 484 1306 l 588 1306 l 775 1117 l 672 1117 l 536 1259 l 401 1117 l 297 1117 l 484 1306 z "},"Ȍ":{"ha":1072,"x_min":80,"x_max":993,"o":"m 536 -13 q 294 43 397 -13 q 136 218 192 100 q 80 514 80 335 q 136 810 80 692 q 295 984 193 928 q 536 1041 398 1041 q 778 984 676 1041 q 937 810 881 928 q 993 514 993 692 q 936 218 993 336 q 777 43 879 100 q 536 -13 674 -13 m 536 86 q 785 188 696 86 q 874 510 874 290 q 785 839 874 735 q 536 942 696 942 q 288 840 376 942 q 199 517 199 738 q 536 86 199 86 m 367 1117 l 259 1314 l 356 1314 l 458 1117 l 367 1117 m 615 1117 l 507 1314 l 604 1314 l 706 1117 l 615 1117 z "},"Ö":{"ha":1072,"x_min":80,"x_max":993,"o":"m 536 -13 q 294 43 397 -13 q 136 218 192 100 q 80 514 80 335 q 136 810 80 692 q 295 984 193 928 q 536 1041 398 1041 q 778 984 676 1041 q 937 810 881 928 q 993 514 993 692 q 936 218 993 336 q 777 43 879 100 q 536 -13 674 -13 m 536 86 q 785 188 696 86 q 874 510 874 290 q 785 839 874 735 q 536 942 696 942 q 288 840 376 942 q 199 517 199 738 q 536 86 199 86 m 360 1151 q 307 1168 326 1151 q 288 1216 288 1185 q 307 1264 288 1247 q 360 1282 326 1282 q 413 1264 394 1282 q 432 1216 432 1247 q 413 1168 432 1185 q 360 1151 394 1151 m 713 1151 q 659 1168 678 1151 q 640 1216 640 1185 q 659 1264 640 1247 q 713 1282 678 1282 q 766 1264 747 1282 q 785 1216 785 1247 q 766 1168 785 1185 q 713 1151 747 1151 z "},"Ȫ":{"ha":1072,"x_min":80,"x_max":993,"o":"m 536 -13 q 294 43 397 -13 q 136 218 192 100 q 80 514 80 335 q 136 810 80 692 q 295 984 193 928 q 536 1041 398 1041 q 778 984 676 1041 q 937 810 881 928 q 993 514 993 692 q 936 218 993 336 q 777 43 879 100 q 536 -13 674 -13 m 536 86 q 785 188 696 86 q 874 510 874 290 q 785 839 874 735 q 536 942 696 942 q 288 840 376 942 q 199 517 199 738 q 536 86 199 86 m 360 1151 q 307 1168 326 1151 q 288 1216 288 1185 q 307 1264 288 1247 q 360 1282 326 1282 q 413 1264 394 1282 q 432 1216 432 1247 q 413 1168 432 1185 q 360 1151 394 1151 m 713 1151 q 659 1168 678 1151 q 640 1216 640 1185 q 659 1264 640 1247 q 713 1282 678 1282 q 766 1264 747 1282 q 785 1216 785 1247 q 766 1168 785 1185 q 713 1151 747 1151 m 313 1367 l 313 1444 l 760 1444 l 760 1367 l 313 1367 z "},"Ȱ":{"ha":1072,"x_min":80,"x_max":993,"o":"m 536 -13 q 294 43 397 -13 q 136 218 192 100 q 80 514 80 335 q 136 810 80 692 q 295 984 193 928 q 536 1041 398 1041 q 778 984 676 1041 q 937 810 881 928 q 993 514 993 692 q 936 218 993 336 q 777 43 879 100 q 536 -13 674 -13 m 536 86 q 785 188 696 86 q 874 510 874 290 q 785 839 874 735 q 536 942 696 942 q 288 840 376 942 q 199 517 199 738 q 536 86 199 86 m 536 1151 q 478 1168 499 1151 q 458 1216 458 1185 q 478 1265 458 1247 q 536 1282 499 1282 q 594 1265 574 1282 q 615 1216 615 1247 q 594 1168 615 1185 q 536 1151 574 1151 m 313 1367 l 313 1444 l 760 1444 l 760 1367 l 313 1367 z "},"Ọ":{"ha":1072,"x_min":80,"x_max":993,"o":"m 536 -13 q 294 43 397 -13 q 136 218 192 100 q 80 514 80 335 q 136 810 80 692 q 295 984 193 928 q 536 1041 398 1041 q 778 984 676 1041 q 937 810 881 928 q 993 514 993 692 q 936 218 993 336 q 777 43 879 100 q 536 -13 674 -13 m 536 86 q 785 188 696 86 q 874 510 874 290 q 785 839 874 735 q 536 942 696 942 q 288 840 376 942 q 199 517 199 738 q 536 86 199 86 m 536 -244 q 478 -227 499 -244 q 458 -179 458 -210 q 478 -131 458 -148 q 536 -113 499 -113 q 594 -131 574 -113 q 615 -179 615 -148 q 594 -227 615 -210 q 536 -244 574 -244 z "},"Ò":{"ha":1072,"x_min":80,"x_max":993,"o":"m 536 -13 q 294 43 397 -13 q 136 218 192 100 q 80 514 80 335 q 136 810 80 692 q 295 984 193 928 q 536 1041 398 1041 q 778 984 676 1041 q 937 810 881 928 q 993 514 993 692 q 936 218 993 336 q 777 43 879 100 q 536 -13 674 -13 m 536 86 q 785 188 696 86 q 874 510 874 290 q 785 839 874 735 q 536 942 696 942 q 288 840 376 942 q 199 517 199 738 q 536 86 199 86 m 483 1117 l 325 1314 l 451 1314 l 590 1117 l 483 1117 z "},"Ỏ":{"ha":1072,"x_min":80,"x_max":993,"o":"m 536 -13 q 294 43 397 -13 q 136 218 192 100 q 80 514 80 335 q 136 810 80 692 q 295 984 193 928 q 536 1041 398 1041 q 778 984 676 1041 q 937 810 881 928 q 993 514 993 692 q 936 218 993 336 q 777 43 879 100 q 536 -13 674 -13 m 536 86 q 785 188 696 86 q 874 510 874 290 q 785 839 874 735 q 536 942 696 942 q 288 840 376 942 q 199 517 199 738 q 536 86 199 86 m 500 1117 q 521 1161 502 1146 q 575 1191 540 1176 q 611 1210 600 1202 q 622 1231 622 1217 q 603 1255 622 1247 q 538 1264 584 1264 q 467 1259 499 1264 q 396 1242 434 1253 l 396 1297 q 544 1319 458 1319 q 656 1297 619 1319 q 692 1237 692 1276 q 675 1194 692 1209 q 625 1165 658 1179 q 586 1143 599 1153 q 571 1117 573 1133 l 500 1117 z "},"Ơ":{"ha":1072,"x_min":80,"x_max":996,"o":"m 821 956 q 949 784 904 894 q 993 514 993 674 q 937 216 993 333 q 778 42 881 98 q 536 -13 676 -13 q 294 43 397 -13 q 136 218 192 100 q 80 514 80 335 q 136 810 80 692 q 295 984 193 928 q 536 1041 398 1041 q 645 1033 574 1041 q 767 1024 720 1024 q 910 1135 910 1024 q 906 1183 910 1160 q 894 1233 902 1206 l 980 1233 q 992 1185 989 1208 q 996 1131 996 1161 q 951 1009 996 1054 q 821 956 906 965 m 536 86 q 785 188 696 86 q 874 510 874 290 q 785 839 874 735 q 536 942 696 942 q 288 840 376 942 q 199 517 199 738 q 536 86 199 86 z "},"Ớ":{"ha":1072,"x_min":80,"x_max":996,"o":"m 821 956 q 949 784 904 894 q 993 514 993 674 q 937 216 993 333 q 778 42 881 98 q 536 -13 676 -13 q 294 43 397 -13 q 136 218 192 100 q 80 514 80 335 q 136 810 80 692 q 295 984 193 928 q 536 1041 398 1041 q 645 1033 574 1041 q 767 1024 720 1024 q 910 1135 910 1024 q 906 1183 910 1160 q 894 1233 902 1206 l 980 1233 q 992 1185 989 1208 q 996 1131 996 1161 q 951 1009 996 1054 q 821 956 906 965 m 536 86 q 785 188 696 86 q 874 510 874 290 q 785 839 874 735 q 536 942 696 942 q 288 840 376 942 q 199 517 199 738 q 536 86 199 86 m 483 1117 l 622 1314 l 747 1314 l 589 1117 l 483 1117 z "},"Ợ":{"ha":1072,"x_min":80,"x_max":996,"o":"m 821 956 q 949 784 904 894 q 993 514 993 674 q 937 216 993 333 q 778 42 881 98 q 536 -13 676 -13 q 294 43 397 -13 q 136 218 192 100 q 80 514 80 335 q 136 810 80 692 q 295 984 193 928 q 536 1041 398 1041 q 645 1033 574 1041 q 767 1024 720 1024 q 910 1135 910 1024 q 906 1183 910 1160 q 894 1233 902 1206 l 980 1233 q 992 1185 989 1208 q 996 1131 996 1161 q 951 1009 996 1054 q 821 956 906 965 m 536 86 q 785 188 696 86 q 874 510 874 290 q 785 839 874 735 q 536 942 696 942 q 288 840 376 942 q 199 517 199 738 q 536 86 199 86 m 536 -244 q 478 -227 499 -244 q 458 -179 458 -210 q 478 -131 458 -148 q 536 -113 499 -113 q 594 -131 574 -113 q 615 -179 615 -148 q 594 -227 615 -210 q 536 -244 574 -244 z "},"Ờ":{"ha":1072,"x_min":80,"x_max":996,"o":"m 821 956 q 949 784 904 894 q 993 514 993 674 q 937 216 993 333 q 778 42 881 98 q 536 -13 676 -13 q 294 43 397 -13 q 136 218 192 100 q 80 514 80 335 q 136 810 80 692 q 295 984 193 928 q 536 1041 398 1041 q 645 1033 574 1041 q 767 1024 720 1024 q 910 1135 910 1024 q 906 1183 910 1160 q 894 1233 902 1206 l 980 1233 q 992 1185 989 1208 q 996 1131 996 1161 q 951 1009 996 1054 q 821 956 906 965 m 536 86 q 785 188 696 86 q 874 510 874 290 q 785 839 874 735 q 536 942 696 942 q 288 840 376 942 q 199 517 199 738 q 536 86 199 86 m 483 1117 l 325 1314 l 451 1314 l 590 1117 l 483 1117 z "},"Ở":{"ha":1072,"x_min":80,"x_max":996,"o":"m 821 956 q 949 784 904 894 q 993 514 993 674 q 937 216 993 333 q 778 42 881 98 q 536 -13 676 -13 q 294 43 397 -13 q 136 218 192 100 q 80 514 80 335 q 136 810 80 692 q 295 984 193 928 q 536 1041 398 1041 q 645 1033 574 1041 q 767 1024 720 1024 q 910 1135 910 1024 q 906 1183 910 1160 q 894 1233 902 1206 l 980 1233 q 992 1185 989 1208 q 996 1131 996 1161 q 951 1009 996 1054 q 821 956 906 965 m 536 86 q 785 188 696 86 q 874 510 874 290 q 785 839 874 735 q 536 942 696 942 q 288 840 376 942 q 199 517 199 738 q 536 86 199 86 m 500 1117 q 521 1161 502 1146 q 575 1191 540 1176 q 611 1210 600 1202 q 622 1231 622 1217 q 603 1255 622 1247 q 538 1264 584 1264 q 467 1259 499 1264 q 396 1242 434 1253 l 396 1297 q 544 1319 458 1319 q 656 1297 619 1319 q 692 1237 692 1276 q 675 1194 692 1209 q 625 1165 658 1179 q 586 1143 599 1153 q 571 1117 573 1133 l 500 1117 z "},"Ỡ":{"ha":1072,"x_min":80,"x_max":996,"o":"m 648 1158 q 590 1165 617 1158 q 526 1186 563 1172 q 469 1205 492 1199 q 424 1210 447 1210 q 356 1199 385 1210 q 299 1162 326 1187 l 299 1239 q 352 1273 321 1262 q 425 1284 383 1284 q 483 1277 456 1284 q 547 1256 510 1270 q 603 1238 581 1244 q 649 1232 626 1232 q 717 1243 688 1232 q 774 1281 747 1255 l 774 1203 q 720 1169 751 1180 q 648 1158 690 1158 m 821 956 q 949 784 904 894 q 993 514 993 674 q 937 216 993 333 q 778 42 881 98 q 536 -13 676 -13 q 294 43 397 -13 q 136 218 192 100 q 80 514 80 335 q 136 810 80 692 q 295 984 193 928 q 536 1041 398 1041 q 645 1033 574 1041 q 767 1024 720 1024 q 910 1135 910 1024 q 906 1183 910 1160 q 894 1233 902 1206 l 980 1233 q 992 1185 989 1208 q 996 1131 996 1161 q 951 1009 996 1054 q 821 956 906 965 m 536 86 q 785 188 696 86 q 874 510 874 290 q 785 839 874 735 q 536 942 696 942 q 288 840 376 942 q 199 517 199 738 q 536 86 199 86 z "},"Ő":{"ha":1072,"x_min":80,"x_max":993,"o":"m 536 -13 q 294 43 397 -13 q 136 218 192 100 q 80 514 80 335 q 136 810 80 692 q 295 984 193 928 q 536 1041 398 1041 q 778 984 676 1041 q 937 810 881 928 q 993 514 993 692 q 936 218 993 336 q 777 43 879 100 q 536 -13 674 -13 m 536 86 q 785 188 696 86 q 874 510 874 290 q 785 839 874 735 q 536 942 696 942 q 288 840 376 942 q 199 517 199 738 q 536 86 199 86 m 367 1117 l 468 1314 l 565 1314 l 458 1117 l 367 1117 m 615 1117 l 716 1314 l 814 1314 l 706 1117 l 615 1117 z "},"Ȏ":{"ha":1072,"x_min":80,"x_max":993,"o":"m 536 -13 q 294 43 397 -13 q 136 218 192 100 q 80 514 80 335 q 136 810 80 692 q 295 984 193 928 q 536 1041 398 1041 q 778 984 676 1041 q 937 810 881 928 q 993 514 993 692 q 936 218 993 336 q 777 43 879 100 q 536 -13 674 -13 m 536 86 q 785 188 696 86 q 874 510 874 290 q 785 839 874 735 q 536 942 696 942 q 288 840 376 942 q 199 517 199 738 q 536 86 199 86 m 299 1131 q 367 1260 308 1213 q 535 1308 426 1308 q 704 1260 644 1308 q 773 1131 764 1212 l 695 1131 q 649 1213 686 1185 q 535 1240 612 1240 q 422 1213 458 1240 q 377 1131 385 1185 l 299 1131 z "},"Ō":{"ha":1072,"x_min":80,"x_max":993,"o":"m 536 -13 q 294 43 397 -13 q 136 218 192 100 q 80 514 80 335 q 136 810 80 692 q 295 984 193 928 q 536 1041 398 1041 q 778 984 676 1041 q 937 810 881 928 q 993 514 993 692 q 936 218 993 336 q 777 43 879 100 q 536 -13 674 -13 m 536 86 q 785 188 696 86 q 874 510 874 290 q 785 839 874 735 q 536 942 696 942 q 288 840 376 942 q 199 517 199 738 q 536 86 199 86 m 313 1177 l 313 1253 l 760 1253 l 760 1177 l 313 1177 z "},"Ṓ":{"ha":1072,"x_min":80,"x_max":993,"o":"m 536 -13 q 294 43 397 -13 q 136 218 192 100 q 80 514 80 335 q 136 810 80 692 q 295 984 193 928 q 536 1041 398 1041 q 778 984 676 1041 q 937 810 881 928 q 993 514 993 692 q 936 218 993 336 q 777 43 879 100 q 536 -13 674 -13 m 536 86 q 785 188 696 86 q 874 510 874 290 q 785 839 874 735 q 536 942 696 942 q 288 840 376 942 q 199 517 199 738 q 536 86 199 86 m 478 1327 l 617 1488 l 752 1488 l 594 1327 l 478 1327 m 313 1177 l 313 1253 l 760 1253 l 760 1177 l 313 1177 z "},"Ṑ":{"ha":1072,"x_min":80,"x_max":993,"o":"m 536 -13 q 294 43 397 -13 q 136 218 192 100 q 80 514 80 335 q 136 810 80 692 q 295 984 193 928 q 536 1041 398 1041 q 778 984 676 1041 q 937 810 881 928 q 993 514 993 692 q 936 218 993 336 q 777 43 879 100 q 536 -13 674 -13 m 536 86 q 785 188 696 86 q 874 510 874 290 q 785 839 874 735 q 536 942 696 942 q 288 840 376 942 q 199 517 199 738 q 536 86 199 86 m 478 1327 l 320 1488 l 455 1488 l 594 1327 l 478 1327 m 313 1177 l 313 1253 l 760 1253 l 760 1177 l 313 1177 z "},"Ǫ":{"ha":1072,"x_min":80,"x_max":993,"o":"m 705 12 q 557 -64 599 -23 q 515 -154 515 -106 q 542 -212 515 -192 q 620 -233 568 -233 q 674 -226 647 -233 q 739 -207 701 -220 l 739 -263 q 610 -289 676 -289 q 485 -255 528 -289 q 442 -161 442 -222 q 464 -80 442 -117 q 536 -13 486 -43 q 293 44 395 -12 q 136 218 192 101 q 80 514 80 335 q 136 810 80 692 q 295 984 193 928 q 536 1041 398 1041 q 777 985 675 1041 q 936 812 879 930 q 993 514 993 694 q 915 177 993 300 q 705 12 837 55 m 199 517 q 536 86 199 86 q 785 188 696 86 q 874 510 874 290 q 785 839 874 735 q 536 942 696 942 q 288 840 376 942 q 199 517 199 738 z "},"Ø":{"ha":1072,"x_min":80,"x_max":993,"o":"m 886 892 q 993 514 993 757 q 936 218 993 336 q 777 43 879 100 q 536 -13 674 -13 q 237 84 351 -13 l 153 -19 l 97 25 l 186 136 q 107 296 135 201 q 80 514 80 391 q 136 810 80 692 q 295 984 193 928 q 536 1041 398 1041 q 836 944 722 1041 l 919 1047 l 975 1003 l 886 892 m 199 517 q 260 228 199 333 l 767 858 q 536 942 684 942 q 288 840 376 942 q 199 517 199 738 m 536 86 q 785 188 696 86 q 874 510 874 290 q 812 800 874 694 l 306 169 q 536 86 388 86 z "},"Ǿ":{"ha":1072,"x_min":80,"x_max":993,"o":"m 886 892 q 993 514 993 757 q 936 218 993 336 q 777 43 879 100 q 536 -13 674 -13 q 237 84 351 -13 l 153 -19 l 97 25 l 186 136 q 107 296 135 201 q 80 514 80 391 q 136 810 80 692 q 295 984 193 928 q 536 1041 398 1041 q 836 944 722 1041 l 919 1047 l 975 1003 l 886 892 m 199 517 q 260 228 199 333 l 767 858 q 536 942 684 942 q 288 840 376 942 q 199 517 199 738 m 536 86 q 785 188 696 86 q 874 510 874 290 q 812 800 874 694 l 306 169 q 536 86 388 86 m 478 1117 l 617 1314 l 743 1314 l 585 1117 l 478 1117 z "},"Õ":{"ha":1072,"x_min":80,"x_max":993,"o":"m 536 -13 q 294 43 397 -13 q 136 218 192 100 q 80 514 80 335 q 136 810 80 692 q 295 984 193 928 q 536 1041 398 1041 q 778 984 676 1041 q 937 810 881 928 q 993 514 993 692 q 936 218 993 336 q 777 43 879 100 q 536 -13 674 -13 m 536 86 q 785 188 696 86 q 874 510 874 290 q 785 839 874 735 q 536 942 696 942 q 288 840 376 942 q 199 517 199 738 q 536 86 199 86 m 649 1158 q 590 1165 618 1158 q 525 1186 563 1172 q 468 1205 491 1199 q 422 1210 445 1210 q 353 1199 383 1210 q 295 1162 323 1187 l 295 1239 q 349 1273 318 1262 q 423 1284 381 1284 q 482 1277 454 1284 q 547 1256 510 1270 q 604 1238 581 1244 q 651 1232 627 1232 q 720 1243 690 1232 q 777 1281 749 1255 l 777 1203 q 723 1169 754 1181 q 649 1158 692 1158 z "},"Ṍ":{"ha":1072,"x_min":80,"x_max":993,"o":"m 536 -13 q 294 43 397 -13 q 136 218 192 100 q 80 514 80 335 q 136 810 80 692 q 295 984 193 928 q 536 1041 398 1041 q 778 984 676 1041 q 937 810 881 928 q 993 514 993 692 q 936 218 993 336 q 777 43 879 100 q 536 -13 674 -13 m 536 86 q 785 188 696 86 q 874 510 874 290 q 785 839 874 735 q 536 942 696 942 q 288 840 376 942 q 199 517 199 738 q 536 86 199 86 m 478 1327 l 617 1488 l 752 1488 l 594 1327 l 478 1327 m 649 1158 q 590 1165 618 1158 q 525 1186 563 1172 q 468 1205 491 1199 q 422 1210 445 1210 q 353 1199 383 1210 q 295 1162 323 1187 l 295 1239 q 349 1273 318 1262 q 423 1284 381 1284 q 482 1277 454 1284 q 547 1256 510 1270 q 604 1238 581 1244 q 651 1232 627 1232 q 720 1243 690 1232 q 777 1281 749 1255 l 777 1203 q 723 1169 754 1181 q 649 1158 692 1158 z "},"Ṏ":{"ha":1072,"x_min":80,"x_max":993,"o":"m 536 -13 q 294 43 397 -13 q 136 218 192 100 q 80 514 80 335 q 136 810 80 692 q 295 984 193 928 q 536 1041 398 1041 q 778 984 676 1041 q 937 810 881 928 q 993 514 993 692 q 936 218 993 336 q 777 43 879 100 q 536 -13 674 -13 m 536 86 q 785 188 696 86 q 874 510 874 290 q 785 839 874 735 q 536 942 696 942 q 288 840 376 942 q 199 517 199 738 q 536 86 199 86 m 649 1158 q 590 1165 618 1158 q 525 1186 563 1172 q 468 1205 491 1199 q 422 1210 445 1210 q 353 1199 383 1210 q 295 1162 323 1187 l 295 1239 q 349 1273 318 1262 q 423 1284 381 1284 q 482 1277 454 1284 q 547 1256 510 1270 q 604 1238 581 1244 q 651 1232 627 1232 q 720 1243 690 1232 q 777 1281 749 1255 l 777 1203 q 723 1169 754 1181 q 649 1158 692 1158 m 360 1342 q 307 1359 326 1342 q 288 1406 288 1376 q 307 1455 288 1437 q 360 1472 326 1472 q 413 1455 394 1472 q 432 1406 432 1437 q 413 1359 432 1376 q 360 1342 394 1342 m 713 1342 q 659 1359 678 1342 q 640 1406 640 1376 q 659 1455 640 1437 q 713 1472 678 1472 q 766 1455 747 1472 q 785 1406 785 1437 q 766 1359 785 1376 q 713 1342 747 1342 z "},"Ȭ":{"ha":1072,"x_min":80,"x_max":993,"o":"m 536 -13 q 294 43 397 -13 q 136 218 192 100 q 80 514 80 335 q 136 810 80 692 q 295 984 193 928 q 536 1041 398 1041 q 778 984 676 1041 q 937 810 881 928 q 993 514 993 692 q 936 218 993 336 q 777 43 879 100 q 536 -13 674 -13 m 536 86 q 785 188 696 86 q 874 510 874 290 q 785 839 874 735 q 536 942 696 942 q 288 840 376 942 q 199 517 199 738 q 536 86 199 86 m 649 1158 q 590 1165 618 1158 q 525 1186 563 1172 q 468 1205 491 1199 q 422 1210 445 1210 q 353 1199 383 1210 q 295 1162 323 1187 l 295 1239 q 349 1273 318 1262 q 423 1284 381 1284 q 482 1277 454 1284 q 547 1256 510 1270 q 604 1238 581 1244 q 651 1232 627 1232 q 720 1243 690 1232 q 777 1281 749 1255 l 777 1203 q 723 1169 754 1181 q 649 1158 692 1158 m 313 1367 l 313 1444 l 760 1444 l 760 1367 l 313 1367 z "},"Œ":{"ha":1496,"x_min":80,"x_max":1434,"o":"m 1434 97 l 1434 0 l 869 0 q 810 -1 847 0 q 756 -3 774 -3 q 630 -8 670 -8 q 218 121 356 -8 q 80 514 80 249 q 218 907 80 776 q 624 1038 356 1038 q 694 1035 655 1038 q 745 1033 733 1033 q 860 1028 816 1028 l 1427 1028 l 1427 931 l 892 931 l 892 576 l 1358 576 l 1358 478 l 892 478 l 892 97 l 1434 97 m 777 930 q 609 939 687 939 q 301 835 403 939 q 199 513 199 732 q 302 193 199 295 q 611 91 405 91 q 777 98 719 91 l 777 930 z "},"P":{"ha":903,"x_min":126,"x_max":838,"o":"m 126 1010 q 268 1032 201 1025 q 409 1039 335 1039 q 730 953 622 1039 q 838 689 838 868 q 729 425 838 515 q 392 336 619 336 q 242 343 318 336 l 242 0 l 126 0 l 126 1010 m 393 429 q 583 457 510 429 q 690 542 656 485 q 724 688 724 599 q 648 883 724 821 q 417 946 572 946 q 242 931 327 946 l 242 439 q 393 429 310 429 z "},"Þ":{"ha":910,"x_min":126,"x_max":838,"o":"m 126 1028 l 242 1028 l 242 865 q 410 879 324 879 q 731 794 623 879 q 838 529 838 708 q 729 266 838 355 q 393 176 620 176 q 242 183 331 176 l 242 0 l 126 0 l 126 1028 m 393 269 q 583 298 510 269 q 690 383 656 326 q 724 528 724 440 q 648 724 724 662 q 417 786 572 786 q 242 772 321 786 l 242 279 q 393 269 317 269 z "},"Q":{"ha":1072,"x_min":80,"x_max":993,"o":"m 993 514 q 892 143 993 275 q 595 -2 790 11 q 974 -65 753 -47 l 957 -161 q 428 -43 619 -123 q 159 170 238 38 q 80 512 80 303 q 136 809 80 691 q 295 984 193 928 q 536 1041 398 1041 q 777 985 675 1041 q 936 812 879 930 q 993 514 993 694 m 199 517 q 536 86 199 86 q 785 188 696 86 q 874 510 874 290 q 785 839 874 735 q 536 942 696 942 q 288 840 376 942 q 199 517 199 738 z "},"R":{"ha":959,"x_min":126,"x_max":915,"o":"m 784 0 l 453 424 q 401 423 419 423 q 260 428 351 423 l 240 430 l 240 0 l 126 0 l 126 1008 q 267 1031 197 1023 q 419 1039 338 1039 q 736 965 633 1039 q 838 733 838 892 q 771 539 839 613 q 570 438 703 465 l 915 0 l 784 0 m 240 524 q 323 517 290 519 q 404 515 356 515 q 651 568 574 515 q 728 731 728 621 q 697 857 728 810 q 599 925 665 904 q 426 947 533 947 q 328 943 370 947 q 240 931 287 939 l 240 524 z "},"Ŕ":{"ha":959,"x_min":126,"x_max":915,"o":"m 784 0 l 453 424 q 401 423 419 423 q 260 428 351 423 l 240 430 l 240 0 l 126 0 l 126 1008 q 267 1031 197 1023 q 419 1039 338 1039 q 736 965 633 1039 q 838 733 838 892 q 771 539 839 613 q 570 438 703 465 l 915 0 l 784 0 m 240 524 q 323 517 290 519 q 404 515 356 515 q 651 568 574 515 q 728 731 728 621 q 697 857 728 810 q 599 925 665 904 q 426 947 533 947 q 328 943 370 947 q 240 931 287 939 l 240 524 m 411 1117 l 550 1314 l 676 1314 l 517 1117 l 411 1117 z "},"Ř":{"ha":959,"x_min":126,"x_max":915,"o":"m 784 0 l 453 424 q 401 423 419 423 q 260 428 351 423 l 240 430 l 240 0 l 126 0 l 126 1008 q 267 1031 197 1023 q 419 1039 338 1039 q 736 965 633 1039 q 838 733 838 892 q 771 539 839 613 q 570 438 703 465 l 915 0 l 784 0 m 240 524 q 323 517 290 519 q 404 515 356 515 q 651 568 574 515 q 728 731 728 621 q 697 857 728 810 q 599 925 665 904 q 426 947 533 947 q 328 943 370 947 q 240 931 287 939 l 240 524 m 600 1314 l 703 1314 l 517 1117 l 413 1117 l 226 1314 l 329 1314 l 465 1167 l 600 1314 z "},"Ŗ":{"ha":959,"x_min":126,"x_max":915,"o":"m 784 0 l 453 424 q 401 423 419 423 q 260 428 351 423 l 240 430 l 240 0 l 126 0 l 126 1008 q 267 1031 197 1023 q 419 1039 338 1039 q 736 965 633 1039 q 838 733 838 892 q 771 539 839 613 q 570 438 703 465 l 915 0 l 784 0 m 240 524 q 323 517 290 519 q 404 515 356 515 q 651 568 574 515 q 728 731 728 621 q 697 857 728 810 q 599 925 665 904 q 426 947 533 947 q 328 943 370 947 q 240 931 287 939 l 240 524 m 495 -113 q 552 -133 533 -113 q 572 -190 572 -152 q 561 -256 572 -219 q 532 -324 551 -292 l 460 -324 q 490 -227 484 -270 q 440 -210 457 -225 q 423 -169 423 -194 q 442 -128 423 -144 q 495 -113 460 -113 z "},"Ȑ":{"ha":959,"x_min":126,"x_max":915,"o":"m 784 0 l 453 424 q 401 423 419 423 q 260 428 351 423 l 240 430 l 240 0 l 126 0 l 126 1008 q 267 1031 197 1023 q 419 1039 338 1039 q 736 965 633 1039 q 838 733 838 892 q 771 539 839 613 q 570 438 703 465 l 915 0 l 784 0 m 240 524 q 323 517 290 519 q 404 515 356 515 q 651 568 574 515 q 728 731 728 621 q 697 857 728 810 q 599 925 665 904 q 426 947 533 947 q 328 943 370 947 q 240 931 287 939 l 240 524 m 295 1117 l 188 1314 l 285 1314 l 386 1117 l 295 1117 m 543 1117 l 435 1314 l 533 1314 l 634 1117 l 543 1117 z "},"Ṛ":{"ha":959,"x_min":126,"x_max":915,"o":"m 784 0 l 453 424 q 401 423 419 423 q 260 428 351 423 l 240 430 l 240 0 l 126 0 l 126 1008 q 267 1031 197 1023 q 419 1039 338 1039 q 736 965 633 1039 q 838 733 838 892 q 771 539 839 613 q 570 438 703 465 l 915 0 l 784 0 m 240 524 q 323 517 290 519 q 404 515 356 515 q 651 568 574 515 q 728 731 728 621 q 697 857 728 810 q 599 925 665 904 q 426 947 533 947 q 328 943 370 947 q 240 931 287 939 l 240 524 m 497 -244 q 439 -227 460 -244 q 419 -179 419 -210 q 439 -131 419 -148 q 497 -113 460 -113 q 555 -131 535 -113 q 576 -179 576 -148 q 555 -227 576 -210 q 497 -244 535 -244 z "},"Ȓ":{"ha":959,"x_min":126,"x_max":915,"o":"m 784 0 l 453 424 q 401 423 419 423 q 260 428 351 423 l 240 430 l 240 0 l 126 0 l 126 1008 q 267 1031 197 1023 q 419 1039 338 1039 q 736 965 633 1039 q 838 733 838 892 q 771 539 839 613 q 570 438 703 465 l 915 0 l 784 0 m 240 524 q 323 517 290 519 q 404 515 356 515 q 651 568 574 515 q 728 731 728 621 q 697 857 728 810 q 599 925 665 904 q 426 947 533 947 q 328 943 370 947 q 240 931 287 939 l 240 524 m 228 1131 q 295 1260 237 1213 q 464 1308 354 1308 q 633 1260 573 1308 q 701 1131 692 1212 l 624 1131 q 577 1213 615 1185 q 464 1240 540 1240 q 350 1213 387 1240 q 306 1131 314 1185 l 228 1131 z "},"Ṟ":{"ha":959,"x_min":126,"x_max":915,"o":"m 784 0 l 453 424 q 401 423 419 423 q 260 428 351 423 l 240 430 l 240 0 l 126 0 l 126 1008 q 267 1031 197 1023 q 419 1039 338 1039 q 736 965 633 1039 q 838 733 838 892 q 771 539 839 613 q 570 438 703 465 l 915 0 l 784 0 m 240 524 q 323 517 290 519 q 404 515 356 515 q 651 568 574 515 q 728 731 728 621 q 697 857 728 810 q 599 925 665 904 q 426 947 533 947 q 328 943 370 947 q 240 931 287 939 l 240 524 m 274 -216 l 274 -140 l 721 -140 l 721 -216 l 274 -216 z "},"S":{"ha":790,"x_min":57,"x_max":733,"o":"m 347 -13 q 208 -2 279 -13 q 74 31 137 9 l 74 130 q 213 96 142 107 q 348 85 283 85 q 616 274 616 85 q 594 360 616 326 q 525 418 572 394 q 397 459 478 441 l 337 472 q 125 573 194 504 q 57 753 57 641 q 100 907 57 842 q 229 1006 143 972 q 441 1041 315 1041 q 686 1007 572 1041 l 686 908 q 444 943 570 943 q 240 895 307 943 q 174 759 174 848 q 193 674 174 708 q 256 616 213 640 q 375 576 300 592 l 435 562 q 661 460 590 528 q 733 281 733 393 q 688 122 733 188 q 556 21 642 56 q 347 -13 469 -13 z "},"Ś":{"ha":790,"x_min":57,"x_max":733,"o":"m 347 -13 q 208 -2 279 -13 q 74 31 137 9 l 74 130 q 213 96 142 107 q 348 85 283 85 q 616 274 616 85 q 594 360 616 326 q 525 418 572 394 q 397 459 478 441 l 337 472 q 125 573 194 504 q 57 753 57 641 q 100 907 57 842 q 229 1006 143 972 q 441 1041 315 1041 q 686 1007 572 1041 l 686 908 q 444 943 570 943 q 240 895 307 943 q 174 759 174 848 q 193 674 174 708 q 256 616 213 640 q 375 576 300 592 l 435 562 q 661 460 590 528 q 733 281 733 393 q 688 122 733 188 q 556 21 642 56 q 347 -13 469 -13 m 347 1117 l 486 1314 l 612 1314 l 453 1117 l 347 1117 z "},"Ṥ":{"ha":790,"x_min":57,"x_max":733,"o":"m 347 -13 q 208 -2 279 -13 q 74 31 137 9 l 74 130 q 213 96 142 107 q 348 85 283 85 q 616 274 616 85 q 594 360 616 326 q 525 418 572 394 q 397 459 478 441 l 337 472 q 125 573 194 504 q 57 753 57 641 q 100 907 57 842 q 229 1006 143 972 q 441 1041 315 1041 q 686 1007 572 1041 l 686 908 q 444 943 570 943 q 240 895 307 943 q 174 759 174 848 q 193 674 174 708 q 256 616 213 640 q 375 576 300 592 l 435 562 q 661 460 590 528 q 733 281 733 393 q 688 122 733 188 q 556 21 642 56 q 347 -13 469 -13 m 325 1286 q 274 1302 292 1286 q 256 1344 256 1317 q 274 1388 256 1372 q 325 1403 292 1403 q 375 1388 357 1403 q 394 1344 394 1372 q 375 1302 394 1317 q 325 1286 357 1286 m 347 1117 l 486 1314 l 612 1314 l 453 1117 l 347 1117 z "},"Š":{"ha":790,"x_min":57,"x_max":733,"o":"m 347 -13 q 208 -2 279 -13 q 74 31 137 9 l 74 130 q 213 96 142 107 q 348 85 283 85 q 616 274 616 85 q 594 360 616 326 q 525 418 572 394 q 397 459 478 441 l 337 472 q 125 573 194 504 q 57 753 57 641 q 100 907 57 842 q 229 1006 143 972 q 441 1041 315 1041 q 686 1007 572 1041 l 686 908 q 444 943 570 943 q 240 895 307 943 q 174 759 174 848 q 193 674 174 708 q 256 616 213 640 q 375 576 300 592 l 435 562 q 661 460 590 528 q 733 281 733 393 q 688 122 733 188 q 556 21 642 56 q 347 -13 469 -13 m 536 1314 l 640 1314 l 453 1117 l 349 1117 l 162 1314 l 265 1314 l 401 1167 l 536 1314 z "},"Ṧ":{"ha":790,"x_min":57,"x_max":733,"o":"m 347 -13 q 208 -2 279 -13 q 74 31 137 9 l 74 130 q 213 96 142 107 q 348 85 283 85 q 616 274 616 85 q 594 360 616 326 q 525 418 572 394 q 397 459 478 441 l 337 472 q 125 573 194 504 q 57 753 57 641 q 100 907 57 842 q 229 1006 143 972 q 441 1041 315 1041 q 686 1007 572 1041 l 686 908 q 444 943 570 943 q 240 895 307 943 q 174 759 174 848 q 193 674 174 708 q 256 616 213 640 q 375 576 300 592 l 435 562 q 661 460 590 528 q 733 281 733 393 q 688 122 733 188 q 556 21 642 56 q 347 -13 469 -13 m 401 1321 q 350 1336 368 1321 q 332 1379 332 1352 q 350 1423 332 1407 q 401 1439 368 1439 q 451 1423 433 1439 q 469 1379 469 1407 q 451 1336 469 1352 q 401 1321 433 1321 m 536 1314 l 640 1314 l 453 1117 l 349 1117 l 162 1314 l 265 1314 l 401 1167 l 536 1314 z "},"Ş":{"ha":790,"x_min":57,"x_max":733,"o":"m 733 281 q 653 82 733 157 q 428 -9 574 7 l 428 -70 q 523 -102 490 -74 q 557 -178 557 -130 q 516 -261 557 -233 q 398 -289 474 -289 q 325 -282 362 -289 q 258 -263 288 -276 l 258 -206 q 394 -234 327 -234 q 489 -176 489 -234 q 392 -117 489 -117 l 363 -117 l 363 -13 l 347 -13 q 208 -2 279 -13 q 74 31 137 9 l 74 130 q 213 96 142 107 q 348 85 283 85 q 616 274 616 85 q 594 360 616 326 q 525 418 572 394 q 397 459 478 441 l 337 472 q 125 573 194 504 q 57 753 57 641 q 100 907 57 842 q 229 1006 143 972 q 441 1041 315 1041 q 686 1007 572 1041 l 686 908 q 444 943 570 943 q 240 895 307 943 q 174 759 174 848 q 193 674 174 708 q 256 616 213 640 q 375 576 300 592 l 435 562 q 661 460 590 528 q 733 281 733 393 z "},"Ŝ":{"ha":790,"x_min":57,"x_max":733,"o":"m 347 -13 q 208 -2 279 -13 q 74 31 137 9 l 74 130 q 213 96 142 107 q 348 85 283 85 q 616 274 616 85 q 594 360 616 326 q 525 418 572 394 q 397 459 478 441 l 337 472 q 125 573 194 504 q 57 753 57 641 q 100 907 57 842 q 229 1006 143 972 q 441 1041 315 1041 q 686 1007 572 1041 l 686 908 q 444 943 570 943 q 240 895 307 943 q 174 759 174 848 q 193 674 174 708 q 256 616 213 640 q 375 576 300 592 l 435 562 q 661 460 590 528 q 733 281 733 393 q 688 122 733 188 q 556 21 642 56 q 347 -13 469 -13 m 640 1117 l 536 1117 l 401 1263 l 265 1117 l 162 1117 l 349 1314 l 453 1314 l 640 1117 z "},"Ș":{"ha":790,"x_min":57,"x_max":733,"o":"m 347 -13 q 208 -2 279 -13 q 74 31 137 9 l 74 130 q 213 96 142 107 q 348 85 283 85 q 616 274 616 85 q 594 360 616 326 q 525 418 572 394 q 397 459 478 441 l 337 472 q 125 573 194 504 q 57 753 57 641 q 100 907 57 842 q 229 1006 143 972 q 441 1041 315 1041 q 686 1007 572 1041 l 686 908 q 444 943 570 943 q 240 895 307 943 q 174 759 174 848 q 193 674 174 708 q 256 616 213 640 q 375 576 300 592 l 435 562 q 661 460 590 528 q 733 281 733 393 q 688 122 733 188 q 556 21 642 56 q 347 -13 469 -13 m 399 -113 q 456 -133 437 -113 q 475 -190 475 -152 q 465 -256 475 -219 q 435 -324 454 -292 l 364 -324 q 393 -227 388 -270 q 343 -210 360 -225 q 326 -169 326 -194 q 345 -128 326 -144 q 399 -113 364 -113 z "},"Ṡ":{"ha":790,"x_min":57,"x_max":733,"o":"m 347 -13 q 208 -2 279 -13 q 74 31 137 9 l 74 130 q 213 96 142 107 q 348 85 283 85 q 616 274 616 85 q 594 360 616 326 q 525 418 572 394 q 397 459 478 441 l 337 472 q 125 573 194 504 q 57 753 57 641 q 100 907 57 842 q 229 1006 143 972 q 441 1041 315 1041 q 686 1007 572 1041 l 686 908 q 444 943 570 943 q 240 895 307 943 q 174 759 174 848 q 193 674 174 708 q 256 616 213 640 q 375 576 300 592 l 435 562 q 661 460 590 528 q 733 281 733 393 q 688 122 733 188 q 556 21 642 56 q 347 -13 469 -13 m 401 1151 q 343 1168 363 1151 q 322 1216 322 1185 q 343 1265 322 1247 q 401 1282 363 1282 q 459 1265 438 1282 q 479 1216 479 1247 q 459 1168 479 1185 q 401 1151 438 1151 z "},"Ṣ":{"ha":790,"x_min":57,"x_max":733,"o":"m 347 -13 q 208 -2 279 -13 q 74 31 137 9 l 74 130 q 213 96 142 107 q 348 85 283 85 q 616 274 616 85 q 594 360 616 326 q 525 418 572 394 q 397 459 478 441 l 337 472 q 125 573 194 504 q 57 753 57 641 q 100 907 57 842 q 229 1006 143 972 q 441 1041 315 1041 q 686 1007 572 1041 l 686 908 q 444 943 570 943 q 240 895 307 943 q 174 759 174 848 q 193 674 174 708 q 256 616 213 640 q 375 576 300 592 l 435 562 q 661 460 590 528 q 733 281 733 393 q 688 122 733 188 q 556 21 642 56 q 347 -13 469 -13 m 401 -244 q 343 -227 363 -244 q 322 -179 322 -210 q 343 -131 322 -148 q 401 -113 363 -113 q 459 -131 438 -113 q 479 -179 479 -148 q 459 -227 479 -210 q 401 -244 438 -244 z "},"Ṩ":{"ha":790,"x_min":57,"x_max":733,"o":"m 347 -13 q 208 -2 279 -13 q 74 31 137 9 l 74 130 q 213 96 142 107 q 348 85 283 85 q 616 274 616 85 q 594 360 616 326 q 525 418 572 394 q 397 459 478 441 l 337 472 q 125 573 194 504 q 57 753 57 641 q 100 907 57 842 q 229 1006 143 972 q 441 1041 315 1041 q 686 1007 572 1041 l 686 908 q 444 943 570 943 q 240 895 307 943 q 174 759 174 848 q 193 674 174 708 q 256 616 213 640 q 375 576 300 592 l 435 562 q 661 460 590 528 q 733 281 733 393 q 688 122 733 188 q 556 21 642 56 q 347 -13 469 -13 m 401 -244 q 343 -227 363 -244 q 322 -179 322 -210 q 343 -131 322 -148 q 401 -113 363 -113 q 459 -131 438 -113 q 479 -179 479 -148 q 459 -227 479 -210 q 401 -244 438 -244 m 401 1151 q 343 1168 363 1151 q 322 1216 322 1185 q 343 1265 322 1247 q 401 1282 363 1282 q 459 1265 438 1282 q 479 1216 479 1247 q 459 1168 479 1185 q 401 1151 438 1151 z "},"ẞ":{"ha":1256,"x_min":126,"x_max":1199,"o":"m 906 562 q 1130 460 1060 528 q 1199 281 1199 393 q 1155 122 1199 188 q 1024 21 1110 56 q 817 -13 939 -13 q 682 -2 752 -13 q 550 30 613 9 l 550 129 q 686 96 617 107 q 817 85 756 85 q 1084 274 1084 85 q 1063 360 1084 326 q 994 418 1041 394 q 868 459 947 441 l 810 472 q 601 573 669 504 q 533 753 533 641 q 599 936 533 866 q 519 943 564 943 q 309 873 376 943 q 242 653 242 803 l 242 0 l 126 0 l 126 638 q 222 942 126 843 q 519 1041 319 1041 q 710 1009 628 1041 q 914 1041 794 1041 q 1039 1032 977 1041 q 1153 1008 1100 1024 l 1153 908 q 917 943 1039 943 q 715 895 781 943 q 649 759 649 848 q 668 673 649 708 q 731 616 688 639 q 847 576 774 592 l 906 562 z "},"Ə":{"ha":1068,"x_min":73,"x_max":988,"o":"m 427 1041 q 844 912 701 1041 q 988 509 988 783 q 933 215 988 331 q 776 42 877 98 q 538 -13 675 -13 q 292 42 396 -13 q 130 213 188 97 q 73 503 73 328 l 73 558 l 871 558 q 808 782 863 697 q 658 905 754 867 q 421 943 561 943 q 275 934 351 943 q 132 908 199 926 l 132 1006 q 427 1041 267 1041 m 539 83 q 777 174 691 83 q 872 467 863 265 l 192 467 q 289 174 201 265 q 539 83 376 83 z "},"T":{"ha":865,"x_min":12,"x_max":853,"o":"m 374 0 l 374 928 l 12 928 l 12 1028 l 853 1028 l 853 928 l 490 928 l 490 0 l 374 0 z "},"Ŧ":{"ha":865,"x_min":12,"x_max":853,"o":"m 853 928 l 490 928 l 490 577 l 728 577 l 728 497 l 490 497 l 490 0 l 374 0 l 374 497 l 135 497 l 135 577 l 374 577 l 374 928 l 12 928 l 12 1028 l 853 1028 l 853 928 z "},"Ť":{"ha":865,"x_min":12,"x_max":853,"o":"m 374 0 l 374 928 l 12 928 l 12 1028 l 853 1028 l 853 928 l 490 928 l 490 0 l 374 0 m 567 1314 l 671 1314 l 484 1117 l 380 1117 l 193 1314 l 297 1314 l 432 1167 l 567 1314 z "},"Ţ":{"ha":865,"x_min":12,"x_max":853,"o":"m 459 0 l 459 -70 q 555 -102 521 -74 q 588 -178 588 -130 q 547 -261 588 -233 q 429 -289 506 -289 q 356 -282 393 -289 q 290 -263 319 -276 l 290 -206 q 425 -234 358 -234 q 520 -176 520 -234 q 424 -117 520 -117 l 394 -117 l 394 0 l 374 0 l 374 928 l 12 928 l 12 1028 l 853 1028 l 853 928 l 490 928 l 490 0 l 459 0 z "},"Ț":{"ha":865,"x_min":12,"x_max":853,"o":"m 374 0 l 374 928 l 12 928 l 12 1028 l 853 1028 l 853 928 l 490 928 l 490 0 l 374 0 m 430 -113 q 487 -133 468 -113 q 506 -190 506 -152 q 496 -256 506 -219 q 467 -324 485 -292 l 395 -324 q 424 -227 419 -270 q 375 -210 392 -225 q 358 -169 358 -194 q 376 -128 358 -144 q 430 -113 395 -113 z "},"Ṭ":{"ha":865,"x_min":12,"x_max":853,"o":"m 374 0 l 374 928 l 12 928 l 12 1028 l 853 1028 l 853 928 l 490 928 l 490 0 l 374 0 m 432 -244 q 374 -227 394 -244 q 353 -179 353 -210 q 374 -131 353 -148 q 432 -113 394 -113 q 490 -131 469 -113 q 510 -179 510 -148 q 490 -227 510 -210 q 432 -244 469 -244 z "},"Ṯ":{"ha":865,"x_min":12,"x_max":853,"o":"m 374 0 l 374 928 l 12 928 l 12 1028 l 853 1028 l 853 928 l 490 928 l 490 0 l 374 0 m 208 -216 l 208 -140 l 656 -140 l 656 -216 l 208 -216 z "},"U":{"ha":1046,"x_min":121,"x_max":926,"o":"m 524 -13 q 219 88 317 -13 q 121 403 121 188 l 121 1028 l 236 1028 l 236 390 q 306 158 236 231 q 524 86 376 86 q 743 158 673 86 q 813 390 813 231 l 813 1028 l 926 1028 l 926 403 q 883 167 926 259 q 751 31 840 76 q 524 -13 663 -13 z "},"Ú":{"ha":1046,"x_min":121,"x_max":926,"o":"m 524 -13 q 219 88 317 -13 q 121 403 121 188 l 121 1028 l 236 1028 l 236 390 q 306 158 236 231 q 524 86 376 86 q 743 158 673 86 q 813 390 813 231 l 813 1028 l 926 1028 l 926 403 q 883 167 926 259 q 751 31 840 76 q 524 -13 663 -13 m 471 1117 l 610 1314 l 735 1314 l 577 1117 l 471 1117 z "},"Ŭ":{"ha":1046,"x_min":121,"x_max":926,"o":"m 524 -13 q 219 88 317 -13 q 121 403 121 188 l 121 1028 l 236 1028 l 236 390 q 306 158 236 231 q 524 86 376 86 q 743 158 673 86 q 813 390 813 231 l 813 1028 l 926 1028 l 926 403 q 883 167 926 259 q 751 31 840 76 q 524 -13 663 -13 m 525 1123 q 356 1171 416 1123 q 288 1299 297 1219 l 365 1299 q 411 1217 374 1245 q 525 1190 449 1190 q 639 1217 602 1190 q 683 1299 675 1245 l 761 1299 q 693 1170 752 1217 q 525 1123 635 1123 z "},"Û":{"ha":1046,"x_min":121,"x_max":926,"o":"m 524 -13 q 219 88 317 -13 q 121 403 121 188 l 121 1028 l 236 1028 l 236 390 q 306 158 236 231 q 524 86 376 86 q 743 158 673 86 q 813 390 813 231 l 813 1028 l 926 1028 l 926 403 q 883 167 926 259 q 751 31 840 76 q 524 -13 663 -13 m 763 1117 l 660 1117 l 524 1263 l 389 1117 l 285 1117 l 472 1314 l 576 1314 l 763 1117 z "},"Ȕ":{"ha":1046,"x_min":121,"x_max":926,"o":"m 524 -13 q 219 88 317 -13 q 121 403 121 188 l 121 1028 l 236 1028 l 236 390 q 306 158 236 231 q 524 86 376 86 q 743 158 673 86 q 813 390 813 231 l 813 1028 l 926 1028 l 926 403 q 883 167 926 259 q 751 31 840 76 q 524 -13 663 -13 m 355 1117 l 247 1314 l 344 1314 l 446 1117 l 355 1117 m 603 1117 l 495 1314 l 592 1314 l 694 1117 l 603 1117 z "},"Ü":{"ha":1046,"x_min":121,"x_max":926,"o":"m 524 -13 q 219 88 317 -13 q 121 403 121 188 l 121 1028 l 236 1028 l 236 390 q 306 158 236 231 q 524 86 376 86 q 743 158 673 86 q 813 390 813 231 l 813 1028 l 926 1028 l 926 403 q 883 167 926 259 q 751 31 840 76 q 524 -13 663 -13 m 348 1151 q 295 1168 314 1151 q 276 1216 276 1185 q 295 1264 276 1247 q 348 1282 314 1282 q 401 1264 382 1282 q 420 1216 420 1247 q 401 1168 420 1185 q 348 1151 382 1151 m 701 1151 q 648 1168 667 1151 q 628 1216 628 1185 q 648 1264 628 1247 q 701 1282 667 1282 q 754 1264 735 1282 q 773 1216 773 1247 q 754 1168 773 1185 q 701 1151 735 1151 z "},"Ụ":{"ha":1046,"x_min":121,"x_max":926,"o":"m 524 -13 q 219 88 317 -13 q 121 403 121 188 l 121 1028 l 236 1028 l 236 390 q 306 158 236 231 q 524 86 376 86 q 743 158 673 86 q 813 390 813 231 l 813 1028 l 926 1028 l 926 403 q 883 167 926 259 q 751 31 840 76 q 524 -13 663 -13 m 524 -244 q 466 -227 487 -244 q 446 -179 446 -210 q 466 -131 446 -148 q 524 -113 487 -113 q 582 -131 562 -113 q 603 -179 603 -148 q 582 -227 603 -210 q 524 -244 562 -244 z "},"Ù":{"ha":1046,"x_min":121,"x_max":926,"o":"m 524 -13 q 219 88 317 -13 q 121 403 121 188 l 121 1028 l 236 1028 l 236 390 q 306 158 236 231 q 524 86 376 86 q 743 158 673 86 q 813 390 813 231 l 813 1028 l 926 1028 l 926 403 q 883 167 926 259 q 751 31 840 76 q 524 -13 663 -13 m 471 1117 l 313 1314 l 439 1314 l 578 1117 l 471 1117 z "},"Ủ":{"ha":1046,"x_min":121,"x_max":926,"o":"m 524 -13 q 219 88 317 -13 q 121 403 121 188 l 121 1028 l 236 1028 l 236 390 q 306 158 236 231 q 524 86 376 86 q 743 158 673 86 q 813 390 813 231 l 813 1028 l 926 1028 l 926 403 q 883 167 926 259 q 751 31 840 76 q 524 -13 663 -13 m 488 1117 q 509 1161 490 1146 q 563 1191 528 1176 q 599 1210 588 1202 q 610 1231 610 1217 q 591 1255 610 1247 q 526 1264 572 1264 q 455 1259 488 1264 q 384 1242 422 1253 l 384 1297 q 533 1319 447 1319 q 644 1297 608 1319 q 680 1237 680 1276 q 663 1194 680 1209 q 613 1165 646 1179 q 574 1143 588 1153 q 559 1117 561 1133 l 488 1117 z "},"Ư":{"ha":1047,"x_min":121,"x_max":1083,"o":"m 524 -13 q 219 88 317 -13 q 121 403 121 188 l 121 1028 l 236 1028 l 236 390 q 306 158 236 231 q 524 86 376 86 q 743 158 673 86 q 813 390 813 231 l 813 1028 l 854 1028 q 961 1053 925 1028 q 997 1135 997 1079 q 993 1183 997 1161 q 981 1233 990 1206 l 1067 1233 q 1080 1184 1076 1208 q 1083 1131 1083 1160 q 1042 1017 1083 1059 q 926 966 1001 974 l 926 403 q 883 167 926 259 q 751 31 840 76 q 524 -13 663 -13 z "},"Ứ":{"ha":1047,"x_min":121,"x_max":1083,"o":"m 524 -13 q 219 88 317 -13 q 121 403 121 188 l 121 1028 l 236 1028 l 236 390 q 306 158 236 231 q 524 86 376 86 q 743 158 673 86 q 813 390 813 231 l 813 1028 l 854 1028 q 961 1053 925 1028 q 997 1135 997 1079 q 993 1183 997 1161 q 981 1233 990 1206 l 1067 1233 q 1080 1184 1076 1208 q 1083 1131 1083 1160 q 1042 1017 1083 1059 q 926 966 1001 974 l 926 403 q 883 167 926 259 q 751 31 840 76 q 524 -13 663 -13 m 470 1117 l 609 1314 l 735 1314 l 576 1117 l 470 1117 z "},"Ự":{"ha":1047,"x_min":121,"x_max":1083,"o":"m 524 -13 q 219 88 317 -13 q 121 403 121 188 l 121 1028 l 236 1028 l 236 390 q 306 158 236 231 q 524 86 376 86 q 743 158 673 86 q 813 390 813 231 l 813 1028 l 854 1028 q 961 1053 925 1028 q 997 1135 997 1079 q 993 1183 997 1161 q 981 1233 990 1206 l 1067 1233 q 1080 1184 1076 1208 q 1083 1131 1083 1160 q 1042 1017 1083 1059 q 926 966 1001 974 l 926 403 q 883 167 926 259 q 751 31 840 76 q 524 -13 663 -13 m 524 -244 q 466 -227 486 -244 q 445 -179 445 -210 q 466 -131 445 -148 q 524 -113 486 -113 q 582 -131 561 -113 q 602 -179 602 -148 q 582 -227 602 -210 q 524 -244 561 -244 z "},"Ừ":{"ha":1047,"x_min":121,"x_max":1083,"o":"m 524 -13 q 219 88 317 -13 q 121 403 121 188 l 121 1028 l 236 1028 l 236 390 q 306 158 236 231 q 524 86 376 86 q 743 158 673 86 q 813 390 813 231 l 813 1028 l 854 1028 q 961 1053 925 1028 q 997 1135 997 1079 q 993 1183 997 1161 q 981 1233 990 1206 l 1067 1233 q 1080 1184 1076 1208 q 1083 1131 1083 1160 q 1042 1017 1083 1059 q 926 966 1001 974 l 926 403 q 883 167 926 259 q 751 31 840 76 q 524 -13 663 -13 m 470 1117 l 313 1314 l 438 1314 l 577 1117 l 470 1117 z "},"Ử":{"ha":1047,"x_min":121,"x_max":1083,"o":"m 524 -13 q 219 88 317 -13 q 121 403 121 188 l 121 1028 l 236 1028 l 236 390 q 306 158 236 231 q 524 86 376 86 q 743 158 673 86 q 813 390 813 231 l 813 1028 l 854 1028 q 961 1053 925 1028 q 997 1135 997 1079 q 993 1183 997 1161 q 981 1233 990 1206 l 1067 1233 q 1080 1184 1076 1208 q 1083 1131 1083 1160 q 1042 1017 1083 1059 q 926 966 1001 974 l 926 403 q 883 167 926 259 q 751 31 840 76 q 524 -13 663 -13 m 488 1117 q 509 1161 490 1146 q 563 1191 528 1176 q 599 1210 588 1202 q 610 1231 610 1217 q 591 1255 610 1247 q 526 1264 572 1264 q 454 1259 487 1264 q 383 1242 422 1253 l 383 1297 q 532 1319 446 1319 q 643 1297 607 1319 q 679 1237 679 1276 q 662 1194 679 1209 q 613 1165 645 1179 q 574 1143 587 1153 q 558 1117 560 1133 l 488 1117 z "},"Ữ":{"ha":1047,"x_min":121,"x_max":1083,"o":"m 524 -13 q 219 88 317 -13 q 121 403 121 188 l 121 1028 l 236 1028 l 236 390 q 306 158 236 231 q 524 86 376 86 q 743 158 673 86 q 813 390 813 231 l 813 1028 l 854 1028 q 961 1053 925 1028 q 997 1135 997 1079 q 993 1183 997 1161 q 981 1233 990 1206 l 1067 1233 q 1080 1184 1076 1208 q 1083 1131 1083 1160 q 1042 1017 1083 1059 q 926 966 1001 974 l 926 403 q 883 167 926 259 q 751 31 840 76 q 524 -13 663 -13 m 637 1158 q 578 1165 606 1158 q 513 1186 550 1172 q 456 1205 478 1199 q 409 1210 433 1210 q 340 1199 370 1210 q 283 1162 310 1187 l 283 1239 q 337 1273 306 1262 q 410 1284 368 1284 q 469 1277 442 1284 q 535 1256 497 1270 q 592 1238 569 1244 q 638 1232 615 1232 q 707 1243 678 1232 q 765 1281 737 1255 l 765 1203 q 710 1169 742 1181 q 637 1158 679 1158 z "},"Ű":{"ha":1046,"x_min":121,"x_max":926,"o":"m 524 -13 q 219 88 317 -13 q 121 403 121 188 l 121 1028 l 236 1028 l 236 390 q 306 158 236 231 q 524 86 376 86 q 743 158 673 86 q 813 390 813 231 l 813 1028 l 926 1028 l 926 403 q 883 167 926 259 q 751 31 840 76 q 524 -13 663 -13 m 355 1117 l 456 1314 l 553 1314 l 446 1117 l 355 1117 m 603 1117 l 704 1314 l 802 1314 l 694 1117 l 603 1117 z "},"Ȗ":{"ha":1046,"x_min":121,"x_max":926,"o":"m 524 -13 q 219 88 317 -13 q 121 403 121 188 l 121 1028 l 236 1028 l 236 390 q 306 158 236 231 q 524 86 376 86 q 743 158 673 86 q 813 390 813 231 l 813 1028 l 926 1028 l 926 403 q 883 167 926 259 q 751 31 840 76 q 524 -13 663 -13 m 288 1131 q 355 1260 297 1213 q 524 1308 414 1308 q 692 1260 633 1308 q 761 1131 752 1212 l 683 1131 q 637 1213 674 1185 q 524 1240 600 1240 q 410 1213 447 1240 q 365 1131 374 1185 l 288 1131 z "},"Ū":{"ha":1046,"x_min":121,"x_max":926,"o":"m 524 -13 q 219 88 317 -13 q 121 403 121 188 l 121 1028 l 236 1028 l 236 390 q 306 158 236 231 q 524 86 376 86 q 743 158 673 86 q 813 390 813 231 l 813 1028 l 926 1028 l 926 403 q 883 167 926 259 q 751 31 840 76 q 524 -13 663 -13 m 301 1177 l 301 1253 l 748 1253 l 748 1177 l 301 1177 z "},"Ṻ":{"ha":1046,"x_min":121,"x_max":926,"o":"m 524 -13 q 219 88 317 -13 q 121 403 121 188 l 121 1028 l 236 1028 l 236 390 q 306 158 236 231 q 524 86 376 86 q 743 158 673 86 q 813 390 813 231 l 813 1028 l 926 1028 l 926 403 q 883 167 926 259 q 751 31 840 76 q 524 -13 663 -13 m 301 1177 l 301 1253 l 748 1253 l 748 1177 l 301 1177 m 348 1342 q 295 1359 314 1342 q 276 1406 276 1376 q 295 1455 276 1437 q 348 1472 314 1472 q 401 1455 382 1472 q 420 1406 420 1437 q 401 1359 420 1376 q 348 1342 382 1342 m 701 1342 q 648 1359 667 1342 q 628 1406 628 1376 q 648 1455 628 1437 q 701 1472 667 1472 q 754 1455 735 1472 q 773 1406 773 1437 q 754 1359 773 1376 q 701 1342 735 1342 z "},"Ų":{"ha":1046,"x_min":121,"x_max":926,"o":"m 926 1028 l 926 403 q 867 138 926 235 q 684 6 808 41 q 539 -62 583 -22 q 495 -151 495 -101 q 522 -211 495 -190 q 600 -231 548 -231 q 655 -225 627 -231 q 719 -205 682 -219 l 719 -262 q 590 -287 653 -287 q 465 -253 508 -287 q 422 -156 422 -219 q 515 -13 422 -67 q 217 90 313 -11 q 121 403 121 190 l 121 1028 l 236 1028 l 236 390 q 306 158 236 231 q 524 86 376 86 q 743 158 673 86 q 813 390 813 231 l 813 1028 l 926 1028 z "},"Ů":{"ha":1046,"x_min":121,"x_max":926,"o":"m 524 -13 q 219 88 317 -13 q 121 403 121 188 l 121 1028 l 236 1028 l 236 390 q 306 158 236 231 q 524 86 376 86 q 743 158 673 86 q 813 390 813 231 l 813 1028 l 926 1028 l 926 403 q 883 167 926 259 q 751 31 840 76 q 524 -13 663 -13 m 524 1112 q 455 1129 485 1112 q 406 1177 424 1147 q 388 1246 388 1208 q 406 1315 388 1284 q 455 1363 424 1346 q 524 1381 485 1381 q 594 1363 563 1381 q 643 1315 625 1346 q 660 1246 660 1284 q 643 1177 660 1208 q 594 1129 625 1147 q 524 1112 563 1112 m 524 1164 q 583 1186 560 1164 q 605 1246 605 1208 q 583 1306 605 1284 q 524 1328 560 1328 q 466 1306 488 1328 q 444 1246 444 1284 q 466 1186 444 1208 q 524 1164 488 1164 z "},"Ũ":{"ha":1046,"x_min":121,"x_max":926,"o":"m 524 -13 q 219 88 317 -13 q 121 403 121 188 l 121 1028 l 236 1028 l 236 390 q 306 158 236 231 q 524 86 376 86 q 743 158 673 86 q 813 390 813 231 l 813 1028 l 926 1028 l 926 403 q 883 167 926 259 q 751 31 840 76 q 524 -13 663 -13 m 638 1158 q 578 1165 606 1158 q 513 1186 551 1172 q 456 1205 479 1199 q 410 1210 433 1210 q 341 1199 371 1210 q 283 1162 311 1187 l 283 1239 q 338 1273 306 1262 q 411 1284 369 1284 q 470 1277 442 1284 q 535 1256 498 1270 q 592 1238 569 1244 q 639 1232 615 1232 q 708 1243 678 1232 q 765 1281 738 1255 l 765 1203 q 711 1169 742 1181 q 638 1158 680 1158 z "},"Ṹ":{"ha":1046,"x_min":121,"x_max":926,"o":"m 524 -13 q 219 88 317 -13 q 121 403 121 188 l 121 1028 l 236 1028 l 236 390 q 306 158 236 231 q 524 86 376 86 q 743 158 673 86 q 813 390 813 231 l 813 1028 l 926 1028 l 926 403 q 883 167 926 259 q 751 31 840 76 q 524 -13 663 -13 m 467 1327 l 605 1488 l 740 1488 l 583 1327 l 467 1327 m 638 1158 q 578 1165 606 1158 q 513 1186 551 1172 q 456 1205 479 1199 q 410 1210 433 1210 q 341 1199 371 1210 q 283 1162 311 1187 l 283 1239 q 338 1273 306 1262 q 411 1284 369 1284 q 470 1277 442 1284 q 535 1256 498 1270 q 592 1238 569 1244 q 639 1232 615 1232 q 708 1243 678 1232 q 765 1281 738 1255 l 765 1203 q 711 1169 742 1181 q 638 1158 680 1158 z "},"V":{"ha":967,"x_min":10,"x_max":956,"o":"m 842 1028 l 956 1028 l 567 0 l 399 0 l 10 1028 l 133 1028 l 487 87 l 842 1028 z "},"W":{"ha":1559,"x_min":42,"x_max":1516,"o":"m 1404 1028 l 1516 1028 l 1208 0 l 1057 0 l 781 905 l 502 0 l 351 0 l 42 1028 l 161 1028 l 433 103 l 714 1028 l 850 1028 l 1130 100 l 1404 1028 z "},"Ẃ":{"ha":1559,"x_min":42,"x_max":1516,"o":"m 1404 1028 l 1516 1028 l 1208 0 l 1057 0 l 781 905 l 502 0 l 351 0 l 42 1028 l 161 1028 l 433 103 l 714 1028 l 850 1028 l 1130 100 l 1404 1028 m 727 1117 l 866 1314 l 992 1314 l 833 1117 l 727 1117 z "},"Ŵ":{"ha":1559,"x_min":42,"x_max":1516,"o":"m 1404 1028 l 1516 1028 l 1208 0 l 1057 0 l 781 905 l 502 0 l 351 0 l 42 1028 l 161 1028 l 433 103 l 714 1028 l 850 1028 l 1130 100 l 1404 1028 m 1019 1117 l 916 1117 l 781 1263 l 645 1117 l 542 1117 l 728 1314 l 833 1314 l 1019 1117 z "},"Ẅ":{"ha":1559,"x_min":42,"x_max":1516,"o":"m 1404 1028 l 1516 1028 l 1208 0 l 1057 0 l 781 905 l 502 0 l 351 0 l 42 1028 l 161 1028 l 433 103 l 714 1028 l 850 1028 l 1130 100 l 1404 1028 m 604 1151 q 551 1168 570 1151 q 532 1216 532 1185 q 551 1264 532 1247 q 604 1282 570 1282 q 657 1264 638 1282 q 676 1216 676 1247 q 657 1168 676 1185 q 604 1151 638 1151 m 957 1151 q 904 1168 923 1151 q 885 1216 885 1185 q 904 1264 885 1247 q 957 1282 923 1282 q 1010 1264 991 1282 q 1029 1216 1029 1247 q 1010 1168 1029 1185 q 957 1151 991 1151 z "},"Ẁ":{"ha":1559,"x_min":42,"x_max":1516,"o":"m 1404 1028 l 1516 1028 l 1208 0 l 1057 0 l 781 905 l 502 0 l 351 0 l 42 1028 l 161 1028 l 433 103 l 714 1028 l 850 1028 l 1130 100 l 1404 1028 m 727 1117 l 569 1314 l 695 1314 l 834 1117 l 727 1117 z "},"X":{"ha":940,"x_min":8,"x_max":931,"o":"m 538 526 l 931 0 l 797 0 l 468 438 l 140 0 l 8 0 l 400 524 l 22 1028 l 156 1028 l 470 611 l 785 1028 l 915 1028 l 538 526 z "},"Y":{"ha":865,"x_min":-21,"x_max":878,"o":"m 878 1028 l 490 456 l 490 0 l 375 0 l 375 456 l -21 1028 l 108 1028 l 435 556 l 758 1028 l 878 1028 z "},"Ý":{"ha":865,"x_min":-21,"x_max":878,"o":"m 878 1028 l 490 456 l 490 0 l 375 0 l 375 456 l -21 1028 l 108 1028 l 435 556 l 758 1028 l 878 1028 m 378 1117 l 517 1314 l 643 1314 l 485 1117 l 378 1117 z "},"Ŷ":{"ha":865,"x_min":-21,"x_max":878,"o":"m 878 1028 l 490 456 l 490 0 l 375 0 l 375 456 l -21 1028 l 108 1028 l 435 556 l 758 1028 l 878 1028 m 671 1117 l 567 1117 l 432 1263 l 297 1117 l 193 1117 l 380 1314 l 484 1314 l 671 1117 z "},"Ÿ":{"ha":865,"x_min":-21,"x_max":878,"o":"m 878 1028 l 490 456 l 490 0 l 375 0 l 375 456 l -21 1028 l 108 1028 l 435 556 l 758 1028 l 878 1028 m 256 1151 q 202 1168 222 1151 q 183 1216 183 1185 q 202 1264 183 1247 q 256 1282 222 1282 q 309 1264 290 1282 q 328 1216 328 1247 q 309 1168 328 1185 q 256 1151 290 1151 m 608 1151 q 555 1168 574 1151 q 536 1216 536 1185 q 555 1264 536 1247 q 608 1282 574 1282 q 661 1264 642 1282 q 681 1216 681 1247 q 661 1168 681 1185 q 608 1151 642 1151 z "},"Ẏ":{"ha":865,"x_min":-21,"x_max":878,"o":"m 878 1028 l 490 456 l 490 0 l 375 0 l 375 456 l -21 1028 l 108 1028 l 435 556 l 758 1028 l 878 1028 m 432 1151 q 374 1168 394 1151 q 353 1216 353 1185 q 374 1265 353 1247 q 432 1282 394 1282 q 490 1265 469 1282 q 510 1216 510 1247 q 490 1168 510 1185 q 432 1151 469 1151 z "},"Ỵ":{"ha":865,"x_min":-21,"x_max":878,"o":"m 878 1028 l 490 456 l 490 0 l 375 0 l 375 456 l -21 1028 l 108 1028 l 435 556 l 758 1028 l 878 1028 m 432 -244 q 374 -227 394 -244 q 353 -179 353 -210 q 374 -131 353 -148 q 432 -113 394 -113 q 490 -131 469 -113 q 510 -179 510 -148 q 490 -227 510 -210 q 432 -244 469 -244 z "},"Ỳ":{"ha":865,"x_min":-21,"x_max":878,"o":"m 878 1028 l 490 456 l 490 0 l 375 0 l 375 456 l -21 1028 l 108 1028 l 435 556 l 758 1028 l 878 1028 m 378 1117 l 221 1314 l 347 1314 l 485 1117 l 378 1117 z "},"Ỷ":{"ha":865,"x_min":-21,"x_max":878,"o":"m 878 1028 l 490 456 l 490 0 l 375 0 l 375 456 l -21 1028 l 108 1028 l 435 556 l 758 1028 l 878 1028 m 396 1117 q 417 1161 398 1146 q 471 1191 436 1176 q 507 1210 496 1202 q 518 1231 518 1217 q 499 1255 518 1247 q 434 1264 480 1264 q 363 1259 395 1264 q 292 1242 330 1253 l 292 1297 q 440 1319 354 1319 q 551 1297 515 1319 q 588 1237 588 1276 q 570 1194 588 1209 q 521 1165 553 1179 q 482 1143 495 1153 q 467 1117 469 1133 l 396 1117 z "},"Ȳ":{"ha":865,"x_min":-21,"x_max":878,"o":"m 878 1028 l 490 456 l 490 0 l 375 0 l 375 456 l -21 1028 l 108 1028 l 435 556 l 758 1028 l 878 1028 m 208 1177 l 208 1253 l 656 1253 l 656 1177 l 208 1177 z "},"Ỹ":{"ha":865,"x_min":-21,"x_max":878,"o":"m 878 1028 l 490 456 l 490 0 l 375 0 l 375 456 l -21 1028 l 108 1028 l 435 556 l 758 1028 l 878 1028 m 545 1158 q 486 1165 514 1158 q 421 1186 458 1172 q 364 1205 387 1199 q 317 1210 341 1210 q 249 1199 278 1210 q 191 1162 219 1187 l 191 1239 q 245 1273 214 1262 q 319 1284 276 1284 q 378 1277 350 1284 q 443 1256 406 1270 q 500 1238 477 1244 q 547 1232 523 1232 q 616 1243 586 1232 q 673 1281 645 1255 l 673 1203 q 619 1169 650 1181 q 545 1158 588 1158 z "},"Z":{"ha":856,"x_min":45,"x_max":810,"o":"m 199 99 l 810 99 l 810 0 l 45 0 l 45 65 l 648 929 l 54 929 l 54 1028 l 801 1028 l 801 963 l 199 99 z "},"Ź":{"ha":856,"x_min":45,"x_max":810,"o":"m 199 99 l 810 99 l 810 0 l 45 0 l 45 65 l 648 929 l 54 929 l 54 1028 l 801 1028 l 801 963 l 199 99 m 374 1117 l 513 1314 l 639 1314 l 481 1117 l 374 1117 z "},"Ž":{"ha":856,"x_min":45,"x_max":810,"o":"m 199 99 l 810 99 l 810 0 l 45 0 l 45 65 l 648 929 l 54 929 l 54 1028 l 801 1028 l 801 963 l 199 99 m 563 1314 l 667 1314 l 480 1117 l 376 1117 l 189 1314 l 292 1314 l 428 1167 l 563 1314 z "},"Ż":{"ha":856,"x_min":45,"x_max":810,"o":"m 199 99 l 810 99 l 810 0 l 45 0 l 45 65 l 648 929 l 54 929 l 54 1028 l 801 1028 l 801 963 l 199 99 m 428 1151 q 370 1168 390 1151 q 349 1216 349 1185 q 370 1265 349 1247 q 428 1282 390 1282 q 486 1265 465 1282 q 506 1216 506 1247 q 486 1168 506 1185 q 428 1151 465 1151 z "},"Ẓ":{"ha":856,"x_min":45,"x_max":810,"o":"m 199 99 l 810 99 l 810 0 l 45 0 l 45 65 l 648 929 l 54 929 l 54 1028 l 801 1028 l 801 963 l 199 99 m 427 -244 q 369 -227 390 -244 q 349 -179 349 -210 q 369 -131 349 -148 q 427 -113 390 -113 q 485 -131 465 -113 q 506 -179 506 -148 q 485 -227 506 -210 q 427 -244 465 -244 z "},"a":{"ha":761,"x_min":72,"x_max":657,"o":"m 353 765 q 523 739 456 765 q 623 653 590 713 q 657 490 657 592 l 657 0 l 562 0 l 553 85 l 546 85 q 444 14 507 40 q 312 -12 382 -12 q 183 13 237 -12 q 101 84 129 38 q 72 194 72 131 q 140 347 72 292 q 358 416 208 401 l 545 436 l 545 494 q 523 602 545 563 q 455 657 500 641 q 339 673 410 673 q 232 664 289 673 q 122 638 175 656 l 122 730 q 233 756 171 747 q 353 765 294 765 m 340 75 q 450 98 397 75 q 545 165 503 120 l 545 360 l 365 341 q 229 297 271 330 q 188 203 188 264 q 226 108 188 142 q 340 75 264 75 z "},"á":{"ha":761,"x_min":72,"x_max":657,"o":"m 353 765 q 523 739 456 765 q 623 653 590 713 q 657 490 657 592 l 657 0 l 562 0 l 553 85 l 546 85 q 444 14 507 40 q 312 -12 382 -12 q 183 13 237 -12 q 101 84 129 38 q 72 194 72 131 q 140 347 72 292 q 358 416 208 401 l 545 436 l 545 494 q 523 602 545 563 q 455 657 500 641 q 339 673 410 673 q 232 664 289 673 q 122 638 175 656 l 122 730 q 233 756 171 747 q 353 765 294 765 m 340 75 q 450 98 397 75 q 545 165 503 120 l 545 360 l 365 341 q 229 297 271 330 q 188 203 188 264 q 226 108 188 142 q 340 75 264 75 m 324 869 l 494 1122 l 619 1122 l 433 869 l 324 869 z "},"ă":{"ha":761,"x_min":72,"x_max":657,"o":"m 353 765 q 523 739 456 765 q 623 653 590 713 q 657 490 657 592 l 657 0 l 562 0 l 553 85 l 546 85 q 444 14 507 40 q 312 -12 382 -12 q 183 13 237 -12 q 101 84 129 38 q 72 194 72 131 q 140 347 72 292 q 358 416 208 401 l 545 436 l 545 494 q 523 602 545 563 q 455 657 500 641 q 339 673 410 673 q 232 664 289 673 q 122 638 175 656 l 122 730 q 233 756 171 747 q 353 765 294 765 m 340 75 q 450 98 397 75 q 545 165 503 120 l 545 360 l 365 341 q 229 297 271 330 q 188 203 188 264 q 226 108 188 142 q 340 75 264 75 m 379 877 q 218 938 276 877 q 156 1104 160 998 l 233 1104 q 379 945 244 945 q 484 986 449 945 q 524 1104 519 1027 l 601 1104 q 539 937 597 997 q 379 877 482 877 z "},"ắ":{"ha":761,"x_min":72,"x_max":657,"o":"m 353 765 q 523 739 456 765 q 623 653 590 713 q 657 490 657 592 l 657 0 l 562 0 l 553 85 l 546 85 q 444 14 507 40 q 312 -12 382 -12 q 183 13 237 -12 q 101 84 129 38 q 72 194 72 131 q 140 347 72 292 q 358 416 208 401 l 545 436 l 545 494 q 523 602 545 563 q 455 657 500 641 q 339 673 410 673 q 232 664 289 673 q 122 638 175 656 l 122 730 q 233 756 171 747 q 353 765 294 765 m 340 75 q 450 98 397 75 q 545 165 503 120 l 545 360 l 365 341 q 229 297 271 330 q 188 203 188 264 q 226 108 188 142 q 340 75 264 75 m 333 1109 l 472 1297 l 581 1297 l 423 1109 l 333 1109 m 379 878 q 217 936 275 878 q 152 1095 159 995 l 230 1095 q 379 944 242 944 q 485 983 450 944 q 527 1095 521 1022 l 605 1095 q 541 936 598 994 q 379 878 483 878 z "},"ặ":{"ha":761,"x_min":72,"x_max":657,"o":"m 353 765 q 523 739 456 765 q 623 653 590 713 q 657 490 657 592 l 657 0 l 562 0 l 553 85 l 546 85 q 444 14 507 40 q 312 -12 382 -12 q 183 13 237 -12 q 101 84 129 38 q 72 194 72 131 q 140 347 72 292 q 358 416 208 401 l 545 436 l 545 494 q 523 602 545 563 q 455 657 500 641 q 339 673 410 673 q 232 664 289 673 q 122 638 175 656 l 122 730 q 233 756 171 747 q 353 765 294 765 m 340 75 q 450 98 397 75 q 545 165 503 120 l 545 360 l 365 341 q 229 297 271 330 q 188 203 188 264 q 226 108 188 142 q 340 75 264 75 m 389 -251 q 336 -232 355 -251 q 317 -182 317 -214 q 336 -132 317 -151 q 389 -113 356 -113 q 442 -132 422 -113 q 461 -182 461 -151 q 442 -232 461 -214 q 389 -251 423 -251 m 379 877 q 218 938 276 877 q 156 1104 160 998 l 233 1104 q 379 945 244 945 q 484 986 449 945 q 524 1104 519 1027 l 601 1104 q 539 937 597 997 q 379 877 482 877 z "},"ằ":{"ha":761,"x_min":72,"x_max":657,"o":"m 353 765 q 523 739 456 765 q 623 653 590 713 q 657 490 657 592 l 657 0 l 562 0 l 553 85 l 546 85 q 444 14 507 40 q 312 -12 382 -12 q 183 13 237 -12 q 101 84 129 38 q 72 194 72 131 q 140 347 72 292 q 358 416 208 401 l 545 436 l 545 494 q 523 602 545 563 q 455 657 500 641 q 339 673 410 673 q 232 664 289 673 q 122 638 175 656 l 122 730 q 233 756 171 747 q 353 765 294 765 m 340 75 q 450 98 397 75 q 545 165 503 120 l 545 360 l 365 341 q 229 297 271 330 q 188 203 188 264 q 226 108 188 142 q 340 75 264 75 m 334 1109 l 176 1297 l 285 1297 l 424 1109 l 334 1109 m 379 878 q 217 936 275 878 q 152 1095 159 995 l 230 1095 q 379 944 242 944 q 485 983 450 944 q 527 1095 521 1022 l 605 1095 q 541 936 598 994 q 379 878 483 878 z "},"ẳ":{"ha":761,"x_min":72,"x_max":657,"o":"m 353 765 q 523 739 456 765 q 623 653 590 713 q 657 490 657 592 l 657 0 l 562 0 l 553 85 l 546 85 q 444 14 507 40 q 312 -12 382 -12 q 183 13 237 -12 q 101 84 129 38 q 72 194 72 131 q 140 347 72 292 q 358 416 208 401 l 545 436 l 545 494 q 523 602 545 563 q 455 657 500 641 q 339 673 410 673 q 232 664 289 673 q 122 638 175 656 l 122 730 q 233 756 171 747 q 353 765 294 765 m 340 75 q 450 98 397 75 q 545 165 503 120 l 545 360 l 365 341 q 229 297 271 330 q 188 203 188 264 q 226 108 188 142 q 340 75 264 75 m 342 1109 q 355 1142 344 1128 q 379 1163 365 1156 q 417 1181 393 1171 q 452 1198 440 1190 q 465 1219 465 1206 q 445 1242 465 1234 q 381 1251 426 1251 q 309 1246 342 1251 q 238 1229 276 1241 l 238 1280 q 387 1302 301 1302 q 498 1281 462 1302 q 534 1224 534 1260 q 525 1192 534 1205 q 502 1172 515 1179 q 467 1155 490 1165 q 428 1134 440 1143 q 413 1109 415 1125 l 342 1109 m 379 878 q 217 936 275 878 q 152 1095 159 995 l 230 1095 q 379 944 242 944 q 485 983 450 944 q 527 1095 521 1022 l 605 1095 q 541 936 598 994 q 379 878 483 878 z "},"ẵ":{"ha":761,"x_min":72,"x_max":657,"o":"m 353 765 q 523 739 456 765 q 623 653 590 713 q 657 490 657 592 l 657 0 l 562 0 l 553 85 l 546 85 q 444 14 507 40 q 312 -12 382 -12 q 183 13 237 -12 q 101 84 129 38 q 72 194 72 131 q 140 347 72 292 q 358 416 208 401 l 545 436 l 545 494 q 523 602 545 563 q 455 657 500 641 q 339 673 410 673 q 232 664 289 673 q 122 638 175 656 l 122 730 q 233 756 171 747 q 353 765 294 765 m 340 75 q 450 98 397 75 q 545 165 503 120 l 545 360 l 365 341 q 229 297 271 330 q 188 203 188 264 q 226 108 188 142 q 340 75 264 75 m 488 1149 q 433 1156 458 1149 q 367 1176 407 1163 q 313 1193 335 1188 q 267 1199 290 1199 q 201 1188 231 1199 q 144 1152 172 1176 l 144 1224 q 269 1267 190 1267 q 324 1260 299 1267 q 390 1240 350 1253 q 444 1223 422 1228 q 490 1217 467 1217 q 556 1228 526 1217 q 613 1263 585 1239 l 613 1192 q 488 1149 567 1149 m 379 878 q 217 936 275 878 q 152 1095 159 995 l 230 1095 q 379 944 242 944 q 485 983 450 944 q 527 1095 521 1022 l 605 1095 q 541 936 598 994 q 379 878 483 878 z "},"â":{"ha":761,"x_min":72,"x_max":657,"o":"m 353 765 q 523 739 456 765 q 623 653 590 713 q 657 490 657 592 l 657 0 l 562 0 l 553 85 l 546 85 q 444 14 507 40 q 312 -12 382 -12 q 183 13 237 -12 q 101 84 129 38 q 72 194 72 131 q 140 347 72 292 q 358 416 208 401 l 545 436 l 545 494 q 523 602 545 563 q 455 657 500 641 q 339 673 410 673 q 232 664 289 673 q 122 638 175 656 l 122 730 q 233 756 171 747 q 353 765 294 765 m 340 75 q 450 98 397 75 q 545 165 503 120 l 545 360 l 365 341 q 229 297 271 330 q 188 203 188 264 q 226 108 188 142 q 340 75 264 75 m 599 869 l 506 869 l 378 1063 l 251 869 l 158 869 l 328 1122 l 429 1122 l 599 869 z "},"ấ":{"ha":761,"x_min":72,"x_max":781,"o":"m 353 765 q 523 739 456 765 q 623 653 590 713 q 657 490 657 592 l 657 0 l 562 0 l 553 85 l 546 85 q 444 14 507 40 q 312 -12 382 -12 q 183 13 237 -12 q 101 84 129 38 q 72 194 72 131 q 140 347 72 292 q 358 416 208 401 l 545 436 l 545 494 q 523 602 545 563 q 455 657 500 641 q 339 673 410 673 q 232 664 289 673 q 122 638 175 656 l 122 730 q 233 756 171 747 q 353 765 294 765 m 340 75 q 450 98 397 75 q 545 165 503 120 l 545 360 l 365 341 q 229 297 271 330 q 188 203 188 264 q 226 108 188 142 q 340 75 264 75 m 672 1297 l 781 1297 l 622 1109 l 533 1109 l 672 1297 m 328 1122 l 429 1122 l 599 869 l 506 869 l 378 1063 l 251 869 l 158 869 l 328 1122 z "},"ậ":{"ha":761,"x_min":72,"x_max":657,"o":"m 353 765 q 523 739 456 765 q 623 653 590 713 q 657 490 657 592 l 657 0 l 562 0 l 553 85 l 546 85 q 444 14 507 40 q 312 -12 382 -12 q 183 13 237 -12 q 101 84 129 38 q 72 194 72 131 q 140 347 72 292 q 358 416 208 401 l 545 436 l 545 494 q 523 602 545 563 q 455 657 500 641 q 339 673 410 673 q 232 664 289 673 q 122 638 175 656 l 122 730 q 233 756 171 747 q 353 765 294 765 m 340 75 q 450 98 397 75 q 545 165 503 120 l 545 360 l 365 341 q 229 297 271 330 q 188 203 188 264 q 226 108 188 142 q 340 75 264 75 m 389 -251 q 336 -232 355 -251 q 317 -182 317 -214 q 336 -132 317 -151 q 389 -113 356 -113 q 442 -132 422 -113 q 461 -182 461 -151 q 442 -232 461 -214 q 389 -251 423 -251 m 599 869 l 506 869 l 378 1063 l 251 869 l 158 869 l 328 1122 l 429 1122 l 599 869 z "},"ầ":{"ha":761,"x_min":72,"x_max":657,"o":"m 353 765 q 523 739 456 765 q 623 653 590 713 q 657 490 657 592 l 657 0 l 562 0 l 553 85 l 546 85 q 444 14 507 40 q 312 -12 382 -12 q 183 13 237 -12 q 101 84 129 38 q 72 194 72 131 q 140 347 72 292 q 358 416 208 401 l 545 436 l 545 494 q 523 602 545 563 q 455 657 500 641 q 339 673 410 673 q 232 664 289 673 q 122 638 175 656 l 122 730 q 233 756 171 747 q 353 765 294 765 m 340 75 q 450 98 397 75 q 545 165 503 120 l 545 360 l 365 341 q 229 297 271 330 q 188 203 188 264 q 226 108 188 142 q 340 75 264 75 m 641 1109 l 551 1109 l 394 1297 l 502 1297 l 641 1109 m 328 1122 l 429 1122 l 599 869 l 506 869 l 378 1063 l 251 869 l 158 869 l 328 1122 z "},"ẩ":{"ha":761,"x_min":72,"x_max":720,"o":"m 353 765 q 523 739 456 765 q 623 653 590 713 q 657 490 657 592 l 657 0 l 562 0 l 553 85 l 546 85 q 444 14 507 40 q 312 -12 382 -12 q 183 13 237 -12 q 101 84 129 38 q 72 194 72 131 q 140 347 72 292 q 358 416 208 401 l 545 436 l 545 494 q 523 602 545 563 q 455 657 500 641 q 339 673 410 673 q 232 664 289 673 q 122 638 175 656 l 122 730 q 233 756 171 747 q 353 765 294 765 m 340 75 q 450 98 397 75 q 545 165 503 120 l 545 360 l 365 341 q 229 297 271 330 q 188 203 188 264 q 226 108 188 142 q 340 75 264 75 m 577 1302 q 685 1282 650 1302 q 720 1224 720 1262 q 705 1185 720 1199 q 657 1158 689 1172 q 617 1136 631 1146 q 602 1109 604 1126 l 534 1109 q 546 1143 535 1129 q 571 1164 557 1156 q 608 1182 585 1172 q 642 1199 631 1191 q 653 1219 653 1206 q 634 1243 653 1235 q 571 1251 615 1251 q 500 1246 533 1251 q 431 1230 467 1241 l 431 1280 q 498 1296 460 1290 q 577 1302 535 1302 m 328 1122 l 429 1122 l 599 869 l 506 869 l 378 1063 l 251 869 l 158 869 l 328 1122 z "},"ẫ":{"ha":761,"x_min":72,"x_max":657,"o":"m 353 765 q 523 739 456 765 q 623 653 590 713 q 657 490 657 592 l 657 0 l 562 0 l 553 85 l 546 85 q 444 14 507 40 q 312 -12 382 -12 q 183 13 237 -12 q 101 84 129 38 q 72 194 72 131 q 140 347 72 292 q 358 416 208 401 l 545 436 l 545 494 q 523 602 545 563 q 455 657 500 641 q 339 673 410 673 q 232 664 289 673 q 122 638 175 656 l 122 730 q 233 756 171 747 q 353 765 294 765 m 340 75 q 450 98 397 75 q 545 165 503 120 l 545 360 l 365 341 q 229 297 271 330 q 188 203 188 264 q 226 108 188 142 q 340 75 264 75 m 488 1217 q 553 1228 524 1217 q 610 1263 583 1239 l 610 1192 q 486 1149 565 1149 q 432 1156 457 1149 q 367 1176 407 1162 q 314 1193 336 1188 q 269 1199 291 1199 q 204 1188 233 1199 q 147 1152 175 1176 l 147 1224 q 271 1267 192 1267 q 325 1260 300 1267 q 390 1240 350 1254 q 443 1223 421 1228 q 488 1217 466 1217 m 326 1108 l 431 1108 l 606 870 l 508 870 l 378 1055 l 249 870 l 151 870 l 326 1108 z "},"ȁ":{"ha":761,"x_min":72,"x_max":657,"o":"m 353 765 q 523 739 456 765 q 623 653 590 713 q 657 490 657 592 l 657 0 l 562 0 l 553 85 l 546 85 q 444 14 507 40 q 312 -12 382 -12 q 183 13 237 -12 q 101 84 129 38 q 72 194 72 131 q 140 347 72 292 q 358 416 208 401 l 545 436 l 545 494 q 523 602 545 563 q 455 657 500 641 q 339 673 410 673 q 232 664 289 673 q 122 638 175 656 l 122 730 q 233 756 171 747 q 353 765 294 765 m 340 75 q 450 98 397 75 q 545 165 503 120 l 545 360 l 365 341 q 229 297 271 330 q 188 203 188 264 q 226 108 188 142 q 340 75 264 75 m 209 869 l 89 1122 l 188 1122 l 300 869 l 209 869 m 457 869 l 337 1122 l 435 1122 l 548 869 l 457 869 z "},"ä":{"ha":761,"x_min":72,"x_max":657,"o":"m 353 765 q 523 739 456 765 q 623 653 590 713 q 657 490 657 592 l 657 0 l 562 0 l 553 85 l 546 85 q 444 14 507 40 q 312 -12 382 -12 q 183 13 237 -12 q 101 84 129 38 q 72 194 72 131 q 140 347 72 292 q 358 416 208 401 l 545 436 l 545 494 q 523 602 545 563 q 455 657 500 641 q 339 673 410 673 q 232 664 289 673 q 122 638 175 656 l 122 730 q 233 756 171 747 q 353 765 294 765 m 340 75 q 450 98 397 75 q 545 165 503 120 l 545 360 l 365 341 q 229 297 271 330 q 188 203 188 264 q 226 108 188 142 q 340 75 264 75 m 214 917 q 161 936 180 917 q 142 987 142 954 q 161 1038 142 1019 q 214 1057 180 1057 q 267 1038 248 1057 q 286 987 286 1019 q 267 936 286 954 q 214 917 248 917 m 543 917 q 490 936 509 917 q 471 987 471 954 q 490 1038 471 1019 q 543 1057 509 1057 q 596 1038 577 1057 q 615 987 615 1019 q 596 936 615 954 q 543 917 577 917 z "},"ạ":{"ha":761,"x_min":72,"x_max":657,"o":"m 353 765 q 523 739 456 765 q 623 653 590 713 q 657 490 657 592 l 657 0 l 562 0 l 553 85 l 546 85 q 444 14 507 40 q 312 -12 382 -12 q 183 13 237 -12 q 101 84 129 38 q 72 194 72 131 q 140 347 72 292 q 358 416 208 401 l 545 436 l 545 494 q 523 602 545 563 q 455 657 500 641 q 339 673 410 673 q 232 664 289 673 q 122 638 175 656 l 122 730 q 233 756 171 747 q 353 765 294 765 m 340 75 q 450 98 397 75 q 545 165 503 120 l 545 360 l 365 341 q 229 297 271 330 q 188 203 188 264 q 226 108 188 142 q 340 75 264 75 m 389 -251 q 336 -232 355 -251 q 317 -182 317 -214 q 336 -132 317 -151 q 389 -113 356 -113 q 442 -132 422 -113 q 461 -182 461 -151 q 442 -232 461 -214 q 389 -251 423 -251 z "},"à":{"ha":761,"x_min":72,"x_max":657,"o":"m 353 765 q 523 739 456 765 q 623 653 590 713 q 657 490 657 592 l 657 0 l 562 0 l 553 85 l 546 85 q 444 14 507 40 q 312 -12 382 -12 q 183 13 237 -12 q 101 84 129 38 q 72 194 72 131 q 140 347 72 292 q 358 416 208 401 l 545 436 l 545 494 q 523 602 545 563 q 455 657 500 641 q 339 673 410 673 q 232 664 289 673 q 122 638 175 656 l 122 730 q 233 756 171 747 q 353 765 294 765 m 340 75 q 450 98 397 75 q 545 165 503 120 l 545 360 l 365 341 q 229 297 271 330 q 188 203 188 264 q 226 108 188 142 q 340 75 264 75 m 324 869 l 138 1122 l 263 1122 l 433 869 l 324 869 z "},"ả":{"ha":761,"x_min":72,"x_max":657,"o":"m 353 765 q 523 739 456 765 q 623 653 590 713 q 657 490 657 592 l 657 0 l 562 0 l 553 85 l 546 85 q 444 14 507 40 q 312 -12 382 -12 q 183 13 237 -12 q 101 84 129 38 q 72 194 72 131 q 140 347 72 292 q 358 416 208 401 l 545 436 l 545 494 q 523 602 545 563 q 455 657 500 641 q 339 673 410 673 q 232 664 289 673 q 122 638 175 656 l 122 730 q 233 756 171 747 q 353 765 294 765 m 340 75 q 450 98 397 75 q 545 165 503 120 l 545 360 l 365 341 q 229 297 271 330 q 188 203 188 264 q 226 108 188 142 q 340 75 264 75 m 344 869 q 356 916 345 897 q 380 947 366 935 q 415 973 393 958 q 448 1000 438 988 q 459 1027 459 1011 q 438 1062 459 1051 q 373 1074 417 1074 q 258 1057 312 1074 l 258 1113 q 314 1126 282 1121 q 376 1131 347 1131 q 529 1033 529 1131 q 521 994 529 1010 q 501 967 513 978 q 469 944 490 957 q 429 910 443 926 q 413 869 415 895 l 344 869 z "},"ȃ":{"ha":761,"x_min":72,"x_max":657,"o":"m 353 765 q 523 739 456 765 q 623 653 590 713 q 657 490 657 592 l 657 0 l 562 0 l 553 85 l 546 85 q 444 14 507 40 q 312 -12 382 -12 q 183 13 237 -12 q 101 84 129 38 q 72 194 72 131 q 140 347 72 292 q 358 416 208 401 l 545 436 l 545 494 q 523 602 545 563 q 455 657 500 641 q 339 673 410 673 q 232 664 289 673 q 122 638 175 656 l 122 730 q 233 756 171 747 q 353 765 294 765 m 340 75 q 450 98 397 75 q 545 165 503 120 l 545 360 l 365 341 q 229 297 271 330 q 188 203 188 264 q 226 108 188 142 q 340 75 264 75 m 156 889 q 217 1056 160 997 q 378 1116 274 1116 q 539 1056 481 1116 q 601 889 597 995 l 524 889 q 483 1007 519 965 q 378 1048 447 1048 q 233 889 242 1048 l 156 889 z "},"ā":{"ha":761,"x_min":72,"x_max":657,"o":"m 353 765 q 523 739 456 765 q 623 653 590 713 q 657 490 657 592 l 657 0 l 562 0 l 553 85 l 546 85 q 444 14 507 40 q 312 -12 382 -12 q 183 13 237 -12 q 101 84 129 38 q 72 194 72 131 q 140 347 72 292 q 358 416 208 401 l 545 436 l 545 494 q 523 602 545 563 q 455 657 500 641 q 339 673 410 673 q 232 664 289 673 q 122 638 175 656 l 122 730 q 233 756 171 747 q 353 765 294 765 m 340 75 q 450 98 397 75 q 545 165 503 120 l 545 360 l 365 341 q 229 297 271 330 q 188 203 188 264 q 226 108 188 142 q 340 75 264 75 m 151 950 l 151 1026 l 606 1026 l 606 950 l 151 950 z "},"ą":{"ha":761,"x_min":72,"x_max":717,"o":"m 611 -233 q 717 -205 664 -233 l 717 -262 q 661 -282 691 -274 q 601 -289 631 -289 q 487 -255 528 -289 q 447 -161 447 -221 q 474 -70 447 -111 q 561 8 501 -28 l 553 85 l 546 85 q 444 14 507 40 q 312 -12 382 -12 q 183 13 237 -12 q 101 84 129 38 q 72 194 72 131 q 140 347 72 292 q 358 416 208 401 l 545 436 l 545 494 q 523 602 545 563 q 455 657 500 641 q 339 673 410 673 q 232 664 289 673 q 122 638 175 656 l 122 730 q 233 756 171 747 q 353 765 294 765 q 523 739 456 765 q 623 653 590 713 q 657 490 657 592 l 657 0 q 551 -74 583 -37 q 519 -155 519 -110 q 544 -212 519 -191 q 611 -233 568 -233 m 340 75 q 450 98 397 75 q 545 165 503 120 l 545 360 l 365 341 q 229 297 271 330 q 188 203 188 264 q 226 108 188 142 q 340 75 264 75 z "},"å":{"ha":761,"x_min":72,"x_max":657,"o":"m 353 765 q 523 739 456 765 q 623 653 590 713 q 657 490 657 592 l 657 0 l 562 0 l 553 85 l 546 85 q 444 14 507 40 q 312 -12 382 -12 q 183 13 237 -12 q 101 84 129 38 q 72 194 72 131 q 140 347 72 292 q 358 416 208 401 l 545 436 l 545 494 q 523 602 545 563 q 455 657 500 641 q 339 673 410 673 q 232 664 289 673 q 122 638 175 656 l 122 730 q 233 756 171 747 q 353 765 294 765 m 340 75 q 450 98 397 75 q 545 165 503 120 l 545 360 l 365 341 q 229 297 271 330 q 188 203 188 264 q 226 108 188 142 q 340 75 264 75 m 378 867 q 309 884 340 867 q 260 932 278 901 q 242 1001 242 963 q 260 1070 242 1039 q 309 1118 278 1101 q 378 1135 340 1135 q 448 1118 417 1135 q 497 1070 479 1101 q 515 1001 515 1039 q 497 932 515 963 q 448 884 479 901 q 378 867 417 867 m 378 919 q 437 941 415 919 q 459 1001 459 963 q 437 1061 459 1039 q 378 1083 415 1083 q 320 1061 342 1083 q 298 1001 298 1039 q 320 941 298 963 q 378 919 342 919 z "},"ǻ":{"ha":761,"x_min":72,"x_max":657,"o":"m 353 765 q 523 739 456 765 q 623 653 590 713 q 657 490 657 592 l 657 0 l 562 0 l 553 85 l 546 85 q 444 14 507 40 q 312 -12 382 -12 q 183 13 237 -12 q 101 84 129 38 q 72 194 72 131 q 140 347 72 292 q 358 416 208 401 l 545 436 l 545 494 q 523 602 545 563 q 455 657 500 641 q 339 673 410 673 q 232 664 289 673 q 122 638 175 656 l 122 730 q 233 756 171 747 q 353 765 294 765 m 340 75 q 450 98 397 75 q 545 165 503 120 l 545 360 l 365 341 q 229 297 271 330 q 188 203 188 264 q 226 108 188 142 q 340 75 264 75 m 489 1082 q 515 1001 515 1048 q 497 932 515 963 q 448 884 479 901 q 378 867 417 867 q 309 884 340 867 q 260 932 278 901 q 242 1001 242 963 q 260 1070 242 1039 q 309 1118 278 1101 q 378 1135 340 1135 q 436 1124 409 1135 l 531 1236 l 626 1236 l 489 1082 m 378 919 q 437 941 415 919 q 459 1001 459 963 q 437 1061 459 1039 q 378 1083 415 1083 q 320 1061 342 1083 q 298 1001 298 1039 q 320 941 298 963 q 378 919 342 919 z "},"ã":{"ha":761,"x_min":72,"x_max":657,"o":"m 353 765 q 523 739 456 765 q 623 653 590 713 q 657 490 657 592 l 657 0 l 562 0 l 553 85 l 546 85 q 444 14 507 40 q 312 -12 382 -12 q 183 13 237 -12 q 101 84 129 38 q 72 194 72 131 q 140 347 72 292 q 358 416 208 401 l 545 436 l 545 494 q 523 602 545 563 q 455 657 500 641 q 339 673 410 673 q 232 664 289 673 q 122 638 175 656 l 122 730 q 233 756 171 747 q 353 765 294 765 m 340 75 q 450 98 397 75 q 545 165 503 120 l 545 360 l 365 341 q 229 297 271 330 q 188 203 188 264 q 226 108 188 142 q 340 75 264 75 m 483 933 q 429 941 455 933 q 367 964 403 949 q 314 983 335 977 q 272 990 293 990 q 208 977 236 990 q 151 937 179 965 l 151 1019 q 274 1065 197 1065 q 328 1057 302 1065 q 390 1035 354 1049 q 443 1015 422 1022 q 485 1009 464 1009 q 549 1022 521 1009 q 606 1062 578 1034 l 606 980 q 483 933 560 933 z "},"æ":{"ha":1228,"x_min":72,"x_max":1169,"o":"m 1169 340 l 657 340 q 728 141 662 202 q 930 79 795 79 q 1131 112 1023 79 l 1131 19 q 917 -13 1023 -13 q 607 122 695 -13 q 470 18 542 49 q 320 -12 399 -12 q 186 13 242 -12 q 101 84 131 38 q 72 195 72 131 q 145 357 72 298 q 375 417 219 417 l 546 417 l 546 494 q 523 603 546 564 q 455 657 500 642 q 338 673 410 673 q 232 664 288 673 q 122 638 175 656 l 122 730 q 233 756 173 747 q 349 765 292 765 q 522 735 456 765 q 617 635 588 704 q 718 733 656 700 q 865 765 781 765 q 1090 667 1010 765 q 1169 376 1169 569 l 1169 340 m 861 683 q 712 619 764 683 q 657 417 660 556 l 1060 417 q 1007 619 1058 556 q 861 683 957 683 m 341 75 q 464 103 405 75 q 572 194 524 131 q 547 341 551 255 l 380 341 q 233 304 278 341 q 188 203 188 267 q 226 108 188 142 q 341 75 265 75 z "},"ǽ":{"ha":1228,"x_min":72,"x_max":1169,"o":"m 1169 340 l 657 340 q 728 141 662 202 q 930 79 795 79 q 1131 112 1023 79 l 1131 19 q 917 -13 1023 -13 q 607 122 695 -13 q 470 18 542 49 q 320 -12 399 -12 q 186 13 242 -12 q 101 84 131 38 q 72 195 72 131 q 145 357 72 298 q 375 417 219 417 l 546 417 l 546 494 q 523 603 546 564 q 455 657 500 642 q 338 673 410 673 q 232 664 288 673 q 122 638 175 656 l 122 730 q 233 756 173 747 q 349 765 292 765 q 522 735 456 765 q 617 635 588 704 q 718 733 656 700 q 865 765 781 765 q 1090 667 1010 765 q 1169 376 1169 569 l 1169 340 m 861 683 q 712 619 764 683 q 657 417 660 556 l 1060 417 q 1007 619 1058 556 q 861 683 957 683 m 341 75 q 464 103 405 75 q 572 194 524 131 q 547 341 551 255 l 380 341 q 233 304 278 341 q 188 203 188 267 q 226 108 188 142 q 341 75 265 75 m 549 869 l 718 1122 l 844 1122 l 657 869 l 549 869 z "},"b":{"ha":840,"x_min":113,"x_max":769,"o":"m 367 -13 q 113 23 232 -13 l 113 1122 l 227 1122 l 227 672 l 234 672 q 333 740 274 715 q 462 765 391 765 q 619 726 551 765 q 728 604 688 688 q 769 392 769 521 q 668 88 769 190 q 367 -13 567 -13 m 377 79 q 584 152 515 79 q 653 381 653 225 q 593 601 653 535 q 428 667 533 667 q 317 645 369 667 q 227 579 265 624 l 227 99 q 377 79 294 79 z "},"c":{"ha":653,"x_min":72,"x_max":621,"o":"m 424 -13 q 162 83 252 -13 q 72 376 72 179 q 168 669 72 574 q 452 765 265 765 q 621 744 545 765 l 621 647 q 464 669 540 669 q 257 600 324 669 q 190 379 190 532 q 252 153 190 224 q 440 83 315 83 q 621 117 519 83 l 621 20 q 424 -13 528 -13 z "},"ć":{"ha":653,"x_min":72,"x_max":624,"o":"m 424 -13 q 162 83 252 -13 q 72 376 72 179 q 168 669 72 574 q 452 765 265 765 q 621 744 545 765 l 621 647 q 464 669 540 669 q 257 600 324 669 q 190 379 190 532 q 252 153 190 224 q 440 83 315 83 q 621 117 519 83 l 621 20 q 424 -13 528 -13 m 329 869 l 499 1122 l 624 1122 l 438 869 l 329 869 z "},"č":{"ha":653,"x_min":72,"x_max":621,"o":"m 424 -13 q 162 83 252 -13 q 72 376 72 179 q 168 669 72 574 q 452 765 265 765 q 621 744 545 765 l 621 647 q 464 669 540 669 q 257 600 324 669 q 190 379 190 532 q 252 153 190 224 q 440 83 315 83 q 621 117 519 83 l 621 20 q 424 -13 528 -13 m 514 1122 l 608 1122 l 434 869 l 333 869 l 159 1122 l 253 1122 l 383 928 l 514 1122 z "},"ç":{"ha":653,"x_min":72,"x_max":621,"o":"m 464 669 q 257 600 324 669 q 190 379 190 532 q 252 153 190 224 q 440 83 315 83 q 621 117 519 83 l 621 20 q 424 -13 528 -13 l 420 -13 l 420 -72 q 505 -105 476 -77 q 535 -179 535 -133 q 497 -260 535 -231 q 389 -289 459 -289 q 322 -282 356 -289 q 264 -264 288 -276 l 264 -207 q 385 -234 322 -234 q 447 -220 426 -234 q 467 -176 467 -206 q 446 -131 467 -145 q 384 -117 426 -117 l 356 -117 l 356 -9 q 144 105 217 9 q 72 376 72 200 q 168 669 72 574 q 452 765 265 765 q 621 744 545 765 l 621 647 q 464 669 540 669 z "},"ḉ":{"ha":653,"x_min":72,"x_max":624,"o":"m 624 1122 l 438 869 l 329 869 l 499 1122 l 624 1122 m 72 376 q 168 669 72 574 q 452 765 265 765 q 621 744 545 765 l 621 647 q 464 669 540 669 q 257 600 324 669 q 190 379 190 532 q 252 153 190 224 q 440 83 315 83 q 621 117 519 83 l 621 20 q 424 -13 528 -13 l 420 -13 l 420 -72 q 505 -105 476 -77 q 535 -179 535 -133 q 497 -260 535 -231 q 389 -289 459 -289 q 322 -282 356 -289 q 264 -264 288 -276 l 264 -207 q 385 -234 322 -234 q 447 -220 426 -234 q 467 -176 467 -206 q 446 -131 467 -145 q 384 -117 426 -117 l 356 -117 l 356 -9 q 144 105 217 9 q 72 376 72 200 z "},"ĉ":{"ha":653,"x_min":72,"x_max":621,"o":"m 424 -13 q 162 83 252 -13 q 72 376 72 179 q 168 669 72 574 q 452 765 265 765 q 621 744 545 765 l 621 647 q 464 669 540 669 q 257 600 324 669 q 190 379 190 532 q 252 153 190 224 q 440 83 315 83 q 621 117 519 83 l 621 20 q 424 -13 528 -13 m 604 869 l 510 869 l 383 1063 l 256 869 l 163 869 l 333 1122 l 434 1122 l 604 869 z "},"ċ":{"ha":653,"x_min":72,"x_max":621,"o":"m 424 -13 q 162 83 252 -13 q 72 376 72 179 q 168 669 72 574 q 452 765 265 765 q 621 744 545 765 l 621 647 q 464 669 540 669 q 257 600 324 669 q 190 379 190 532 q 252 153 190 224 q 440 83 315 83 q 621 117 519 83 l 621 20 q 424 -13 528 -13 m 383 916 q 325 935 345 916 q 304 987 304 953 q 325 1040 304 1021 q 383 1058 345 1058 q 442 1040 422 1058 q 463 987 463 1021 q 442 935 463 953 q 383 916 422 916 z "},"d":{"ha":840,"x_min":72,"x_max":727,"o":"m 389 -13 q 225 26 296 -13 q 113 150 153 66 q 72 361 72 233 q 173 664 72 562 q 473 765 274 765 q 613 753 541 765 l 613 1122 l 727 1122 l 727 0 l 631 0 l 622 86 l 615 86 q 517 13 576 40 q 389 -13 459 -13 m 415 85 q 525 108 473 85 q 613 180 576 131 l 613 656 q 547 668 584 664 q 472 673 509 673 q 257 600 327 673 q 188 372 188 528 q 247 151 188 218 q 415 85 306 85 z "},"ð":{"ha":824,"x_min":72,"x_max":753,"o":"m 579 916 q 707 669 660 802 q 753 406 753 536 q 663 90 752 194 q 413 -14 573 -14 q 162 83 252 -14 q 72 376 72 180 q 113 593 72 507 q 229 722 154 680 q 405 763 303 763 q 578 710 509 763 q 469 898 536 809 l 151 845 l 139 917 l 415 963 q 231 1122 337 1049 l 375 1122 q 528 981 458 1065 l 722 1013 l 735 942 l 579 916 m 413 79 q 578 150 520 79 q 637 374 637 222 q 579 603 637 533 q 413 672 522 672 q 245 603 303 672 q 188 377 188 534 q 245 149 188 219 q 413 79 303 79 z "},"ď":{"ha":840,"x_min":72,"x_max":896,"o":"m 389 -13 q 225 26 296 -13 q 113 150 153 66 q 72 361 72 233 q 173 664 72 562 q 473 765 274 765 q 613 753 541 765 l 613 1122 l 727 1122 l 727 0 l 631 0 l 622 86 l 615 86 q 517 13 576 40 q 389 -13 459 -13 m 415 85 q 525 108 473 85 q 613 180 576 131 l 613 656 q 547 668 584 664 q 472 673 509 673 q 257 600 327 673 q 188 372 188 528 q 247 151 188 218 q 415 85 306 85 m 797 819 q 812 1122 812 942 l 896 1122 q 887 966 896 1045 q 862 819 878 886 l 797 819 z "},"đ":{"ha":840,"x_min":72,"x_max":833,"o":"m 833 902 l 727 902 l 727 0 l 631 0 l 622 86 l 615 86 q 517 13 576 40 q 389 -13 459 -13 q 225 26 296 -13 q 113 150 153 66 q 72 361 72 233 q 173 664 72 562 q 473 765 274 765 q 613 753 541 765 l 613 902 l 344 902 l 344 981 l 613 981 l 613 1122 l 727 1122 l 727 981 l 833 981 l 833 902 m 613 656 q 547 668 584 664 q 472 673 509 673 q 257 600 327 673 q 188 372 188 528 q 247 151 188 218 q 415 85 306 85 q 525 108 473 85 q 613 180 576 131 l 613 656 z "},"ḍ":{"ha":840,"x_min":72,"x_max":727,"o":"m 389 -13 q 225 26 296 -13 q 113 150 153 66 q 72 361 72 233 q 173 664 72 562 q 473 765 274 765 q 613 753 541 765 l 613 1122 l 727 1122 l 727 0 l 631 0 l 622 86 l 615 86 q 517 13 576 40 q 389 -13 459 -13 m 415 85 q 525 108 473 85 q 613 180 576 131 l 613 656 q 547 668 584 664 q 472 673 509 673 q 257 600 327 673 q 188 372 188 528 q 247 151 188 218 q 415 85 306 85 m 422 -251 q 368 -232 388 -251 q 349 -182 349 -214 q 369 -132 349 -151 q 422 -113 388 -113 q 474 -132 455 -113 q 494 -182 494 -151 q 475 -232 494 -214 q 422 -251 456 -251 z "},"ḏ":{"ha":840,"x_min":72,"x_max":727,"o":"m 389 -13 q 225 26 296 -13 q 113 150 153 66 q 72 361 72 233 q 173 664 72 562 q 473 765 274 765 q 613 753 541 765 l 613 1122 l 727 1122 l 727 0 l 631 0 l 622 86 l 615 86 q 517 13 576 40 q 389 -13 459 -13 m 415 85 q 525 108 473 85 q 613 180 576 131 l 613 656 q 547 668 584 664 q 472 673 509 673 q 257 600 327 673 q 188 372 188 528 q 247 151 188 218 q 415 85 306 85 m 213 -220 l 213 -144 l 631 -144 l 631 -220 l 213 -220 z "},"ǳ":{"ha":1524,"x_min":72,"x_max":1483,"o":"m 389 -13 q 225 26 296 -13 q 113 150 153 66 q 72 361 72 233 q 173 664 72 562 q 473 765 274 765 q 613 753 541 765 l 613 1122 l 727 1122 l 727 0 l 631 0 l 622 86 l 615 86 q 517 13 576 40 q 389 -13 459 -13 m 415 85 q 525 108 473 85 q 613 180 576 131 l 613 656 q 547 668 584 664 q 472 673 509 673 q 257 600 327 673 q 188 372 188 528 q 247 151 188 218 q 415 85 306 85 m 1033 94 l 1483 94 l 1483 0 l 886 0 l 886 71 l 1327 660 l 895 660 l 895 753 l 1474 753 l 1474 683 l 1033 94 z "},"ǆ":{"ha":1524,"x_min":72,"x_max":1483,"o":"m 389 -13 q 225 26 296 -13 q 113 150 153 66 q 72 361 72 233 q 173 664 72 562 q 473 765 274 765 q 613 753 541 765 l 613 1122 l 727 1122 l 727 0 l 631 0 l 622 86 l 615 86 q 517 13 576 40 q 389 -13 459 -13 m 415 85 q 525 108 473 85 q 613 180 576 131 l 613 656 q 547 668 584 664 q 472 673 509 673 q 257 600 327 673 q 188 372 188 528 q 247 151 188 218 q 415 85 306 85 m 1033 94 l 1483 94 l 1483 0 l 886 0 l 886 71 l 1327 660 l 895 660 l 895 753 l 1474 753 l 1474 683 l 1033 94 m 1315 1122 l 1409 1122 l 1235 869 l 1134 869 l 960 1122 l 1054 1122 l 1185 928 l 1315 1122 z "},"e":{"ha":764,"x_min":72,"x_max":704,"o":"m 704 340 l 187 340 q 259 141 192 202 q 463 79 326 79 q 666 112 556 79 l 666 19 q 450 -13 556 -13 q 166 82 261 -13 q 72 377 72 176 q 110 591 72 504 q 221 722 149 678 q 394 765 293 765 q 624 666 544 765 q 704 374 704 567 l 704 340 m 394 683 q 242 619 294 683 q 187 417 190 556 l 596 417 q 542 619 593 556 q 394 683 492 683 z "},"é":{"ha":764,"x_min":72,"x_max":704,"o":"m 704 340 l 187 340 q 259 141 192 202 q 463 79 326 79 q 666 112 556 79 l 666 19 q 450 -13 556 -13 q 166 82 261 -13 q 72 377 72 176 q 110 591 72 504 q 221 722 149 678 q 394 765 293 765 q 624 666 544 765 q 704 374 704 567 l 704 340 m 394 683 q 242 619 294 683 q 187 417 190 556 l 596 417 q 542 619 593 556 q 394 683 492 683 m 341 869 l 510 1122 l 636 1122 l 449 869 l 341 869 z "},"ĕ":{"ha":764,"x_min":72,"x_max":704,"o":"m 704 340 l 187 340 q 259 141 192 202 q 463 79 326 79 q 666 112 556 79 l 666 19 q 450 -13 556 -13 q 166 82 261 -13 q 72 377 72 176 q 110 591 72 504 q 221 722 149 678 q 394 765 293 765 q 624 666 544 765 q 704 374 704 567 l 704 340 m 394 683 q 242 619 294 683 q 187 417 190 556 l 596 417 q 542 619 593 556 q 394 683 492 683 m 396 877 q 235 938 293 877 q 172 1104 177 998 l 249 1104 q 396 945 260 945 q 501 986 466 945 q 541 1104 536 1027 l 618 1104 q 556 937 613 997 q 396 877 499 877 z "},"ě":{"ha":764,"x_min":72,"x_max":704,"o":"m 704 340 l 187 340 q 259 141 192 202 q 463 79 326 79 q 666 112 556 79 l 666 19 q 450 -13 556 -13 q 166 82 261 -13 q 72 377 72 176 q 110 591 72 504 q 221 722 149 678 q 394 765 293 765 q 624 666 544 765 q 704 374 704 567 l 704 340 m 394 683 q 242 619 294 683 q 187 417 190 556 l 596 417 q 542 619 593 556 q 394 683 492 683 m 526 1122 l 619 1122 l 446 869 l 344 869 l 171 1122 l 265 1122 l 395 928 l 526 1122 z "},"ḝ":{"ha":764,"x_min":72,"x_max":704,"o":"m 396 877 q 235 938 293 877 q 172 1104 177 998 l 249 1104 q 396 945 260 945 q 501 986 466 945 q 541 1104 536 1027 l 618 1104 q 556 937 613 997 q 396 877 499 877 m 704 340 l 187 340 q 259 141 192 202 q 463 79 326 79 q 666 112 556 79 l 666 19 q 450 -13 556 -13 l 431 -13 l 431 -72 q 516 -105 486 -77 q 545 -179 545 -133 q 507 -260 545 -231 q 399 -289 469 -289 q 332 -282 366 -289 q 274 -264 299 -276 l 274 -207 q 396 -234 333 -234 q 457 -220 437 -234 q 477 -176 477 -206 q 457 -131 477 -145 q 394 -117 436 -117 l 366 -117 l 366 -8 q 145 106 219 11 q 72 377 72 200 q 110 591 72 504 q 221 722 149 678 q 394 765 293 765 q 624 666 544 765 q 704 374 704 567 l 704 340 m 394 683 q 242 619 294 683 q 187 417 190 556 l 596 417 q 542 619 593 556 q 394 683 492 683 z "},"ê":{"ha":764,"x_min":72,"x_max":704,"o":"m 704 340 l 187 340 q 259 141 192 202 q 463 79 326 79 q 666 112 556 79 l 666 19 q 450 -13 556 -13 q 166 82 261 -13 q 72 377 72 176 q 110 591 72 504 q 221 722 149 678 q 394 765 293 765 q 624 666 544 765 q 704 374 704 567 l 704 340 m 394 683 q 242 619 294 683 q 187 417 190 556 l 596 417 q 542 619 593 556 q 394 683 492 683 m 616 869 l 522 869 l 395 1063 l 268 869 l 174 869 l 344 1122 l 446 1122 l 616 869 z "},"ế":{"ha":764,"x_min":72,"x_max":797,"o":"m 704 340 l 187 340 q 259 141 192 202 q 463 79 326 79 q 666 112 556 79 l 666 19 q 450 -13 556 -13 q 166 82 261 -13 q 72 377 72 176 q 110 591 72 504 q 221 722 149 678 q 394 765 293 765 q 624 666 544 765 q 704 374 704 567 l 704 340 m 394 683 q 242 619 294 683 q 187 417 190 556 l 596 417 q 542 619 593 556 q 394 683 492 683 m 689 1297 l 797 1297 l 639 1109 l 550 1109 l 689 1297 m 344 1122 l 446 1122 l 616 869 l 522 869 l 395 1063 l 268 869 l 174 869 l 344 1122 z "},"ệ":{"ha":764,"x_min":72,"x_max":704,"o":"m 704 340 l 187 340 q 259 141 192 202 q 463 79 326 79 q 666 112 556 79 l 666 19 q 450 -13 556 -13 q 166 82 261 -13 q 72 377 72 176 q 110 591 72 504 q 221 722 149 678 q 394 765 293 765 q 624 666 544 765 q 704 374 704 567 l 704 340 m 394 683 q 242 619 294 683 q 187 417 190 556 l 596 417 q 542 619 593 556 q 394 683 492 683 m 395 -251 q 342 -232 361 -251 q 323 -182 323 -214 q 342 -132 323 -151 q 395 -113 362 -113 q 448 -132 428 -113 q 467 -182 467 -151 q 448 -232 467 -214 q 395 -251 429 -251 m 616 869 l 522 869 l 395 1063 l 268 869 l 174 869 l 344 1122 l 446 1122 l 616 869 z "},"ề":{"ha":764,"x_min":72,"x_max":704,"o":"m 704 340 l 187 340 q 259 141 192 202 q 463 79 326 79 q 666 112 556 79 l 666 19 q 450 -13 556 -13 q 166 82 261 -13 q 72 377 72 176 q 110 591 72 504 q 221 722 149 678 q 394 765 293 765 q 624 666 544 765 q 704 374 704 567 l 704 340 m 394 683 q 242 619 294 683 q 187 417 190 556 l 596 417 q 542 619 593 556 q 394 683 492 683 m 658 1109 l 568 1109 l 410 1297 l 519 1297 l 658 1109 m 344 1122 l 446 1122 l 616 869 l 522 869 l 395 1063 l 268 869 l 174 869 l 344 1122 z "},"ể":{"ha":764,"x_min":72,"x_max":737,"o":"m 704 340 l 187 340 q 259 141 192 202 q 463 79 326 79 q 666 112 556 79 l 666 19 q 450 -13 556 -13 q 166 82 261 -13 q 72 377 72 176 q 110 591 72 504 q 221 722 149 678 q 394 765 293 765 q 624 666 544 765 q 704 374 704 567 l 704 340 m 394 683 q 242 619 294 683 q 187 417 190 556 l 596 417 q 542 619 593 556 q 394 683 492 683 m 594 1302 q 702 1282 667 1302 q 737 1224 737 1262 q 721 1185 737 1199 q 674 1158 706 1172 q 634 1136 647 1146 q 619 1109 621 1126 l 551 1109 q 563 1143 552 1129 q 588 1164 574 1156 q 624 1182 601 1172 q 658 1199 647 1191 q 669 1219 669 1206 q 651 1243 669 1235 q 588 1251 632 1251 q 517 1246 549 1251 q 448 1230 484 1241 l 448 1280 q 514 1296 476 1290 q 594 1302 552 1302 m 344 1122 l 446 1122 l 616 869 l 522 869 l 395 1063 l 268 869 l 174 869 l 344 1122 z "},"ễ":{"ha":764,"x_min":72,"x_max":704,"o":"m 704 340 l 187 340 q 259 141 192 202 q 463 79 326 79 q 666 112 556 79 l 666 19 q 450 -13 556 -13 q 166 82 261 -13 q 72 377 72 176 q 110 591 72 504 q 221 722 149 678 q 394 765 293 765 q 624 666 544 765 q 704 374 704 567 l 704 340 m 394 683 q 242 619 294 683 q 187 417 190 556 l 596 417 q 542 619 593 556 q 394 683 492 683 m 505 1217 q 570 1228 541 1217 q 626 1263 599 1239 l 626 1192 q 503 1149 581 1149 q 449 1156 474 1149 q 384 1176 424 1162 q 330 1193 353 1188 q 285 1199 308 1199 q 220 1188 249 1199 q 164 1152 192 1176 l 164 1224 q 288 1267 209 1267 q 342 1260 317 1267 q 406 1240 367 1254 q 460 1223 438 1228 q 505 1217 483 1217 m 343 1108 l 447 1108 l 622 870 l 525 870 l 395 1055 l 265 870 l 168 870 l 343 1108 z "},"ȅ":{"ha":764,"x_min":72,"x_max":704,"o":"m 704 340 l 187 340 q 259 141 192 202 q 463 79 326 79 q 666 112 556 79 l 666 19 q 450 -13 556 -13 q 166 82 261 -13 q 72 377 72 176 q 110 591 72 504 q 221 722 149 678 q 394 765 293 765 q 624 666 544 765 q 704 374 704 567 l 704 340 m 394 683 q 242 619 294 683 q 187 417 190 556 l 596 417 q 542 619 593 556 q 394 683 492 683 m 226 869 l 106 1122 l 204 1122 l 317 869 l 226 869 m 474 869 l 353 1122 l 452 1122 l 565 869 l 474 869 z "},"ë":{"ha":764,"x_min":72,"x_max":704,"o":"m 704 340 l 187 340 q 259 141 192 202 q 463 79 326 79 q 666 112 556 79 l 666 19 q 450 -13 556 -13 q 166 82 261 -13 q 72 377 72 176 q 110 591 72 504 q 221 722 149 678 q 394 765 293 765 q 624 666 544 765 q 704 374 704 567 l 704 340 m 394 683 q 242 619 294 683 q 187 417 190 556 l 596 417 q 542 619 593 556 q 394 683 492 683 m 231 917 q 177 936 197 917 q 158 987 158 954 q 177 1038 158 1019 q 231 1057 197 1057 q 284 1038 265 1057 q 303 987 303 1019 q 284 936 303 954 q 231 917 265 917 m 560 917 q 507 936 526 917 q 488 987 488 954 q 507 1038 488 1019 q 560 1057 526 1057 q 613 1038 594 1057 q 632 987 632 1019 q 613 936 632 954 q 560 917 594 917 z "},"ė":{"ha":764,"x_min":72,"x_max":704,"o":"m 704 340 l 187 340 q 259 141 192 202 q 463 79 326 79 q 666 112 556 79 l 666 19 q 450 -13 556 -13 q 166 82 261 -13 q 72 377 72 176 q 110 591 72 504 q 221 722 149 678 q 394 765 293 765 q 624 666 544 765 q 704 374 704 567 l 704 340 m 394 683 q 242 619 294 683 q 187 417 190 556 l 596 417 q 542 619 593 556 q 394 683 492 683 m 395 916 q 336 935 357 916 q 316 987 316 953 q 336 1040 316 1021 q 395 1058 357 1058 q 454 1040 433 1058 q 474 987 474 1021 q 454 935 474 953 q 395 916 433 916 z "},"ẹ":{"ha":764,"x_min":72,"x_max":704,"o":"m 704 340 l 187 340 q 259 141 192 202 q 463 79 326 79 q 666 112 556 79 l 666 19 q 450 -13 556 -13 q 166 82 261 -13 q 72 377 72 176 q 110 591 72 504 q 221 722 149 678 q 394 765 293 765 q 624 666 544 765 q 704 374 704 567 l 704 340 m 394 683 q 242 619 294 683 q 187 417 190 556 l 596 417 q 542 619 593 556 q 394 683 492 683 m 395 -251 q 342 -232 361 -251 q 323 -182 323 -214 q 342 -132 323 -151 q 395 -113 362 -113 q 448 -132 428 -113 q 467 -182 467 -151 q 448 -232 467 -214 q 395 -251 429 -251 z "},"è":{"ha":764,"x_min":72,"x_max":704,"o":"m 704 340 l 187 340 q 259 141 192 202 q 463 79 326 79 q 666 112 556 79 l 666 19 q 450 -13 556 -13 q 166 82 261 -13 q 72 377 72 176 q 110 591 72 504 q 221 722 149 678 q 394 765 293 765 q 624 666 544 765 q 704 374 704 567 l 704 340 m 394 683 q 242 619 294 683 q 187 417 190 556 l 596 417 q 542 619 593 556 q 394 683 492 683 m 341 869 l 154 1122 l 280 1122 l 449 869 l 341 869 z "},"ẻ":{"ha":764,"x_min":72,"x_max":704,"o":"m 704 340 l 187 340 q 259 141 192 202 q 463 79 326 79 q 666 112 556 79 l 666 19 q 450 -13 556 -13 q 166 82 261 -13 q 72 377 72 176 q 110 591 72 504 q 221 722 149 678 q 394 765 293 765 q 624 666 544 765 q 704 374 704 567 l 704 340 m 394 683 q 242 619 294 683 q 187 417 190 556 l 596 417 q 542 619 593 556 q 394 683 492 683 m 361 869 q 372 916 362 897 q 396 947 383 935 q 431 973 410 958 q 465 1000 454 988 q 476 1027 476 1011 q 455 1062 476 1051 q 390 1074 434 1074 q 274 1057 328 1074 l 274 1113 q 331 1126 299 1121 q 393 1131 363 1131 q 546 1033 546 1131 q 538 994 546 1010 q 518 967 530 978 q 486 944 506 957 q 446 910 460 926 q 430 869 432 895 l 361 869 z "},"ȇ":{"ha":764,"x_min":72,"x_max":704,"o":"m 704 340 l 187 340 q 259 141 192 202 q 463 79 326 79 q 666 112 556 79 l 666 19 q 450 -13 556 -13 q 166 82 261 -13 q 72 377 72 176 q 110 591 72 504 q 221 722 149 678 q 394 765 293 765 q 624 666 544 765 q 704 374 704 567 l 704 340 m 394 683 q 242 619 294 683 q 187 417 190 556 l 596 417 q 542 619 593 556 q 394 683 492 683 m 172 889 q 234 1056 177 997 q 394 1116 291 1116 q 555 1056 497 1116 q 618 889 613 995 l 541 889 q 499 1007 535 965 q 394 1048 463 1048 q 249 889 259 1048 l 172 889 z "},"ē":{"ha":764,"x_min":72,"x_max":704,"o":"m 704 340 l 187 340 q 259 141 192 202 q 463 79 326 79 q 666 112 556 79 l 666 19 q 450 -13 556 -13 q 166 82 261 -13 q 72 377 72 176 q 110 591 72 504 q 221 722 149 678 q 394 765 293 765 q 624 666 544 765 q 704 374 704 567 l 704 340 m 394 683 q 242 619 294 683 q 187 417 190 556 l 596 417 q 542 619 593 556 q 394 683 492 683 m 168 950 l 168 1026 l 622 1026 l 622 950 l 168 950 z "},"ḗ":{"ha":764,"x_min":72,"x_max":704,"o":"m 704 340 l 187 340 q 259 141 192 202 q 463 79 326 79 q 666 112 556 79 l 666 19 q 450 -13 556 -13 q 166 82 261 -13 q 72 377 72 176 q 110 591 72 504 q 221 722 149 678 q 394 765 293 765 q 624 666 544 765 q 704 374 704 567 l 704 340 m 394 683 q 242 619 294 683 q 187 417 190 556 l 596 417 q 542 619 593 556 q 394 683 492 683 m 168 950 l 168 1026 l 622 1026 l 622 950 l 168 950 m 342 1124 l 481 1322 l 606 1322 l 448 1124 l 342 1124 z "},"ḕ":{"ha":764,"x_min":72,"x_max":704,"o":"m 704 340 l 187 340 q 259 141 192 202 q 463 79 326 79 q 666 112 556 79 l 666 19 q 450 -13 556 -13 q 166 82 261 -13 q 72 377 72 176 q 110 591 72 504 q 221 722 149 678 q 394 765 293 765 q 624 666 544 765 q 704 374 704 567 l 704 340 m 394 683 q 242 619 294 683 q 187 417 190 556 l 596 417 q 542 619 593 556 q 394 683 492 683 m 168 950 l 168 1026 l 622 1026 l 622 950 l 168 950 m 342 1124 l 184 1322 l 310 1322 l 449 1124 l 342 1124 z "},"ę":{"ha":764,"x_min":72,"x_max":704,"o":"m 704 340 l 187 340 q 259 141 192 202 q 463 79 326 79 q 666 112 556 79 l 666 19 q 469 -153 469 -44 q 493 -211 469 -190 q 560 -233 517 -233 q 666 -205 613 -233 l 666 -262 q 610 -282 640 -274 q 550 -289 580 -289 q 436 -255 477 -289 q 396 -161 396 -220 q 418 -79 396 -117 q 483 -12 440 -41 q 450 -13 472 -13 q 166 82 261 -13 q 72 377 72 176 q 110 591 72 504 q 221 722 149 678 q 394 765 293 765 q 624 666 544 765 q 704 374 704 567 l 704 340 m 394 681 q 242 617 294 681 q 187 415 190 553 l 596 415 q 542 617 593 553 q 394 681 492 681 z "},"ẽ":{"ha":764,"x_min":72,"x_max":704,"o":"m 704 340 l 187 340 q 259 141 192 202 q 463 79 326 79 q 666 112 556 79 l 666 19 q 450 -13 556 -13 q 166 82 261 -13 q 72 377 72 176 q 110 591 72 504 q 221 722 149 678 q 394 765 293 765 q 624 666 544 765 q 704 374 704 567 l 704 340 m 394 683 q 242 619 294 683 q 187 417 190 556 l 596 417 q 542 619 593 556 q 394 683 492 683 m 500 933 q 445 941 472 933 q 384 964 419 949 q 331 983 352 977 q 289 990 310 990 q 224 977 253 990 q 168 937 196 965 l 168 1019 q 290 1065 214 1065 q 345 1057 319 1065 q 406 1035 371 1049 q 459 1015 438 1022 q 501 1009 481 1009 q 566 1022 538 1009 q 622 1062 594 1034 l 622 980 q 500 933 576 933 z "},"ə":{"ha":764,"x_min":60,"x_max":692,"o":"m 314 767 q 598 672 503 767 q 692 376 692 577 q 654 163 692 249 q 543 32 615 76 q 369 -12 471 -12 q 140 87 219 -12 q 60 379 60 186 l 60 414 l 577 414 q 505 613 572 551 q 301 674 438 674 q 98 642 208 674 l 98 734 q 314 767 208 767 m 370 70 q 522 134 469 70 q 577 337 574 198 l 168 337 q 222 134 171 198 q 370 70 272 70 z "},"f":{"ha":535,"x_min":15,"x_max":568,"o":"m 470 1041 q 324 997 370 1041 q 278 853 278 953 l 278 753 l 538 753 l 538 660 l 278 660 l 278 0 l 164 0 l 164 660 l 15 660 l 15 753 l 164 753 l 164 846 q 239 1063 164 989 q 459 1136 313 1136 q 568 1127 512 1136 l 568 1032 q 470 1041 514 1041 z "},"g":{"ha":840,"x_min":72,"x_max":727,"o":"m 362 -319 q 240 -310 304 -319 q 122 -283 176 -301 l 122 -188 q 356 -226 245 -226 q 502 -202 446 -226 q 586 -125 558 -178 q 613 18 613 -72 l 613 84 l 607 84 q 508 15 566 40 q 379 -10 450 -10 q 222 29 291 -10 q 112 151 152 67 q 72 362 72 234 q 173 664 72 563 q 474 765 274 765 q 604 756 539 765 q 727 729 669 747 l 727 36 q 687 -168 727 -90 q 566 -283 647 -247 q 362 -319 485 -319 m 413 88 q 524 109 471 88 q 613 176 576 131 l 613 655 q 464 673 546 673 q 257 600 326 673 q 188 372 188 527 q 247 153 188 219 q 413 88 307 88 z "},"ǵ":{"ha":840,"x_min":72,"x_max":727,"o":"m 362 -319 q 240 -310 304 -319 q 122 -283 176 -301 l 122 -188 q 356 -226 245 -226 q 502 -202 446 -226 q 586 -125 558 -178 q 613 18 613 -72 l 613 84 l 607 84 q 508 15 566 40 q 379 -10 450 -10 q 222 29 291 -10 q 112 151 152 67 q 72 362 72 234 q 173 664 72 563 q 474 765 274 765 q 604 756 539 765 q 727 729 669 747 l 727 36 q 687 -168 727 -90 q 566 -283 647 -247 q 362 -319 485 -319 m 413 88 q 524 109 471 88 q 613 176 576 131 l 613 655 q 464 673 546 673 q 257 600 326 673 q 188 372 188 527 q 247 153 188 219 q 413 88 307 88 m 380 869 l 549 1122 l 675 1122 l 488 869 l 380 869 z "},"ğ":{"ha":840,"x_min":72,"x_max":727,"o":"m 362 -319 q 240 -310 304 -319 q 122 -283 176 -301 l 122 -188 q 356 -226 245 -226 q 502 -202 446 -226 q 586 -125 558 -178 q 613 18 613 -72 l 613 84 l 607 84 q 508 15 566 40 q 379 -10 450 -10 q 222 29 291 -10 q 112 151 152 67 q 72 362 72 234 q 173 664 72 563 q 474 765 274 765 q 604 756 539 765 q 727 729 669 747 l 727 36 q 687 -168 727 -90 q 566 -283 647 -247 q 362 -319 485 -319 m 413 88 q 524 109 471 88 q 613 176 576 131 l 613 655 q 464 673 546 673 q 257 600 326 673 q 188 372 188 527 q 247 153 188 219 q 413 88 307 88 m 435 877 q 274 938 332 877 q 211 1104 216 998 l 288 1104 q 435 945 299 945 q 540 986 505 945 q 580 1104 575 1027 l 657 1104 q 595 937 652 997 q 435 877 538 877 z "},"ǧ":{"ha":840,"x_min":72,"x_max":727,"o":"m 362 -319 q 240 -310 304 -319 q 122 -283 176 -301 l 122 -188 q 356 -226 245 -226 q 502 -202 446 -226 q 586 -125 558 -178 q 613 18 613 -72 l 613 84 l 607 84 q 508 15 566 40 q 379 -10 450 -10 q 222 29 291 -10 q 112 151 152 67 q 72 362 72 234 q 173 664 72 563 q 474 765 274 765 q 604 756 539 765 q 727 729 669 747 l 727 36 q 687 -168 727 -90 q 566 -283 647 -247 q 362 -319 485 -319 m 413 88 q 524 109 471 88 q 613 176 576 131 l 613 655 q 464 673 546 673 q 257 600 326 673 q 188 372 188 527 q 247 153 188 219 q 413 88 307 88 m 565 1122 l 658 1122 l 485 869 l 383 869 l 210 1122 l 303 1122 l 434 928 l 565 1122 z "},"ĝ":{"ha":840,"x_min":72,"x_max":727,"o":"m 362 -319 q 240 -310 304 -319 q 122 -283 176 -301 l 122 -188 q 356 -226 245 -226 q 502 -202 446 -226 q 586 -125 558 -178 q 613 18 613 -72 l 613 84 l 607 84 q 508 15 566 40 q 379 -10 450 -10 q 222 29 291 -10 q 112 151 152 67 q 72 362 72 234 q 173 664 72 563 q 474 765 274 765 q 604 756 539 765 q 727 729 669 747 l 727 36 q 687 -168 727 -90 q 566 -283 647 -247 q 362 -319 485 -319 m 413 88 q 524 109 471 88 q 613 176 576 131 l 613 655 q 464 673 546 673 q 257 600 326 673 q 188 372 188 527 q 247 153 188 219 q 413 88 307 88 m 655 869 l 561 869 l 434 1063 l 307 869 l 213 869 l 383 1122 l 485 1122 l 655 869 z "},"ģ":{"ha":840,"x_min":72,"x_max":727,"o":"m 362 -319 q 240 -310 304 -319 q 122 -283 176 -301 l 122 -188 q 356 -226 245 -226 q 502 -202 446 -226 q 586 -125 558 -178 q 613 18 613 -72 l 613 84 l 607 84 q 508 15 566 40 q 379 -10 450 -10 q 222 29 291 -10 q 112 151 152 67 q 72 362 72 234 q 173 664 72 563 q 474 765 274 765 q 604 756 539 765 q 727 729 669 747 l 727 36 q 687 -168 727 -90 q 566 -283 647 -247 q 362 -319 485 -319 m 413 88 q 524 109 471 88 q 613 176 576 131 l 613 655 q 464 673 546 673 q 257 600 326 673 q 188 372 188 527 q 247 153 188 219 q 413 88 307 88 m 442 1031 q 491 1013 474 1028 q 508 974 508 998 q 490 932 508 947 q 436 917 471 917 q 360 994 360 917 q 370 1060 360 1024 q 399 1128 381 1097 l 471 1128 q 442 1031 447 1076 z "},"ġ":{"ha":840,"x_min":72,"x_max":727,"o":"m 362 -319 q 240 -310 304 -319 q 122 -283 176 -301 l 122 -188 q 356 -226 245 -226 q 502 -202 446 -226 q 586 -125 558 -178 q 613 18 613 -72 l 613 84 l 607 84 q 508 15 566 40 q 379 -10 450 -10 q 222 29 291 -10 q 112 151 152 67 q 72 362 72 234 q 173 664 72 563 q 474 765 274 765 q 604 756 539 765 q 727 729 669 747 l 727 36 q 687 -168 727 -90 q 566 -283 647 -247 q 362 -319 485 -319 m 413 88 q 524 109 471 88 q 613 176 576 131 l 613 655 q 464 673 546 673 q 257 600 326 673 q 188 372 188 527 q 247 153 188 219 q 413 88 307 88 m 434 916 q 375 935 396 916 q 355 987 355 953 q 375 1040 355 1021 q 434 1058 396 1058 q 493 1040 472 1058 q 513 987 513 1021 q 493 935 513 953 q 434 916 472 916 z "},"ḡ":{"ha":840,"x_min":72,"x_max":727,"o":"m 362 -319 q 240 -310 304 -319 q 122 -283 176 -301 l 122 -188 q 356 -226 245 -226 q 502 -202 446 -226 q 586 -125 558 -178 q 613 18 613 -72 l 613 84 l 607 84 q 508 15 566 40 q 379 -10 450 -10 q 222 29 291 -10 q 112 151 152 67 q 72 362 72 234 q 173 664 72 563 q 474 765 274 765 q 604 756 539 765 q 727 729 669 747 l 727 36 q 687 -168 727 -90 q 566 -283 647 -247 q 362 -319 485 -319 m 413 88 q 524 109 471 88 q 613 176 576 131 l 613 655 q 464 673 546 673 q 257 600 326 673 q 188 372 188 527 q 247 153 188 219 q 413 88 307 88 m 207 950 l 207 1026 l 661 1026 l 661 950 l 207 950 z "},"h":{"ha":845,"x_min":113,"x_max":742,"o":"m 113 1122 l 227 1122 l 227 669 l 234 669 q 348 741 283 716 q 485 765 412 765 q 673 699 605 765 q 742 488 742 632 l 742 0 l 628 0 l 628 481 q 583 621 628 578 q 453 663 538 663 q 331 639 391 663 q 227 565 270 614 l 227 0 l 113 0 l 113 1122 z "},"ħ":{"ha":845,"x_min":7,"x_max":742,"o":"m 485 765 q 673 699 605 765 q 742 488 742 632 l 742 0 l 628 0 l 628 481 q 583 621 628 578 q 453 663 538 663 q 331 639 391 663 q 227 565 270 614 l 227 0 l 113 0 l 113 901 l 7 901 l 7 980 l 113 980 l 113 1122 l 227 1122 l 227 980 l 495 980 l 495 901 l 227 901 l 227 669 l 234 669 q 348 741 283 716 q 485 765 412 765 z "},"ḫ":{"ha":845,"x_min":113,"x_max":742,"o":"m 113 1122 l 227 1122 l 227 669 l 234 669 q 348 741 283 716 q 485 765 412 765 q 673 699 605 765 q 742 488 742 632 l 742 0 l 628 0 l 628 481 q 583 621 628 578 q 453 663 538 663 q 331 639 391 663 q 227 565 270 614 l 227 0 l 113 0 l 113 1122 m 429 -293 q 309 -270 359 -293 q 233 -205 259 -247 q 206 -107 207 -162 l 283 -107 q 429 -224 288 -224 q 574 -107 569 -224 l 651 -107 q 592 -243 649 -192 q 429 -293 535 -293 z "},"ĥ":{"ha":845,"x_min":113,"x_max":742,"o":"m 113 1122 l 227 1122 l 227 669 l 234 669 q 348 741 283 716 q 485 765 412 765 q 673 699 605 765 q 742 488 742 632 l 742 0 l 628 0 l 628 481 q 583 621 628 578 q 453 663 538 663 q 331 639 391 663 q 227 565 270 614 l 227 0 l 113 0 l 113 1122 m 667 1183 l 564 1183 l 428 1330 l 293 1183 l 190 1183 l 376 1381 l 481 1381 l 667 1183 z "},"ḥ":{"ha":845,"x_min":113,"x_max":742,"o":"m 113 1122 l 227 1122 l 227 669 l 234 669 q 348 741 283 716 q 485 765 412 765 q 673 699 605 765 q 742 488 742 632 l 742 0 l 628 0 l 628 481 q 583 621 628 578 q 453 663 538 663 q 331 639 391 663 q 227 565 270 614 l 227 0 l 113 0 l 113 1122 m 428 -251 q 375 -232 394 -251 q 356 -182 356 -214 q 376 -132 356 -151 q 428 -113 395 -113 q 481 -132 462 -113 q 501 -182 501 -151 q 482 -232 501 -214 q 428 -251 463 -251 z "},"i":{"ha":341,"x_min":92,"x_max":250,"o":"m 113 0 l 113 753 l 228 753 l 228 0 l 113 0 m 171 916 q 112 935 133 916 q 92 987 92 953 q 112 1040 92 1021 q 171 1058 133 1058 q 230 1040 209 1058 q 250 987 250 1021 q 230 935 250 953 q 171 916 209 916 z "},"ı":{"ha":341,"x_min":113,"x_max":228,"o":"m 113 0 l 113 753 l 228 753 l 228 0 l 113 0 z "},"í":{"ha":341,"x_min":113,"x_max":412,"o":"m 113 0 l 113 753 l 228 753 l 228 0 l 113 0 m 117 869 l 286 1122 l 412 1122 l 225 869 l 117 869 z "},"ĭ":{"ha":341,"x_min":-52,"x_max":394,"o":"m 113 0 l 113 753 l 228 753 l 228 0 l 113 0 m 172 877 q 11 938 69 877 q -52 1104 -47 998 l 25 1104 q 172 945 36 945 q 277 986 242 945 q 317 1104 312 1027 l 394 1104 q 332 937 389 997 q 172 877 274 877 z "},"î":{"ha":341,"x_min":-50,"x_max":392,"o":"m 113 0 l 113 753 l 228 753 l 228 0 l 113 0 m 392 869 l 298 869 l 171 1063 l 44 869 l -50 869 l 120 1122 l 222 1122 l 392 869 z "},"ȉ":{"ha":341,"x_min":-119,"x_max":340,"o":"m 113 0 l 113 753 l 228 753 l 228 0 l 113 0 m 1 869 l -119 1122 l -20 1122 l 92 869 l 1 869 m 249 869 l 129 1122 l 228 1122 l 340 869 l 249 869 z "},"ï":{"ha":341,"x_min":-66,"x_max":408,"o":"m 113 0 l 113 753 l 228 753 l 228 0 l 113 0 m 6 917 q -47 936 -28 917 q -66 987 -66 954 q -47 1038 -66 1019 q 6 1057 -28 1057 q 59 1038 40 1057 q 78 987 78 1019 q 59 936 78 954 q 6 917 40 917 m 335 917 q 282 936 301 917 q 263 987 263 954 q 282 1038 263 1019 q 335 1057 301 1057 q 389 1038 369 1057 q 408 987 408 1019 q 389 936 408 954 q 335 917 369 917 z "},"ḯ":{"ha":341,"x_min":-66,"x_max":412,"o":"m 113 0 l 113 753 l 228 753 l 228 0 l 113 0 m 6 917 q -47 936 -28 917 q -66 987 -66 954 q -47 1038 -66 1019 q 6 1057 -28 1057 q 59 1038 40 1057 q 78 987 78 1019 q 59 936 78 954 q 6 917 40 917 m 335 917 q 282 936 301 917 q 263 987 263 954 q 282 1038 263 1019 q 335 1057 301 1057 q 389 1038 369 1057 q 408 987 408 1019 q 389 936 408 954 q 335 917 369 917 m 147 1199 l 286 1397 l 412 1397 l 253 1199 l 147 1199 z "},"ị":{"ha":341,"x_min":92,"x_max":250,"o":"m 113 0 l 113 753 l 228 753 l 228 0 l 113 0 m 171 916 q 112 935 133 916 q 92 987 92 953 q 112 1040 92 1021 q 171 1058 133 1058 q 230 1040 209 1058 q 250 987 250 1021 q 230 935 250 953 q 171 916 209 916 m 171 -251 q 118 -232 137 -251 q 99 -182 99 -214 q 118 -132 99 -151 q 171 -113 138 -113 q 224 -132 204 -113 q 243 -182 243 -151 q 224 -232 243 -214 q 171 -251 205 -251 z "},"ì":{"ha":341,"x_min":-70,"x_max":228,"o":"m 113 0 l 113 753 l 228 753 l 228 0 l 113 0 m 117 869 l -70 1122 l 56 1122 l 225 869 l 117 869 z "},"ỉ":{"ha":341,"x_min":50,"x_max":322,"o":"m 113 0 l 113 753 l 228 753 l 228 0 l 113 0 m 137 869 q 148 916 138 897 q 172 947 158 935 q 207 973 185 958 q 241 1000 230 988 q 251 1027 251 1011 q 231 1062 251 1051 q 165 1074 210 1074 q 50 1057 104 1074 l 50 1113 q 107 1126 74 1121 q 169 1131 139 1131 q 322 1033 322 1131 q 314 994 322 1010 q 294 967 306 978 q 262 944 282 957 q 222 910 235 926 q 206 869 208 895 l 137 869 z "},"ȋ":{"ha":341,"x_min":-52,"x_max":394,"o":"m 113 0 l 113 753 l 228 753 l 228 0 l 113 0 m -52 889 q 10 1056 -47 997 q 170 1116 67 1116 q 331 1056 273 1116 q 394 889 389 995 l 317 889 q 275 1007 311 965 q 170 1048 239 1048 q 25 889 35 1048 l -52 889 z "},"ī":{"ha":341,"x_min":-56,"x_max":398,"o":"m 113 0 l 113 753 l 228 753 l 228 0 l 113 0 m -56 950 l -56 1026 l 398 1026 l 398 950 l -56 950 z "},"į":{"ha":341,"x_min":17,"x_max":288,"o":"m 171 916 q 112 935 133 916 q 92 987 92 953 q 112 1040 92 1021 q 171 1058 133 1058 q 230 1040 209 1058 q 250 987 250 1021 q 230 935 250 953 q 171 916 209 916 m 182 -233 q 288 -205 235 -233 l 288 -262 q 232 -282 262 -274 q 172 -289 202 -289 q 58 -255 99 -289 q 17 -161 17 -221 q 42 -74 17 -114 q 120 0 67 -35 l 113 0 l 113 753 l 228 753 l 228 0 q 122 -74 153 -37 q 90 -155 90 -110 q 115 -212 90 -191 q 182 -233 139 -233 z "},"ĩ":{"ha":341,"x_min":-56,"x_max":398,"o":"m 113 0 l 113 753 l 228 753 l 228 0 l 113 0 m 276 933 q 221 941 247 933 q 160 964 195 949 q 107 983 128 977 q 65 990 85 990 q 0 977 28 990 q -56 937 -28 965 l -56 1019 q 66 1065 -10 1065 q 120 1057 94 1065 q 182 1035 147 1049 q 235 1015 214 1022 q 277 1009 256 1009 q 342 1022 313 1009 q 398 1062 370 1034 l 398 980 q 276 933 352 933 z "},"j":{"ha":341,"x_min":-17,"x_max":249,"o":"m -17 -271 q 83 -91 52 -183 q 113 118 113 0 l 113 753 l 228 753 l 228 124 q 188 -113 228 -8 q 58 -322 148 -218 l -17 -271 m 169 921 q 111 940 131 921 q 90 992 90 958 q 111 1044 90 1026 q 169 1063 131 1063 q 228 1044 208 1063 q 249 992 249 1026 q 228 940 249 958 q 169 921 208 921 z "},"ȷ":{"ha":341,"x_min":-17,"x_max":228,"o":"m -17 -271 q 83 -91 52 -183 q 113 118 113 0 l 113 753 l 228 753 l 228 124 q 188 -113 228 -8 q 58 -322 148 -218 l -17 -271 z "},"ĵ":{"ha":341,"x_min":-51,"x_max":390,"o":"m -17 -271 q 83 -91 52 -183 q 113 118 113 0 l 113 753 l 228 753 l 228 124 q 188 -113 228 -8 q 58 -322 148 -218 l -17 -271 m 390 874 l 297 874 l 169 1067 l 42 874 l -51 874 l 119 1127 l 220 1127 l 390 874 z "},"k":{"ha":767,"x_min":113,"x_max":779,"o":"m 651 0 l 370 338 l 227 338 l 227 0 l 113 0 l 113 1122 l 227 1122 l 227 433 l 369 433 l 629 753 l 756 753 l 463 388 l 779 0 l 651 0 z "},"ķ":{"ha":767,"x_min":113,"x_max":779,"o":"m 651 0 l 370 338 l 227 338 l 227 0 l 113 0 l 113 1122 l 227 1122 l 227 433 l 369 433 l 629 753 l 756 753 l 463 388 l 779 0 l 651 0 m 406 -113 q 463 -133 444 -113 q 482 -190 482 -152 q 472 -256 482 -219 q 442 -324 461 -292 l 371 -324 q 400 -227 394 -270 q 350 -210 367 -225 q 333 -169 333 -194 q 352 -128 333 -144 q 406 -113 371 -113 z "},"ĸ":{"ha":767,"x_min":113,"x_max":779,"o":"m 651 0 l 370 338 l 227 338 l 227 0 l 113 0 l 113 753 l 227 753 l 227 433 l 369 433 l 629 753 l 756 753 l 463 388 l 779 0 l 651 0 z "},"l":{"ha":341,"x_min":113,"x_max":227,"o":"m 113 0 l 113 1122 l 227 1122 l 227 0 l 113 0 z "},"ĺ":{"ha":341,"x_min":113,"x_max":382,"o":"m 113 0 l 113 1122 l 227 1122 l 227 0 l 113 0 m 117 1183 l 256 1381 l 382 1381 l 224 1183 l 117 1183 z "},"ľ":{"ha":341,"x_min":113,"x_max":396,"o":"m 113 0 l 113 1122 l 227 1122 l 227 0 l 113 0 m 297 819 q 312 1122 312 942 l 396 1122 q 387 966 396 1045 q 362 819 378 886 l 297 819 z "},"ļ":{"ha":341,"x_min":96,"x_max":244,"o":"m 113 0 l 113 1122 l 227 1122 l 227 0 l 113 0 m 168 -113 q 225 -133 206 -113 q 244 -190 244 -152 q 234 -256 244 -219 q 205 -324 224 -292 l 133 -324 q 163 -227 157 -270 q 113 -210 130 -225 q 96 -169 96 -194 q 115 -128 96 -144 q 168 -113 133 -113 z "},"ŀ":{"ha":422,"x_min":113,"x_max":453,"o":"m 113 0 l 113 1122 l 227 1122 l 227 0 l 113 0 m 374 480 q 316 499 336 480 q 295 551 295 517 q 316 603 295 584 q 374 622 336 622 q 432 603 412 622 q 453 551 453 584 q 432 499 453 517 q 374 480 412 480 z "},"ḷ":{"ha":341,"x_min":98,"x_max":242,"o":"m 113 0 l 113 1122 l 227 1122 l 227 0 l 113 0 m 170 -251 q 117 -232 136 -251 q 98 -182 98 -214 q 117 -132 98 -151 q 170 -113 137 -113 q 223 -132 203 -113 q 242 -182 242 -151 q 223 -232 242 -214 q 170 -251 204 -251 z "},"ǉ":{"ha":682,"x_min":113,"x_max":590,"o":"m 113 0 l 113 1122 l 227 1122 l 227 0 l 113 0 m 324 -271 q 424 -91 393 -183 q 454 118 454 0 l 454 753 l 569 753 l 569 124 q 529 -113 569 -8 q 399 -322 489 -218 l 324 -271 m 510 921 q 452 940 472 921 q 431 992 431 958 q 452 1044 431 1026 q 510 1063 472 1063 q 569 1044 549 1063 q 590 992 590 1026 q 569 940 590 958 q 510 921 549 921 z "},"ḻ":{"ha":341,"x_min":-39,"x_max":379,"o":"m 113 0 l 113 1122 l 227 1122 l 227 0 l 113 0 m -39 -220 l -39 -144 l 379 -144 l 379 -220 l -39 -220 z "},"ł":{"ha":341,"x_min":-8,"x_max":351,"o":"m 351 570 l 227 486 l 227 0 l 113 0 l 113 409 l 33 355 l -8 422 l 113 503 l 113 1122 l 227 1122 l 227 581 l 310 637 l 351 570 z "},"m":{"ha":1243,"x_min":113,"x_max":1139,"o":"m 899 765 q 1075 698 1011 765 q 1139 487 1139 631 l 1139 0 l 1025 0 l 1025 481 q 985 621 1025 578 q 872 664 944 664 q 768 641 819 664 q 678 569 717 618 q 685 490 685 533 l 685 0 l 573 0 l 573 481 q 534 622 573 579 q 424 664 495 664 q 317 639 369 664 q 227 562 265 613 l 227 0 l 113 0 l 113 753 l 209 753 l 217 667 l 225 667 q 328 740 269 715 q 454 765 388 765 q 652 656 597 765 q 769 739 706 713 q 899 765 833 765 z "},"ṃ":{"ha":1243,"x_min":113,"x_max":1139,"o":"m 899 765 q 1075 698 1011 765 q 1139 487 1139 631 l 1139 0 l 1025 0 l 1025 481 q 985 621 1025 578 q 872 664 944 664 q 768 641 819 664 q 678 569 717 618 q 685 490 685 533 l 685 0 l 573 0 l 573 481 q 534 622 573 579 q 424 664 495 664 q 317 639 369 664 q 227 562 265 613 l 227 0 l 113 0 l 113 753 l 209 753 l 217 667 l 225 667 q 328 740 269 715 q 454 765 388 765 q 652 656 597 765 q 769 739 706 713 q 899 765 833 765 m 629 -251 q 576 -232 595 -251 q 557 -182 557 -214 q 576 -132 557 -151 q 629 -113 596 -113 q 682 -132 663 -113 q 701 -182 701 -151 q 682 -232 701 -214 q 629 -251 663 -251 z "},"n":{"ha":845,"x_min":113,"x_max":742,"o":"m 113 753 l 209 753 l 217 667 l 225 667 q 342 740 276 715 q 481 765 408 765 q 673 698 603 765 q 742 484 742 630 l 742 0 l 628 0 l 628 480 q 583 621 628 578 q 453 664 538 664 q 332 640 393 664 q 227 565 271 615 l 227 0 l 113 0 l 113 753 z "},"ń":{"ha":845,"x_min":113,"x_max":742,"o":"m 113 753 l 209 753 l 217 667 l 225 667 q 342 740 276 715 q 481 765 408 765 q 673 698 603 765 q 742 484 742 630 l 742 0 l 628 0 l 628 480 q 583 621 628 578 q 453 664 538 664 q 332 640 393 664 q 227 565 271 615 l 227 0 l 113 0 l 113 753 m 374 869 l 544 1122 l 669 1122 l 483 869 l 374 869 z "},"ŉ":{"ha":845,"x_min":10,"x_max":742,"o":"m 113 753 l 209 753 l 217 667 l 225 667 q 342 740 276 715 q 481 765 408 765 q 673 698 603 765 q 742 484 742 630 l 742 0 l 628 0 l 628 480 q 583 621 628 578 q 453 664 538 664 q 332 640 393 664 q 227 565 271 615 l 227 0 l 113 0 l 113 753 m 82 1128 q 139 1109 119 1128 q 158 1052 158 1090 q 147 985 158 1022 q 118 917 137 948 l 47 917 q 76 1015 71 969 q 27 1032 44 1017 q 10 1072 10 1047 q 28 1113 10 1098 q 82 1128 47 1128 z "},"ň":{"ha":845,"x_min":113,"x_max":742,"o":"m 113 753 l 209 753 l 217 667 l 225 667 q 342 740 276 715 q 481 765 408 765 q 673 698 603 765 q 742 484 742 630 l 742 0 l 628 0 l 628 480 q 583 621 628 578 q 453 664 538 664 q 332 640 393 664 q 227 565 271 615 l 227 0 l 113 0 l 113 753 m 559 1122 l 653 1122 l 479 869 l 378 869 l 204 1122 l 298 1122 l 428 928 l 559 1122 z "},"ņ":{"ha":845,"x_min":113,"x_max":742,"o":"m 113 753 l 209 753 l 217 667 l 225 667 q 342 740 276 715 q 481 765 408 765 q 673 698 603 765 q 742 484 742 630 l 742 0 l 628 0 l 628 480 q 583 621 628 578 q 453 664 538 664 q 332 640 393 664 q 227 565 271 615 l 227 0 l 113 0 l 113 753 m 426 -113 q 484 -133 465 -113 q 503 -190 503 -152 q 492 -256 503 -219 q 463 -324 482 -292 l 392 -324 q 421 -227 415 -270 q 371 -210 388 -225 q 354 -169 354 -194 q 373 -128 354 -144 q 426 -113 392 -113 z "},"ṅ":{"ha":845,"x_min":113,"x_max":742,"o":"m 113 753 l 209 753 l 217 667 l 225 667 q 342 740 276 715 q 481 765 408 765 q 673 698 603 765 q 742 484 742 630 l 742 0 l 628 0 l 628 480 q 583 621 628 578 q 453 664 538 664 q 332 640 393 664 q 227 565 271 615 l 227 0 l 113 0 l 113 753 m 428 916 q 370 935 390 916 q 349 987 349 953 q 370 1040 349 1021 q 428 1058 390 1058 q 487 1040 467 1058 q 508 987 508 1021 q 487 935 508 953 q 428 916 467 916 z "},"ṇ":{"ha":845,"x_min":113,"x_max":742,"o":"m 113 753 l 209 753 l 217 667 l 225 667 q 342 740 276 715 q 481 765 408 765 q 673 698 603 765 q 742 484 742 630 l 742 0 l 628 0 l 628 480 q 583 621 628 578 q 453 664 538 664 q 332 640 393 664 q 227 565 271 615 l 227 0 l 113 0 l 113 753 m 428 -251 q 375 -232 394 -251 q 356 -182 356 -214 q 376 -132 356 -151 q 428 -113 395 -113 q 481 -132 462 -113 q 501 -182 501 -151 q 482 -232 501 -214 q 428 -251 463 -251 z "},"ŋ":{"ha":845,"x_min":113,"x_max":742,"o":"m 497 -271 q 597 -91 567 -183 q 628 118 628 0 l 628 482 q 583 622 628 580 q 453 665 538 665 q 331 640 391 665 q 227 565 270 615 l 227 0 l 113 0 l 113 753 l 209 753 l 217 667 l 225 667 q 341 741 275 716 q 481 765 406 765 q 673 699 603 765 q 742 488 742 632 l 742 103 q 698 -122 736 -23 q 572 -322 660 -221 l 497 -271 z "},"ǌ":{"ha":1186,"x_min":113,"x_max":1094,"o":"m 113 753 l 209 753 l 217 667 l 225 667 q 342 740 276 715 q 481 765 408 765 q 673 698 603 765 q 742 484 742 630 l 742 0 l 628 0 l 628 480 q 583 621 628 578 q 453 664 538 664 q 332 640 393 664 q 227 565 271 615 l 227 0 l 113 0 l 113 753 m 828 -271 q 928 -91 897 -183 q 958 118 958 0 l 958 753 l 1073 753 l 1073 124 q 1033 -113 1073 -8 q 903 -322 993 -218 l 828 -271 m 1015 921 q 956 940 976 921 q 935 992 935 958 q 956 1044 935 1026 q 1015 1063 976 1063 q 1073 1044 1053 1063 q 1094 992 1094 1026 q 1073 940 1094 958 q 1015 921 1053 921 z "},"ṉ":{"ha":845,"x_min":113,"x_max":742,"o":"m 113 753 l 209 753 l 217 667 l 225 667 q 342 740 276 715 q 481 765 408 765 q 673 698 603 765 q 742 484 742 630 l 742 0 l 628 0 l 628 480 q 583 621 628 578 q 453 664 538 664 q 332 640 393 664 q 227 565 271 615 l 227 0 l 113 0 l 113 753 m 219 -220 l 219 -144 l 638 -144 l 638 -220 l 219 -220 z "},"ñ":{"ha":845,"x_min":113,"x_max":742,"o":"m 113 753 l 209 753 l 217 667 l 225 667 q 342 740 276 715 q 481 765 408 765 q 673 698 603 765 q 742 484 742 630 l 742 0 l 628 0 l 628 480 q 583 621 628 578 q 453 664 538 664 q 332 640 393 664 q 227 565 271 615 l 227 0 l 113 0 l 113 753 m 533 933 q 479 941 505 933 q 417 964 453 949 q 364 983 385 977 q 322 990 343 990 q 258 977 286 990 q 201 937 229 965 l 201 1019 q 324 1065 247 1065 q 378 1057 352 1065 q 440 1035 404 1049 q 493 1015 472 1022 q 535 1009 514 1009 q 599 1022 571 1009 q 656 1062 628 1034 l 656 980 q 533 933 610 933 z "},"o":{"ha":824,"x_min":72,"x_max":753,"o":"m 413 -13 q 162 83 252 -13 q 72 376 72 180 q 162 668 72 572 q 413 765 252 765 q 664 669 574 765 q 753 376 753 573 q 711 159 753 246 q 593 29 669 72 q 413 -13 517 -13 m 413 79 q 579 149 521 79 q 637 375 637 218 q 579 603 637 534 q 413 673 522 673 q 245 604 303 673 q 188 378 188 535 q 245 149 188 219 q 413 79 303 79 z "},"ó":{"ha":824,"x_min":72,"x_max":753,"o":"m 413 -13 q 162 83 252 -13 q 72 376 72 180 q 162 668 72 572 q 413 765 252 765 q 664 669 574 765 q 753 376 753 573 q 711 159 753 246 q 593 29 669 72 q 413 -13 517 -13 m 413 79 q 579 149 521 79 q 637 375 637 218 q 579 603 637 534 q 413 673 522 673 q 245 604 303 673 q 188 378 188 535 q 245 149 188 219 q 413 79 303 79 m 358 869 l 528 1122 l 653 1122 l 467 869 l 358 869 z "},"ŏ":{"ha":824,"x_min":72,"x_max":753,"o":"m 413 -13 q 162 83 252 -13 q 72 376 72 180 q 162 668 72 572 q 413 765 252 765 q 664 669 574 765 q 753 376 753 573 q 711 159 753 246 q 593 29 669 72 q 413 -13 517 -13 m 413 79 q 579 149 521 79 q 637 375 637 218 q 579 603 637 534 q 413 673 522 673 q 245 604 303 673 q 188 378 188 535 q 245 149 188 219 q 413 79 303 79 m 413 877 q 252 938 310 877 q 190 1104 194 998 l 267 1104 q 413 945 278 945 q 518 986 483 945 q 558 1104 553 1027 l 635 1104 q 573 937 631 997 q 413 877 516 877 z "},"ô":{"ha":824,"x_min":72,"x_max":753,"o":"m 413 -13 q 162 83 252 -13 q 72 376 72 180 q 162 668 72 572 q 413 765 252 765 q 664 669 574 765 q 753 376 753 573 q 711 159 753 246 q 593 29 669 72 q 413 -13 517 -13 m 413 79 q 579 149 521 79 q 637 375 637 218 q 579 603 637 534 q 413 673 522 673 q 245 604 303 673 q 188 378 188 535 q 245 149 188 219 q 413 79 303 79 m 633 869 l 540 869 l 413 1063 l 285 869 l 192 869 l 362 1122 l 463 1122 l 633 869 z "},"ố":{"ha":824,"x_min":72,"x_max":815,"o":"m 413 -13 q 162 83 252 -13 q 72 376 72 180 q 162 668 72 572 q 413 765 252 765 q 664 669 574 765 q 753 376 753 573 q 711 159 753 246 q 593 29 669 72 q 413 -13 517 -13 m 413 79 q 579 149 521 79 q 637 375 637 218 q 579 603 637 534 q 413 673 522 673 q 245 604 303 673 q 188 378 188 535 q 245 149 188 219 q 413 79 303 79 m 706 1297 l 815 1297 l 656 1109 l 567 1109 l 706 1297 m 362 1122 l 463 1122 l 633 869 l 540 869 l 413 1063 l 285 869 l 192 869 l 362 1122 z "},"ộ":{"ha":824,"x_min":72,"x_max":753,"o":"m 413 -13 q 162 83 252 -13 q 72 376 72 180 q 162 668 72 572 q 413 765 252 765 q 664 669 574 765 q 753 376 753 573 q 711 159 753 246 q 593 29 669 72 q 413 -13 517 -13 m 413 79 q 579 149 521 79 q 637 375 637 218 q 579 603 637 534 q 413 673 522 673 q 245 604 303 673 q 188 378 188 535 q 245 149 188 219 q 413 79 303 79 m 413 -251 q 359 -232 378 -251 q 340 -182 340 -214 q 360 -132 340 -151 q 413 -113 379 -113 q 465 -132 446 -113 q 485 -182 485 -151 q 466 -232 485 -214 q 413 -251 447 -251 m 633 869 l 540 869 l 413 1063 l 285 869 l 192 869 l 362 1122 l 463 1122 l 633 869 z "},"ồ":{"ha":824,"x_min":72,"x_max":753,"o":"m 413 -13 q 162 83 252 -13 q 72 376 72 180 q 162 668 72 572 q 413 765 252 765 q 664 669 574 765 q 753 376 753 573 q 711 159 753 246 q 593 29 669 72 q 413 -13 517 -13 m 413 79 q 579 149 521 79 q 637 375 637 218 q 579 603 637 534 q 413 673 522 673 q 245 604 303 673 q 188 378 188 535 q 245 149 188 219 q 413 79 303 79 m 675 1109 l 585 1109 l 428 1297 l 536 1297 l 675 1109 m 362 1122 l 463 1122 l 633 869 l 540 869 l 413 1063 l 285 869 l 192 869 l 362 1122 z "},"ổ":{"ha":824,"x_min":72,"x_max":754,"o":"m 413 -13 q 162 83 252 -13 q 72 376 72 180 q 162 668 72 572 q 413 765 252 765 q 664 669 574 765 q 753 376 753 573 q 711 159 753 246 q 593 29 669 72 q 413 -13 517 -13 m 413 79 q 579 149 521 79 q 637 375 637 218 q 579 603 637 534 q 413 673 522 673 q 245 604 303 673 q 188 378 188 535 q 245 149 188 219 q 413 79 303 79 m 611 1302 q 719 1282 684 1302 q 754 1224 754 1262 q 739 1185 754 1199 q 691 1158 723 1172 q 651 1136 665 1146 q 636 1109 638 1126 l 568 1109 q 580 1143 569 1129 q 605 1164 591 1156 q 642 1182 619 1172 q 676 1199 665 1191 q 687 1219 687 1206 q 668 1243 687 1235 q 605 1251 649 1251 q 534 1246 567 1251 q 465 1230 501 1241 l 465 1280 q 532 1296 494 1290 q 611 1302 569 1302 m 362 1122 l 463 1122 l 633 869 l 540 869 l 413 1063 l 285 869 l 192 869 l 362 1122 z "},"ỗ":{"ha":824,"x_min":72,"x_max":753,"o":"m 413 -13 q 162 83 252 -13 q 72 376 72 180 q 162 668 72 572 q 413 765 252 765 q 664 669 574 765 q 753 376 753 573 q 711 159 753 246 q 593 29 669 72 q 413 -13 517 -13 m 413 79 q 579 149 521 79 q 637 375 637 218 q 579 603 637 534 q 413 673 522 673 q 245 604 303 673 q 188 378 188 535 q 245 149 188 219 q 413 79 303 79 m 522 1217 q 588 1228 558 1217 q 644 1263 617 1239 l 644 1192 q 520 1149 599 1149 q 466 1156 491 1149 q 401 1176 441 1162 q 348 1193 370 1188 q 303 1199 325 1199 q 238 1188 267 1199 q 181 1152 209 1176 l 181 1224 q 305 1267 226 1267 q 359 1260 334 1267 q 424 1240 384 1254 q 477 1223 455 1228 q 522 1217 500 1217 m 360 1108 l 465 1108 l 640 870 l 542 870 l 413 1055 l 283 870 l 185 870 l 360 1108 z "},"ȍ":{"ha":824,"x_min":72,"x_max":753,"o":"m 413 -13 q 162 83 252 -13 q 72 376 72 180 q 162 668 72 572 q 413 765 252 765 q 664 669 574 765 q 753 376 753 573 q 711 159 753 246 q 593 29 669 72 q 413 -13 517 -13 m 413 79 q 579 149 521 79 q 637 375 637 218 q 579 603 637 534 q 413 673 522 673 q 245 604 303 673 q 188 378 188 535 q 245 149 188 219 q 413 79 303 79 m 243 869 l 123 1122 l 222 1122 l 334 869 l 243 869 m 491 869 l 371 1122 l 469 1122 l 582 869 l 491 869 z "},"ö":{"ha":824,"x_min":72,"x_max":753,"o":"m 413 -13 q 162 83 252 -13 q 72 376 72 180 q 162 668 72 572 q 413 765 252 765 q 664 669 574 765 q 753 376 753 573 q 711 159 753 246 q 593 29 669 72 q 413 -13 517 -13 m 413 79 q 579 149 521 79 q 637 375 637 218 q 579 603 637 534 q 413 673 522 673 q 245 604 303 673 q 188 378 188 535 q 245 149 188 219 q 413 79 303 79 m 248 917 q 195 936 214 917 q 176 987 176 954 q 195 1038 176 1019 q 248 1057 214 1057 q 301 1038 282 1057 q 320 987 320 1019 q 301 936 320 954 q 248 917 282 917 m 577 917 q 524 936 543 917 q 505 987 505 954 q 524 1038 505 1019 q 577 1057 543 1057 q 630 1038 611 1057 q 649 987 649 1019 q 630 936 649 954 q 577 917 611 917 z "},"ȫ":{"ha":824,"x_min":72,"x_max":753,"o":"m 413 -13 q 162 83 252 -13 q 72 376 72 180 q 162 668 72 572 q 413 765 252 765 q 664 669 574 765 q 753 376 753 573 q 711 159 753 246 q 593 29 669 72 q 413 -13 517 -13 m 413 79 q 579 149 521 79 q 637 375 637 218 q 579 603 637 534 q 413 673 522 673 q 245 604 303 673 q 188 378 188 535 q 245 149 188 219 q 413 79 303 79 m 248 917 q 195 936 214 917 q 176 987 176 954 q 195 1038 176 1019 q 248 1057 214 1057 q 301 1038 282 1057 q 320 987 320 1019 q 301 936 320 954 q 248 917 282 917 m 577 917 q 524 936 543 917 q 505 987 505 954 q 524 1038 505 1019 q 577 1057 543 1057 q 630 1038 611 1057 q 649 987 649 1019 q 630 936 649 954 q 577 917 611 917 m 185 1162 l 185 1238 l 640 1238 l 640 1162 l 185 1162 z "},"ȱ":{"ha":824,"x_min":72,"x_max":753,"o":"m 413 -13 q 162 83 252 -13 q 72 376 72 180 q 162 668 72 572 q 413 765 252 765 q 664 669 574 765 q 753 376 753 573 q 711 159 753 246 q 593 29 669 72 q 413 -13 517 -13 m 413 79 q 579 149 521 79 q 637 375 637 218 q 579 603 637 534 q 413 673 522 673 q 245 604 303 673 q 188 378 188 535 q 245 149 188 219 q 413 79 303 79 m 413 916 q 354 935 374 916 q 333 987 333 953 q 354 1040 333 1021 q 413 1058 374 1058 q 471 1040 451 1058 q 492 987 492 1021 q 471 935 492 953 q 413 916 451 916 m 185 1163 l 185 1239 l 640 1239 l 640 1163 l 185 1163 z "},"ọ":{"ha":824,"x_min":72,"x_max":753,"o":"m 413 -13 q 162 83 252 -13 q 72 376 72 180 q 162 668 72 572 q 413 765 252 765 q 664 669 574 765 q 753 376 753 573 q 711 159 753 246 q 593 29 669 72 q 413 -13 517 -13 m 413 79 q 579 149 521 79 q 637 375 637 218 q 579 603 637 534 q 413 673 522 673 q 245 604 303 673 q 188 378 188 535 q 245 149 188 219 q 413 79 303 79 m 413 -251 q 359 -232 378 -251 q 340 -182 340 -214 q 360 -132 340 -151 q 413 -113 379 -113 q 465 -132 446 -113 q 485 -182 485 -151 q 466 -232 485 -214 q 413 -251 447 -251 z "},"ò":{"ha":824,"x_min":72,"x_max":753,"o":"m 413 -13 q 162 83 252 -13 q 72 376 72 180 q 162 668 72 572 q 413 765 252 765 q 664 669 574 765 q 753 376 753 573 q 711 159 753 246 q 593 29 669 72 q 413 -13 517 -13 m 413 79 q 579 149 521 79 q 637 375 637 218 q 579 603 637 534 q 413 673 522 673 q 245 604 303 673 q 188 378 188 535 q 245 149 188 219 q 413 79 303 79 m 358 869 l 172 1122 l 297 1122 l 467 869 l 358 869 z "},"ỏ":{"ha":824,"x_min":72,"x_max":753,"o":"m 413 -13 q 162 83 252 -13 q 72 376 72 180 q 162 668 72 572 q 413 765 252 765 q 664 669 574 765 q 753 376 753 573 q 711 159 753 246 q 593 29 669 72 q 413 -13 517 -13 m 413 79 q 579 149 521 79 q 637 375 637 218 q 579 603 637 534 q 413 673 522 673 q 245 604 303 673 q 188 378 188 535 q 245 149 188 219 q 413 79 303 79 m 378 869 q 390 916 379 897 q 414 947 400 935 q 449 973 427 958 q 482 1000 472 988 q 493 1027 493 1011 q 472 1062 493 1051 q 407 1074 451 1074 q 292 1057 346 1074 l 292 1113 q 348 1126 316 1121 q 410 1131 381 1131 q 563 1033 563 1131 q 555 994 563 1010 q 535 967 547 978 q 503 944 524 957 q 463 910 477 926 q 447 869 449 895 l 378 869 z "},"ơ":{"ha":824,"x_min":72,"x_max":773,"o":"m 635 695 q 753 376 753 599 q 711 159 753 246 q 593 29 669 72 q 413 -13 517 -13 q 162 83 252 -13 q 72 376 72 180 q 162 668 72 572 q 415 765 253 765 q 499 760 456 765 q 550 758 537 758 q 690 872 690 758 q 686 919 690 897 q 675 969 683 942 l 757 969 q 769 921 766 944 q 773 867 773 897 q 737 753 773 797 q 635 695 701 709 m 413 79 q 579 149 521 79 q 637 375 637 218 q 579 603 637 534 q 413 673 522 673 q 245 604 303 673 q 188 378 188 535 q 245 149 188 219 q 413 79 303 79 z "},"ớ":{"ha":824,"x_min":72,"x_max":773,"o":"m 645 1122 l 462 869 l 356 869 l 522 1122 l 645 1122 m 635 695 q 753 376 753 599 q 711 159 753 246 q 593 29 669 72 q 413 -13 517 -13 q 162 83 252 -13 q 72 376 72 180 q 162 668 72 572 q 415 765 253 765 q 499 760 456 765 q 550 758 537 758 q 690 872 690 758 q 686 919 690 897 q 675 969 683 942 l 757 969 q 769 921 766 944 q 773 867 773 897 q 737 753 773 797 q 635 695 701 709 m 413 79 q 579 149 521 79 q 637 375 637 218 q 579 603 637 534 q 413 673 522 673 q 245 604 303 673 q 188 378 188 535 q 245 149 188 219 q 413 79 303 79 z "},"ợ":{"ha":824,"x_min":72,"x_max":773,"o":"m 635 695 q 753 376 753 599 q 711 159 753 246 q 593 29 669 72 q 413 -13 517 -13 q 162 83 252 -13 q 72 376 72 180 q 162 668 72 572 q 415 765 253 765 q 499 760 456 765 q 550 758 537 758 q 690 872 690 758 q 686 919 690 897 q 675 969 683 942 l 757 969 q 769 921 766 944 q 773 867 773 897 q 737 753 773 797 q 635 695 701 709 m 413 79 q 579 149 521 79 q 637 375 637 218 q 579 603 637 534 q 413 673 522 673 q 245 604 303 673 q 188 378 188 535 q 245 149 188 219 q 413 79 303 79 m 410 -251 q 357 -232 376 -251 q 338 -182 338 -214 q 357 -132 338 -151 q 410 -113 376 -113 q 463 -132 443 -113 q 482 -182 482 -151 q 463 -232 482 -214 q 410 -251 444 -251 z "},"ờ":{"ha":824,"x_min":72,"x_max":773,"o":"m 635 695 q 753 376 753 599 q 711 159 753 246 q 593 29 669 72 q 413 -13 517 -13 q 162 83 252 -13 q 72 376 72 180 q 162 668 72 572 q 415 765 253 765 q 499 760 456 765 q 550 758 537 758 q 690 872 690 758 q 686 919 690 897 q 675 969 683 942 l 757 969 q 769 921 766 944 q 773 867 773 897 q 737 753 773 797 q 635 695 701 709 m 413 79 q 579 149 521 79 q 637 375 637 218 q 579 603 637 534 q 413 673 522 673 q 245 604 303 673 q 188 378 188 535 q 245 149 188 219 q 413 79 303 79 m 354 869 l 167 1122 l 293 1122 l 463 869 l 354 869 z "},"ở":{"ha":824,"x_min":72,"x_max":773,"o":"m 635 695 q 753 376 753 599 q 711 159 753 246 q 593 29 669 72 q 413 -13 517 -13 q 162 83 252 -13 q 72 376 72 180 q 162 668 72 572 q 415 765 253 765 q 499 760 456 765 q 550 758 537 758 q 690 872 690 758 q 686 919 690 897 q 675 969 683 942 l 757 969 q 769 921 766 944 q 773 867 773 897 q 737 753 773 797 q 635 695 701 709 m 413 79 q 579 149 521 79 q 637 375 637 218 q 579 603 637 534 q 413 673 522 673 q 245 604 303 673 q 188 378 188 535 q 245 149 188 219 q 413 79 303 79 m 374 869 q 385 916 375 897 q 409 947 396 935 q 444 973 423 958 q 478 1000 467 988 q 489 1027 489 1011 q 468 1062 489 1051 q 403 1074 447 1074 q 288 1057 342 1074 l 288 1113 q 344 1126 312 1121 q 406 1131 376 1131 q 559 1033 559 1131 q 551 994 559 1010 q 531 967 543 978 q 499 944 519 957 q 459 910 473 926 q 443 869 445 895 l 374 869 z "},"ỡ":{"ha":824,"x_min":72,"x_max":773,"o":"m 507 933 q 454 941 479 933 q 394 963 428 949 q 343 983 365 976 q 301 990 322 990 q 239 977 267 990 q 183 937 210 965 l 183 1019 q 302 1065 228 1065 q 357 1057 331 1065 q 416 1035 383 1049 q 467 1015 447 1022 q 508 1009 488 1009 q 571 1022 542 1009 q 626 1062 599 1034 l 626 980 q 507 933 581 933 m 635 695 q 753 376 753 599 q 711 159 753 246 q 593 29 669 72 q 413 -13 517 -13 q 162 83 252 -13 q 72 376 72 180 q 162 668 72 572 q 415 765 253 765 q 499 760 456 765 q 550 758 537 758 q 690 872 690 758 q 686 919 690 897 q 675 969 683 942 l 757 969 q 769 921 766 944 q 773 867 773 897 q 737 753 773 797 q 635 695 701 709 m 413 79 q 579 149 521 79 q 637 375 637 218 q 579 603 637 534 q 413 673 522 673 q 245 604 303 673 q 188 378 188 535 q 245 149 188 219 q 413 79 303 79 z "},"ő":{"ha":824,"x_min":72,"x_max":753,"o":"m 413 -13 q 162 83 252 -13 q 72 376 72 180 q 162 668 72 572 q 413 765 252 765 q 664 669 574 765 q 753 376 753 573 q 711 159 753 246 q 593 29 669 72 q 413 -13 517 -13 m 413 79 q 579 149 521 79 q 637 375 637 218 q 579 603 637 534 q 413 673 522 673 q 245 604 303 673 q 188 378 188 535 q 245 149 188 219 q 413 79 303 79 m 245 869 l 358 1122 l 454 1122 l 334 869 l 245 869 m 491 869 l 603 1122 l 700 1122 l 580 869 l 491 869 z "},"ȏ":{"ha":824,"x_min":72,"x_max":753,"o":"m 413 -13 q 162 83 252 -13 q 72 376 72 180 q 162 668 72 572 q 413 765 252 765 q 664 669 574 765 q 753 376 753 573 q 711 159 753 246 q 593 29 669 72 q 413 -13 517 -13 m 413 79 q 579 149 521 79 q 637 375 637 218 q 579 603 637 534 q 413 673 522 673 q 245 604 303 673 q 188 378 188 535 q 245 149 188 219 q 413 79 303 79 m 190 889 q 251 1056 194 997 q 412 1116 308 1116 q 573 1056 515 1116 q 635 889 631 995 l 558 889 q 517 1007 553 965 q 412 1048 481 1048 q 267 889 276 1048 l 190 889 z "},"ō":{"ha":824,"x_min":72,"x_max":753,"o":"m 413 -13 q 162 83 252 -13 q 72 376 72 180 q 162 668 72 572 q 413 765 252 765 q 664 669 574 765 q 753 376 753 573 q 711 159 753 246 q 593 29 669 72 q 413 -13 517 -13 m 413 79 q 579 149 521 79 q 637 375 637 218 q 579 603 637 534 q 413 673 522 673 q 245 604 303 673 q 188 378 188 535 q 245 149 188 219 q 413 79 303 79 m 185 950 l 185 1026 l 640 1026 l 640 950 l 185 950 z "},"ṓ":{"ha":824,"x_min":72,"x_max":753,"o":"m 413 -13 q 162 83 252 -13 q 72 376 72 180 q 162 668 72 572 q 413 765 252 765 q 664 669 574 765 q 753 376 753 573 q 711 159 753 246 q 593 29 669 72 q 413 -13 517 -13 m 413 79 q 579 149 521 79 q 637 375 637 218 q 579 603 637 534 q 413 673 522 673 q 245 604 303 673 q 188 378 188 535 q 245 149 188 219 q 413 79 303 79 m 185 950 l 185 1026 l 640 1026 l 640 950 l 185 950 m 359 1124 l 498 1322 l 624 1322 l 465 1124 l 359 1124 z "},"ṑ":{"ha":824,"x_min":72,"x_max":753,"o":"m 413 -13 q 162 83 252 -13 q 72 376 72 180 q 162 668 72 572 q 413 765 252 765 q 664 669 574 765 q 753 376 753 573 q 711 159 753 246 q 593 29 669 72 q 413 -13 517 -13 m 413 79 q 579 149 521 79 q 637 375 637 218 q 579 603 637 534 q 413 673 522 673 q 245 604 303 673 q 188 378 188 535 q 245 149 188 219 q 413 79 303 79 m 185 950 l 185 1026 l 640 1026 l 640 950 l 185 950 m 359 1124 l 201 1322 l 327 1322 l 466 1124 l 359 1124 z "},"ǫ":{"ha":824,"x_min":72,"x_max":753,"o":"m 531 3 q 363 -153 363 -47 q 388 -212 363 -191 q 455 -233 413 -233 q 551 -210 503 -233 l 561 -263 q 445 -289 508 -289 q 332 -255 374 -289 q 291 -161 291 -221 q 381 -12 291 -69 q 153 94 234 -3 q 72 376 72 190 q 162 668 72 572 q 413 765 252 765 q 664 669 574 765 q 753 376 753 573 q 695 128 753 221 q 531 3 638 35 m 188 378 q 245 149 188 219 q 413 79 303 79 q 579 149 521 79 q 637 375 637 218 q 579 603 637 534 q 413 673 522 673 q 245 604 303 673 q 188 378 188 535 z "},"ø":{"ha":824,"x_min":72,"x_max":753,"o":"m 669 662 q 753 376 753 563 q 711 159 753 246 q 593 29 669 72 q 413 -13 517 -13 q 206 44 288 -13 l 156 -22 l 101 20 l 155 92 q 72 376 72 191 q 162 668 72 572 q 413 765 252 765 q 618 709 538 765 l 669 776 l 724 734 l 669 662 m 413 674 q 244 605 302 674 q 185 378 185 535 q 224 178 185 251 l 560 626 q 413 674 507 674 m 413 78 q 581 148 522 78 q 639 375 639 217 q 600 574 639 502 l 264 127 q 413 78 317 78 z "},"ǿ":{"ha":824,"x_min":72,"x_max":753,"o":"m 669 662 q 753 376 753 563 q 711 159 753 246 q 593 29 669 72 q 413 -13 517 -13 q 206 44 288 -13 l 156 -22 l 101 20 l 155 92 q 72 376 72 191 q 162 668 72 572 q 413 765 252 765 q 618 709 538 765 l 669 776 l 724 734 l 669 662 m 413 674 q 244 605 302 674 q 185 378 185 535 q 224 178 185 251 l 560 626 q 413 674 507 674 m 413 78 q 581 148 522 78 q 639 375 639 217 q 600 574 639 502 l 264 127 q 413 78 317 78 m 353 869 l 522 1122 l 648 1122 l 461 869 l 353 869 z "},"õ":{"ha":824,"x_min":72,"x_max":753,"o":"m 413 -13 q 162 83 252 -13 q 72 376 72 180 q 162 668 72 572 q 413 765 252 765 q 664 669 574 765 q 753 376 753 573 q 711 159 753 246 q 593 29 669 72 q 413 -13 517 -13 m 413 79 q 579 149 521 79 q 637 375 637 218 q 579 603 637 534 q 413 673 522 673 q 245 604 303 673 q 188 378 188 535 q 245 149 188 219 q 413 79 303 79 m 517 933 q 463 941 489 933 q 401 964 437 949 q 348 983 369 977 q 306 990 327 990 q 242 977 270 990 q 185 937 213 965 l 185 1019 q 308 1065 231 1065 q 362 1057 336 1065 q 424 1035 388 1049 q 477 1015 456 1022 q 519 1009 498 1009 q 583 1022 555 1009 q 640 1062 612 1034 l 640 980 q 517 933 594 933 z "},"ṍ":{"ha":824,"x_min":72,"x_max":753,"o":"m 413 -13 q 162 83 252 -13 q 72 376 72 180 q 162 668 72 572 q 413 765 252 765 q 664 669 574 765 q 753 376 753 573 q 711 159 753 246 q 593 29 669 72 q 413 -13 517 -13 m 413 79 q 579 149 521 79 q 637 375 637 218 q 579 603 637 534 q 413 673 522 673 q 245 604 303 673 q 188 378 188 535 q 245 149 188 219 q 413 79 303 79 m 517 933 q 463 941 489 933 q 401 964 437 949 q 348 983 369 977 q 306 990 327 990 q 242 977 270 990 q 185 937 213 965 l 185 1019 q 308 1065 231 1065 q 362 1057 336 1065 q 424 1035 388 1049 q 477 1015 456 1022 q 519 1009 498 1009 q 583 1022 555 1009 q 640 1062 612 1034 l 640 980 q 517 933 594 933 m 389 1199 l 528 1397 l 653 1397 l 495 1199 l 389 1199 z "},"ṏ":{"ha":824,"x_min":72,"x_max":753,"o":"m 413 -13 q 162 83 252 -13 q 72 376 72 180 q 162 668 72 572 q 413 765 252 765 q 664 669 574 765 q 753 376 753 573 q 711 159 753 246 q 593 29 669 72 q 413 -13 517 -13 m 413 79 q 579 149 521 79 q 637 375 637 218 q 579 603 637 534 q 413 673 522 673 q 245 604 303 673 q 188 378 188 535 q 245 149 188 219 q 413 79 303 79 m 517 933 q 463 941 489 933 q 401 964 437 949 q 348 983 369 977 q 306 990 327 990 q 242 977 270 990 q 185 937 213 965 l 185 1019 q 308 1065 231 1065 q 362 1057 336 1065 q 424 1035 388 1049 q 477 1015 456 1022 q 519 1009 498 1009 q 583 1022 555 1009 q 640 1062 612 1034 l 640 980 q 517 933 594 933 m 248 1129 q 195 1148 214 1129 q 176 1199 176 1166 q 195 1250 176 1231 q 248 1269 214 1269 q 301 1250 282 1269 q 320 1199 320 1231 q 301 1148 320 1166 q 248 1129 282 1129 m 577 1129 q 524 1148 543 1129 q 505 1199 505 1166 q 524 1250 505 1231 q 577 1269 543 1269 q 630 1250 611 1269 q 649 1199 649 1231 q 630 1148 649 1166 q 577 1129 611 1129 z "},"ȭ":{"ha":824,"x_min":72,"x_max":753,"o":"m 413 -13 q 162 83 252 -13 q 72 376 72 180 q 162 668 72 572 q 413 765 252 765 q 664 669 574 765 q 753 376 753 573 q 711 159 753 246 q 593 29 669 72 q 413 -13 517 -13 m 413 79 q 579 149 521 79 q 637 375 637 218 q 579 603 637 534 q 413 673 522 673 q 245 604 303 673 q 188 378 188 535 q 245 149 188 219 q 413 79 303 79 m 517 933 q 463 941 489 933 q 401 964 437 949 q 348 983 369 977 q 306 990 327 990 q 242 977 270 990 q 185 937 213 965 l 185 1019 q 308 1065 231 1065 q 362 1057 336 1065 q 424 1035 388 1049 q 477 1015 456 1022 q 519 1009 498 1009 q 583 1022 555 1009 q 640 1062 612 1034 l 640 980 q 517 933 594 933 m 185 1162 l 185 1238 l 640 1238 l 640 1162 l 185 1162 z "},"œ":{"ha":1320,"x_min":72,"x_max":1260,"o":"m 1260 340 l 749 340 q 820 141 753 202 q 1022 79 887 79 q 1222 112 1115 79 l 1222 19 q 1008 -13 1115 -13 q 808 27 888 -13 q 687 151 728 67 q 577 28 648 69 q 406 -13 506 -13 q 161 84 250 -13 q 72 376 72 181 q 113 594 72 507 q 229 723 154 681 q 406 765 304 765 q 581 724 509 765 q 690 598 653 682 q 794 723 726 681 q 957 765 862 765 q 1181 667 1102 765 q 1260 376 1260 569 l 1260 340 m 952 683 q 803 619 856 683 q 749 417 751 556 l 1151 417 q 1099 620 1149 556 q 952 683 1049 683 m 410 79 q 575 149 518 79 q 633 375 633 218 q 575 603 633 533 q 410 673 518 673 q 245 603 303 673 q 188 378 188 534 q 245 149 188 219 q 410 79 303 79 z "},"p":{"ha":840,"x_min":113,"x_max":769,"o":"m 113 753 l 210 753 l 219 667 l 226 667 q 323 739 265 713 q 452 765 382 765 q 615 727 544 765 q 727 605 686 688 q 769 391 769 522 q 668 88 769 190 q 368 -13 567 -13 q 227 -1 313 -13 l 227 -306 l 113 -306 l 113 753 m 369 80 q 583 152 513 80 q 653 381 653 224 q 593 602 653 535 q 426 668 533 668 q 316 645 367 668 q 227 572 265 622 l 227 96 q 294 84 257 88 q 369 80 332 80 z "},"þ":{"ha":840,"x_min":113,"x_max":769,"o":"m 113 1122 l 227 1122 l 227 670 l 234 670 q 332 740 274 715 q 460 765 390 765 q 619 726 550 765 q 728 604 688 688 q 769 391 769 520 q 668 88 769 190 q 368 -13 567 -13 q 227 -1 313 -13 l 227 -306 l 113 -306 l 113 1122 m 369 80 q 583 152 513 80 q 653 381 653 224 q 593 601 653 535 q 426 667 533 667 q 316 644 369 667 q 227 574 264 622 l 227 96 q 294 84 257 88 q 369 80 332 80 z "},"q":{"ha":840,"x_min":72,"x_max":727,"o":"m 613 81 l 607 81 q 508 11 566 36 q 379 -13 450 -13 q 221 26 290 -13 q 112 148 152 65 q 72 360 72 231 q 173 664 72 563 q 474 765 274 765 q 604 756 539 765 q 727 729 669 747 l 727 -306 l 613 -306 l 613 81 m 413 85 q 524 107 471 85 q 613 173 576 128 l 613 655 q 463 673 546 673 q 257 600 326 673 q 188 371 188 526 q 247 151 188 217 q 413 85 307 85 z "},"r":{"ha":540,"x_min":113,"x_max":531,"o":"m 113 753 l 208 753 l 218 653 l 225 653 q 329 733 265 704 q 461 761 392 761 q 531 755 497 761 l 531 649 q 456 655 499 655 q 331 628 394 655 q 227 551 267 602 l 227 0 l 113 0 l 113 753 z "},"ŕ":{"ha":540,"x_min":113,"x_max":561,"o":"m 113 753 l 208 753 l 218 653 l 225 653 q 329 733 265 704 q 461 761 392 761 q 531 755 497 761 l 531 649 q 456 655 499 655 q 331 628 394 655 q 227 551 267 602 l 227 0 l 113 0 l 113 753 m 266 869 l 435 1122 l 561 1122 l 374 869 l 266 869 z "},"ř":{"ha":540,"x_min":96,"x_max":544,"o":"m 113 753 l 208 753 l 218 653 l 225 653 q 329 733 265 704 q 461 761 392 761 q 531 755 497 761 l 531 649 q 456 655 499 655 q 331 628 394 655 q 227 551 267 602 l 227 0 l 113 0 l 113 753 m 451 1122 l 544 1122 l 371 869 l 269 869 l 96 1122 l 190 1122 l 320 928 l 451 1122 z "},"ŗ":{"ha":540,"x_min":97,"x_max":531,"o":"m 113 753 l 208 753 l 218 653 l 225 653 q 329 733 265 704 q 461 761 392 761 q 531 755 497 761 l 531 649 q 456 655 499 655 q 331 628 394 655 q 227 551 267 602 l 227 0 l 113 0 l 113 753 m 169 -113 q 226 -133 207 -113 q 245 -190 245 -152 q 235 -256 245 -219 q 206 -324 224 -292 l 134 -324 q 163 -227 158 -270 q 114 -210 131 -225 q 97 -169 97 -194 q 115 -128 97 -144 q 169 -113 134 -113 z "},"ȑ":{"ha":540,"x_min":31,"x_max":531,"o":"m 113 753 l 208 753 l 218 653 l 225 653 q 329 733 265 704 q 461 761 392 761 q 531 755 497 761 l 531 649 q 456 655 499 655 q 331 628 394 655 q 227 551 267 602 l 227 0 l 113 0 l 113 753 m 151 869 l 31 1122 l 129 1122 l 242 869 l 151 869 m 399 869 l 278 1122 l 377 1122 l 490 869 l 399 869 z "},"ṛ":{"ha":540,"x_min":99,"x_max":531,"o":"m 113 753 l 208 753 l 218 653 l 225 653 q 329 733 265 704 q 461 761 392 761 q 531 755 497 761 l 531 649 q 456 655 499 655 q 331 628 394 655 q 227 551 267 602 l 227 0 l 113 0 l 113 753 m 171 -251 q 118 -232 137 -251 q 99 -182 99 -214 q 118 -132 99 -151 q 171 -113 138 -113 q 224 -132 204 -113 q 243 -182 243 -151 q 224 -232 243 -214 q 171 -251 205 -251 z "},"ȓ":{"ha":540,"x_min":97,"x_max":543,"o":"m 113 753 l 208 753 l 218 653 l 225 653 q 329 733 265 704 q 461 761 392 761 q 531 755 497 761 l 531 649 q 456 655 499 655 q 331 628 394 655 q 227 551 267 602 l 227 0 l 113 0 l 113 753 m 97 889 q 159 1056 102 997 q 319 1116 216 1116 q 480 1056 422 1116 q 543 889 538 995 l 466 889 q 424 1007 460 965 q 319 1048 388 1048 q 174 889 184 1048 l 97 889 z "},"ṟ":{"ha":540,"x_min":-38,"x_max":531,"o":"m 113 753 l 208 753 l 218 653 l 225 653 q 329 733 265 704 q 461 761 392 761 q 531 755 497 761 l 531 649 q 456 655 499 655 q 331 628 394 655 q 227 551 267 602 l 227 0 l 113 0 l 113 753 m -38 -220 l -38 -144 l 380 -144 l 380 -220 l -38 -220 z "},"s":{"ha":673,"x_min":71,"x_max":620,"o":"m 310 -13 q 85 18 185 -13 l 85 109 q 198 84 143 92 q 311 76 252 76 q 463 108 415 76 q 510 202 510 140 q 483 280 510 253 q 387 319 456 306 l 272 340 q 118 411 166 360 q 71 546 71 461 q 105 660 71 611 q 209 738 139 710 q 385 765 279 765 q 578 740 490 765 l 578 649 q 483 669 529 663 q 388 676 438 676 q 229 641 277 676 q 181 549 181 607 q 207 474 181 503 q 300 433 234 446 l 415 412 q 571 343 522 392 q 620 209 620 295 q 541 45 620 104 q 310 -13 463 -13 z "},"ś":{"ha":673,"x_min":71,"x_max":620,"o":"m 310 -13 q 85 18 185 -13 l 85 109 q 198 84 143 92 q 311 76 252 76 q 463 108 415 76 q 510 202 510 140 q 483 280 510 253 q 387 319 456 306 l 272 340 q 118 411 166 360 q 71 546 71 461 q 105 660 71 611 q 209 738 139 710 q 385 765 279 765 q 578 740 490 765 l 578 649 q 483 669 529 663 q 388 676 438 676 q 229 641 277 676 q 181 549 181 607 q 207 474 181 503 q 300 433 234 446 l 415 412 q 571 343 522 392 q 620 209 620 295 q 541 45 620 104 q 310 -13 463 -13 m 285 869 l 455 1122 l 581 1122 l 394 869 l 285 869 z "},"ṥ":{"ha":673,"x_min":71,"x_max":620,"o":"m 310 -13 q 85 18 185 -13 l 85 109 q 198 84 143 92 q 311 76 252 76 q 463 108 415 76 q 510 202 510 140 q 483 280 510 253 q 387 319 456 306 l 272 340 q 118 411 166 360 q 71 546 71 461 q 105 660 71 611 q 209 738 139 710 q 385 765 279 765 q 578 740 490 765 l 578 649 q 483 669 529 663 q 388 676 438 676 q 229 641 277 676 q 181 549 181 607 q 207 474 181 503 q 300 433 234 446 l 415 412 q 571 343 522 392 q 620 209 620 295 q 541 45 620 104 q 310 -13 463 -13 m 278 1094 q 227 1110 246 1094 q 209 1153 209 1126 q 227 1196 209 1180 q 278 1212 246 1212 q 329 1196 310 1212 q 347 1153 347 1180 q 329 1110 347 1126 q 278 1094 310 1094 m 285 869 l 455 1122 l 581 1122 l 394 869 l 285 869 z "},"š":{"ha":673,"x_min":71,"x_max":620,"o":"m 310 -13 q 85 18 185 -13 l 85 109 q 198 84 143 92 q 311 76 252 76 q 463 108 415 76 q 510 202 510 140 q 483 280 510 253 q 387 319 456 306 l 272 340 q 118 411 166 360 q 71 546 71 461 q 105 660 71 611 q 209 738 139 710 q 385 765 279 765 q 578 740 490 765 l 578 649 q 483 669 529 663 q 388 676 438 676 q 229 641 277 676 q 181 549 181 607 q 207 474 181 503 q 300 433 234 446 l 415 412 q 571 343 522 392 q 620 209 620 295 q 541 45 620 104 q 310 -13 463 -13 m 470 1122 l 564 1122 l 390 869 l 289 869 l 115 1122 l 209 1122 l 340 928 l 470 1122 z "},"ṧ":{"ha":673,"x_min":71,"x_max":620,"o":"m 310 -13 q 85 18 185 -13 l 85 109 q 198 84 143 92 q 311 76 252 76 q 463 108 415 76 q 510 202 510 140 q 483 280 510 253 q 387 319 456 306 l 272 340 q 118 411 166 360 q 71 546 71 461 q 105 660 71 611 q 209 738 139 710 q 385 765 279 765 q 578 740 490 765 l 578 649 q 483 669 529 663 q 388 676 438 676 q 229 641 277 676 q 181 549 181 607 q 207 474 181 503 q 300 433 234 446 l 415 412 q 571 343 522 392 q 620 209 620 295 q 541 45 620 104 q 310 -13 463 -13 m 340 1128 q 289 1144 307 1128 q 271 1187 271 1160 q 289 1230 271 1214 q 340 1246 307 1246 q 390 1230 372 1246 q 408 1187 408 1214 q 390 1144 408 1160 q 340 1128 372 1128 m 470 1122 l 564 1122 l 390 869 l 289 869 l 115 1122 l 209 1122 l 340 928 l 470 1122 z "},"ş":{"ha":673,"x_min":71,"x_max":620,"o":"m 620 209 q 558 59 620 117 q 375 -10 496 2 l 375 -72 q 460 -105 431 -77 q 490 -179 490 -133 q 452 -260 490 -231 q 344 -289 414 -289 q 277 -282 310 -289 q 219 -264 243 -276 l 219 -207 q 340 -234 277 -234 q 401 -220 381 -234 q 422 -176 422 -206 q 401 -131 422 -145 q 339 -117 381 -117 l 310 -117 l 310 -13 q 85 18 185 -13 l 85 109 q 198 84 143 92 q 311 76 252 76 q 463 108 415 76 q 510 202 510 140 q 483 280 510 253 q 387 319 456 306 l 272 340 q 118 411 166 360 q 71 546 71 461 q 105 660 71 611 q 209 738 139 710 q 385 765 279 765 q 578 740 490 765 l 578 649 q 483 669 529 663 q 388 676 438 676 q 229 641 277 676 q 181 549 181 607 q 207 474 181 503 q 300 433 234 446 l 415 412 q 571 343 522 392 q 620 209 620 295 z "},"ŝ":{"ha":673,"x_min":71,"x_max":620,"o":"m 310 -13 q 85 18 185 -13 l 85 109 q 198 84 143 92 q 311 76 252 76 q 463 108 415 76 q 510 202 510 140 q 483 280 510 253 q 387 319 456 306 l 272 340 q 118 411 166 360 q 71 546 71 461 q 105 660 71 611 q 209 738 139 710 q 385 765 279 765 q 578 740 490 765 l 578 649 q 483 669 529 663 q 388 676 438 676 q 229 641 277 676 q 181 549 181 607 q 207 474 181 503 q 300 433 234 446 l 415 412 q 571 343 522 392 q 620 209 620 295 q 541 45 620 104 q 310 -13 463 -13 m 560 869 l 467 869 l 340 1063 l 213 869 l 119 869 l 289 1122 l 390 1122 l 560 869 z "},"ș":{"ha":673,"x_min":71,"x_max":620,"o":"m 310 -13 q 85 18 185 -13 l 85 109 q 198 84 143 92 q 311 76 252 76 q 463 108 415 76 q 510 202 510 140 q 483 280 510 253 q 387 319 456 306 l 272 340 q 118 411 166 360 q 71 546 71 461 q 105 660 71 611 q 209 738 139 710 q 385 765 279 765 q 578 740 490 765 l 578 649 q 483 669 529 663 q 388 676 438 676 q 229 641 277 676 q 181 549 181 607 q 207 474 181 503 q 300 433 234 446 l 415 412 q 571 343 522 392 q 620 209 620 295 q 541 45 620 104 q 310 -13 463 -13 m 338 -113 q 395 -133 376 -113 q 414 -190 414 -152 q 403 -256 414 -219 q 374 -324 393 -292 l 303 -324 q 332 -227 326 -270 q 282 -210 299 -225 q 265 -169 265 -194 q 284 -128 265 -144 q 338 -113 303 -113 z "},"ṡ":{"ha":673,"x_min":71,"x_max":620,"o":"m 310 -13 q 85 18 185 -13 l 85 109 q 198 84 143 92 q 311 76 252 76 q 463 108 415 76 q 510 202 510 140 q 483 280 510 253 q 387 319 456 306 l 272 340 q 118 411 166 360 q 71 546 71 461 q 105 660 71 611 q 209 738 139 710 q 385 765 279 765 q 578 740 490 765 l 578 649 q 483 669 529 663 q 388 676 438 676 q 229 641 277 676 q 181 549 181 607 q 207 474 181 503 q 300 433 234 446 l 415 412 q 571 343 522 392 q 620 209 620 295 q 541 45 620 104 q 310 -13 463 -13 m 340 916 q 281 935 301 916 q 260 987 260 953 q 281 1040 260 1021 q 340 1058 301 1058 q 398 1040 378 1058 q 419 987 419 1021 q 398 935 419 953 q 340 916 378 916 z "},"ṣ":{"ha":673,"x_min":71,"x_max":620,"o":"m 310 -13 q 85 18 185 -13 l 85 109 q 198 84 143 92 q 311 76 252 76 q 463 108 415 76 q 510 202 510 140 q 483 280 510 253 q 387 319 456 306 l 272 340 q 118 411 166 360 q 71 546 71 461 q 105 660 71 611 q 209 738 139 710 q 385 765 279 765 q 578 740 490 765 l 578 649 q 483 669 529 663 q 388 676 438 676 q 229 641 277 676 q 181 549 181 607 q 207 474 181 503 q 300 433 234 446 l 415 412 q 571 343 522 392 q 620 209 620 295 q 541 45 620 104 q 310 -13 463 -13 m 340 -251 q 286 -232 306 -251 q 267 -182 267 -214 q 287 -132 267 -151 q 340 -113 306 -113 q 392 -132 373 -113 q 412 -182 412 -151 q 393 -232 412 -214 q 340 -251 374 -251 z "},"ṩ":{"ha":673,"x_min":71,"x_max":620,"o":"m 310 -13 q 85 18 185 -13 l 85 109 q 198 84 143 92 q 311 76 252 76 q 463 108 415 76 q 510 202 510 140 q 483 280 510 253 q 387 319 456 306 l 272 340 q 118 411 166 360 q 71 546 71 461 q 105 660 71 611 q 209 738 139 710 q 385 765 279 765 q 578 740 490 765 l 578 649 q 483 669 529 663 q 388 676 438 676 q 229 641 277 676 q 181 549 181 607 q 207 474 181 503 q 300 433 234 446 l 415 412 q 571 343 522 392 q 620 209 620 295 q 541 45 620 104 q 310 -13 463 -13 m 340 -251 q 286 -232 306 -251 q 267 -182 267 -214 q 287 -132 267 -151 q 340 -113 306 -113 q 392 -132 373 -113 q 412 -182 412 -151 q 393 -232 412 -214 q 340 -251 374 -251 m 340 916 q 281 935 301 916 q 260 987 260 953 q 281 1040 260 1021 q 340 1058 301 1058 q 398 1040 378 1058 q 419 987 419 1021 q 398 935 419 953 q 340 916 378 916 z "}}}
